{
.appVersion = "1287";
DisplayStrings = (
"",
E,
"¿?",
"/greaterequal",
"/lessequal",
"/G.ss03 ilimanuks\012ihibik\012ip"
);
classes = (
{
automatic = 1;
code = "A B C D E F G H I J K L M N O P Q R S T U V W X Y Z A.ss01 E.ss01 F.ss01 J.ss01 U.ss02 Y.ss02 G.ss03 K.ss03 Q.ss03 R.ss03 U.ss03";
name = Uppercase;
}
);
copyright = "Copyright © 2021 by Buda Patrayasa. All rights reserved.";
customParameters = (
{
name = vendorID;
value = BW;
},
{
name = fsType;
value = (
);
},
{
name = Axes;
value = (
{
Name = Weight;
Tag = wght;
}
);
}
);
date = "2021-12-31 10:59:56 AM +0000";
designer = "Buda Patrayasa";
designerURL = instagram.com/budapatrayasa;
familyName = "Sewaka Sans";
featurePrefixes = (
{
automatic = 1;
code = "languagesystem DFLT dflt;\012";
name = Languagesystems;
}
);
features = (
{
automatic = 1;
code = "feature salt;\012feature ss01;\012feature ss02;\012feature ss03;\012";
name = aalt;
},
{
automatic = 1;
code = "lookupflag IgnoreMarks;\012sub f t by f_t;\012sub t i by t_i;\012sub t t by t_t;\012";
name = dlig;
},
{
automatic = 1;
code = "lookupflag IgnoreMarks;\012sub f f by f_f;\012sub f i by f_i;\012sub f l by f_l;\012";
name = liga;
},
{
automatic = 1;
code = "sub A by A.ss01;\012sub E by E.ss01;\012sub F by F.ss01;\012sub J by J.ss01;\012sub a by a.ss01;\012sub f by f.ss01;\012sub g by g.ss01;\012sub h by h.ss01;\012sub m by m.ss01;\012sub n by n.ss01;\012sub r by r.ss01;\012sub f_f by f_f.ss01;\012sub f_i by f_i.ss01;\012sub f_l by f_l.ss01;\012sub f_t by f_t.ss01;\012sub t_i by t_i.ss01;\012sub t_t by t_t.ss01;\012";
name = salt;
},
{
automatic = 1;
code = "sub A by A.ss01;\012sub E by E.ss01;\012sub F by F.ss01;\012sub J by J.ss01;\012sub a by a.ss01;\012sub f by f.ss01;\012sub g by g.ss01;\012sub h by h.ss01;\012sub m by m.ss01;\012sub n by n.ss01;\012sub r by r.ss01;\012sub f_f by f_f.ss01;\012sub f_i by f_i.ss01;\012sub f_l by f_l.ss01;\012sub f_t by f_t.ss01;\012sub t_i by t_i.ss01;\012sub t_t by t_t.ss01;\012";
name = ss01;
},
{
automatic = 1;

glyphs = (
{
glyphname = A;
lastChange = "2021-12-05 15:54:10 +0000";
layers = (
{
layerId = "3A3E882A-FD1E-4FEC-B6F3-0E8C1BCDAD39";
paths = (
{
closed = 1;
nodes = (
"60 0 LINE",
"148 177 LINE",
"452 177 LINE",
"478 0 LINE",
"572 0 LINE",
"444 700 LINE",
"339 700 LINE",
"-34 0 LINE"
);
},
{
closed = 1;
nodes = (
"375 605 LINE",
"437 258 LINE",
"191 258 LINE"
);
}
);
width = 626;
},
{
layerId = "541F4A62-0ECD-4B4B-B1D5-38FFB5FB401F";
paths = (
{
closed = 1;
nodes = (
"116 0 LINE",
"204 177 LINE",
"460 177 LINE",
"486 0 LINE",
"642 0 LINE",
"502 700 LINE",
"350 700 LINE",
"-40 0 LINE"
);
},
{
closed = 1;
nodes = (
"395 534 LINE",
"439 298 LINE",
"269 298 LINE"
);
}
);
width = 692;
}
);
leftKerningGroup = A;
rightKerningGroup = A;
unicode = 0041;
},
{
glyphname = B;
lastChange = "2021-12-05 10:36:32 +0000";
layers = (
{
layerId = "3A3E882A-FD1E-4FEC-B6F3-0E8C1BCDAD39";
paths = (
{
closed = 1;
nodes = (
"332 0 LINE SMOOTH",
"506 0 OFFCURVE",
"568 87 OFFCURVE",
"586 192 CURVE SMOOTH",
"599 263 OFFCURVE",
"572 363 OFFCURVE",
"493 387 CURVE",
"488 361 LINE",
"556 398 OFFCURVE",
"597 470 OFFCURVE",
"607 531 CURVE SMOOTH",
"624 625 OFFCURVE",
"575 700 OFFCURVE",
"438 700 CURVE SMOOTH",
"155 700 LINE",
"33 0 LINE"
);
},
{
closed = 1;
nodes = (
"235 621 LINE",
"434 620 LINE SMOOTH",
"498 620 OFFCURVE",
"529 568 OFFCURVE",
"519 513 CURVE SMOOTH",
"511 462 OFFCURVE",
"465 409 OFFCURVE",
"397 409 CURVE SMOOTH",
"198 409 LINE"
);
},
{
closed = 1;
nodes = (
"185 334 LINE",
"399 334 LINE SMOOTH",
"471 334 OFFCURVE",
"504 274 OFFCURVE",
"490 195 CURVE SMOOTH",
"479 133 OFFCURVE",
"425 80 OFFCURVE",
"355 80 CURVE SMOOTH",
"140 79 LINE"
);
}
);
width = 634;
},
{
layerId = "541F4A62-0ECD-4B4B-B1D5-38FFB5FB401F";
paths = (
{
closed = 1;
nodes = (
"341 0 LINE SMOOTH",
"506 0 OFFCURVE",
"605 72 OFFCURVE",
"630 212 CURVE SMOOTH",
"649 323 OFFCURVE",
"576 377 OFFCURVE",
"473 382 CURVE",
"455 342 LINE",
"554 373 OFFCURVE",
"620 428 OFFCURVE",
"637 522 CURVE SMOOTH",
"654 618 OFFCURVE",
"599 700 OFFCURVE",
"449 700 CURVE SMOOTH",
"126 700 LINE",
"2 0 LINE"
);
},
{
closed = 1;
nodes = (
"258 580 LINE",
"427 580 LINE SMOOTH",
"469 580 OFFCURVE",
"497 553 OFFCURVE",
"488 504 CURVE SMOOTH",
"479 455 OFFCURVE",
"443 423 OFFCURVE",
"400 423 CURVE SMOOTH",
"231 423 LINE"
);
},
{
closed = 1;
nodes = (
"210 303 LINE",
"394 303 LINE SMOOTH",
"444 303 OFFCURVE",
"477 286 OFFCURVE",
"465 215 CURVE SMOOTH",
"455 160 OFFCURVE",
"412 120 OFFCURVE",
"362 120 CURVE SMOOTH",
"177 119 LINE"
);
}
);
width = 667;
}
);
unicode = 0042;
},
{
glyphname = C;
lastChange = "2021-12-05 15:54:10 +0000";
layers = (
{
layerId = "3A3E882A-FD1E-4FEC-B6F3-0E8C1BCDAD39";
paths = (
{
closed = 1;
nodes = (
"467 -15 OFFCURVE",
"568 51 OFFCURVE",
"632 148 CURVE",
"554 187 LINE",
"510 114 OFFCURVE",
"430 65 OFFCURVE",
"348 65 CURVE SMOOTH",
"223 65 OFFCURVE",
"139 185 OFFCURVE",
"162 350 CURVE SMOOTH",
"184 514 OFFCURVE",
"303 635 OFFCURVE",
"428 635 CURVE SMOOTH",
"510 635 OFFCURVE",
"576 586 OFFCURVE",
"599 513 CURVE",
"688 552 LINE",
"652 649 OFFCURVE",
"560 715 OFFCURVE",
"440 715 CURVE SMOOTH",
"260 715 OFFCURVE",
"96 544 OFFCURVE",
"68 350 CURVE",
"41 155 OFFCURVE",
"157 -15 OFFCURVE",
"337 -15 CURVE SMOOTH"
);
}
);
width = 688;
},
{
layerId = "541F4A62-0ECD-4B4B-B1D5-38FFB5FB401F";
paths = (
{
closed = 1;
nodes = (
"491 -15 OFFCURVE",
"601 38 OFFCURVE",
"687 184 CURVE",
"559 247 LINE",
"519 164 OFFCURVE",
"445 115 OFFCURVE",
"369 115 CURVE SMOOTH",
"260 115 OFFCURVE",
"187 211 OFFCURVE",
"206 350 CURVE SMOOTH",
"226 489 OFFCURVE",
"327 585 OFFCURVE",
"436 585 CURVE SMOOTH",
"512 585 OFFCURVE",
"572 534 OFFCURVE",
"588 451 CURVE",
"732 514 LINE",
"702 652 OFFCURVE",
"588 715 OFFCURVE",
"454 715 CURVE SMOOTH",
"262 715 OFFCURVE",
"82 561 OFFCURVE",
"52 350 CURVE SMOOTH",
"23 138 OFFCURVE",
"159 -15 OFFCURVE",
"352 -15 CURVE SMOOTH"
);
}
);
width = 722;
}
);
leftKerningGroup = C;
rightKerningGroup = C;
unicode = 0043;
},
{
glyphname = D;
lastChange = "2021-12-05 15:54:10 +0000";
layers = (
{
layerId = "3A3E882A-FD1E-4FEC-B6F3-0E8C1BCDAD39";
paths = (
{
closed = 1;
nodes = (
"155 700 LINE",
"33 0 LINE",
"281 0 LINE SMOOTH",
"474 0 OFFCURVE",
"626 148 OFFCURVE",
"661 349 CURVE SMOOTH",
"695 545 OFFCURVE",
"601 700 OFFCURVE",
"403 700 CURVE SMOOTH"
);
},
{
closed = 1;
nodes = (
"140 80 LINE",
"235 620 LINE",
"389 620 LINE SMOOTH",
"526 621 OFFCURVE",
"592 504 OFFCURVE",
"565 349 CURVE SMOOTH",
"537 195 OFFCURVE",
"433 80 OFFCURVE",
"294 80 CURVE SMOOTH"
);
}
);
width = 694;
},
{
layerId = "541F4A62-0ECD-4B4B-B1D5-38FFB5FB401F";
paths = (
{
closed = 1;
nodes = (
"123 700 LINE",
"-1 0 LINE",
"277 0 LINE SMOOTH",
"483 0 OFFCURVE",
"653 152 OFFCURVE",
"687 349 CURVE SMOOTH",
"726 567 OFFCURVE",
"607 700 OFFCURVE",
"401 700 CURVE SMOOTH"
);
},
{
closed = 1;
nodes = (
"174 120 LINE",
"255 580 LINE",
"379 580 LINE SMOOTH",
"493 580 OFFCURVE",
"558 499 OFFCURVE",
"531 349 CURVE SMOOTH",
"505 200 OFFCURVE",
"414 120 OFFCURVE",
"298 120 CURVE SMOOTH"
);
}
);
width = 705;
}
);
rightKerningGroup = D;
unicode = 0044;
},
{
glyphname = E;
lastChange = "2021-12-05 15:54:10 +0000";
layers = (
{
layerId = "3A3E882A-FD1E-4FEC-B6F3-0E8C1BCDAD39";
paths = (
{
closed = 1;
nodes = (
"486 0 LINE",
"501 85 LINE",
"142 85 LINE",
"182 318 LINE",
"449 318 LINE",
"464 403 LINE",
"197 403 LINE",
"234 615 LINE",
"593 615 LINE",
"608 700 LINE",
"155 700 LINE",
"33 0 LINE"
);
}
);
width = 568;
},
{
layerId = "541F4A62-0ECD-4B4B-B1D5-38FFB5FB401F";
paths = (
{
closed = 1;
nodes = (
"512 0 LINE",
"535 125 LINE",
"176 125 LINE",
"206 298 LINE",
"463 298 LINE",
"485 423 LINE",
"228 423 LINE",
"254 575 LINE",
"613 575 LINE",
"636 700 LINE",
"123 700 LINE",
"-1 0 LINE"
);
}
);
width = 580;
}
);
leftKerningGroup = E;
rightKerningGroup = E;
unicode = 0045;
},
{
glyphname = F;
lastChange = "2021-12-05 15:54:10 +0000";
layers = (
{
layerId = "3A3E882A-FD1E-4FEC-B6F3-0E8C1BCDAD39";
paths = (
{
closed = 1;
nodes = (
"127 0 LINE",
"182 318 LINE",
"536 318 LINE",
"551 403 LINE",
"197 403 LINE",
"234 615 LINE",
"588 615 LINE",
"603 700 LINE",
"155 700 LINE",
"33 0 LINE"
);
}
);
width = 562;
},
{
layerId = "541F4A62-0ECD-4B4B-B1D5-38FFB5FB401F";
paths = (
{
closed = 1;
nodes = (
"153 0 LINE",
"208 308 LINE",
"562 308 LINE",
"583 433 LINE",
"229 433 LINE",
"254 575 LINE",
"608 575 LINE",
"631 700 LINE",
"123 700 LINE",
"-1 0 LINE"
);
}
);
width = 575;
}
);
leftKerningGroup = F;
rightKerningGroup = F;
unicode = 0046;
},
{
glyphname = G;
lastChange = "2021-12-05 15:54:10 +0000";
layers = (
{
layerId = "3A3E882A-FD1E-4FEC-B6F3-0E8C1BCDAD39";
paths = (
{
closed = 1;
nodes = (
"369 287 LINE",
"596 287 LINE",
"589 239 OFFCURVE",
"579 205 OFFCURVE",
"564 178 CURVE",
"520 92 OFFCURVE",
"462 70 OFFCURVE",
"360 70 CURVE SMOOTH",
"235 70 OFFCURVE",
"139 185 OFFCURVE",
"162 350 CURVE SMOOTH",
"184 514 OFFCURVE",
"303 635 OFFCURVE",
"428 635 CURVE SMOOTH",
"510 635 OFFCURVE",
"586 586 OFFCURVE",
"609 513 CURVE",
"698 552 LINE",
"662 649 OFFCURVE",
"560 715 OFFCURVE",
"440 715 CURVE SMOOTH",
"260 715 OFFCURVE",
"96 544 OFFCURVE",
"68 350 CURVE SMOOTH",
"41 155 OFFCURVE",
"158 -15 OFFCURVE",
"328 -15 CURVE SMOOTH",
"485 -15 OFFCURVE",
"563 21 OFFCURVE",
"631 138 CURVE SMOOTH",
"671 206 OFFCURVE",
"676 293 OFFCURVE",
"688 372 CURVE",
"381 372 LINE"
);
}
);
width = 738;
},
{
layerId = "541F4A62-0ECD-4B4B-B1D5-38FFB5FB401F";
paths = (
{
closed = 1;
nodes = (
"350 267 LINE",
"578 267 LINE",
"571 228 OFFCURVE",
"562 208 OFFCURVE",
"550 189 CURVE",
"508 125 OFFCURVE",
"448 115 OFFCURVE",
"369 115 CURVE SMOOTH",
"260 115 OFFCURVE",
"186 201 OFFCURVE",
"206 350 CURVE SMOOTH",
"228 499 OFFCURVE",
"327 585 OFFCURVE",
"436 585 CURVE SMOOTH",
"512 585 OFFCURVE",
"576 564 OFFCURVE",
"592 481 CURVE",
"737 544 LINE",
"703 659 OFFCURVE",
"588 715 OFFCURVE",
"454 715 CURVE SMOOTH",
"262 715 OFFCURVE",
"82 561 OFFCURVE",
"52 350 CURVE SMOOTH",
"23 138 OFFCURVE",
"148 -15 OFFCURVE",
"352 -15 CURVE SMOOTH",
"498 -15 OFFCURVE",
"595 15 OFFCURVE",
"664 130 CURVE SMOOTH",
"709 207 OFFCURVE",
"723 318 OFFCURVE",
"735 392 CURVE",
"368 392 LINE"
);
}
);
width = 748;
}
);
leftKerningGroup = C;
rightKerningGroup = G;
unicode = 0047;
},
{
glyphname = H;
lastChange = "2021-12-05 15:54:10 +0000";
layers = (
{
layerId = "3A3E882A-FD1E-4FEC-B6F3-0E8C1BCDAD39";
paths = (
{
closed = 1;
nodes = (
"127 0 LINE",
"180 308 LINE",
"530 308 LINE",
"477 0 LINE",
"571 0 LINE",
"693 700 LINE",
"599 700 LINE",
"545 393 LINE",
"195 393 LINE",
"249 700 LINE",
"155 700 LINE",
"33 0 LINE"
);
}
);
width = 691;
},
{
layerId = "541F4A62-0ECD-4B4B-B1D5-38FFB5FB401F";
paths = (
{
closed = 1;
nodes = (
"187 0 LINE",
"238 288 LINE",
"528 288 LINE",
"477 0 LINE",
"631 0 LINE",
"755 700 LINE",
"601 700 LINE",
"550 413 LINE",
"260 413 LINE",
"311 700 LINE",
"157 700 LINE",
"33 0 LINE"
);
}
);
width = 755;
}
);
rightKerningGroup = H;
unicode = 0048;
},
{
glyphname = I;
lastChange = "2021-12-05 15:54:10 +0000";
layers = (
{
layerId = "3A3E882A-FD1E-4FEC-B6F3-0E8C1BCDAD39";
paths = (
{
closed = 1;
nodes = (
"303 0 LINE",
"315 75 LINE",
"222 75 LINE",
"319 625 LINE",
"412 625 LINE",
"425 700 LINE",
"145 700 LINE",
"132 625 LINE",
"225 625 LINE",
"128 75 LINE",
"35 75 LINE",
"23 0 LINE"
);
}
);
width = 413;
},
{
layerId = "541F4A62-0ECD-4B4B-B1D5-38FFB5FB401F";
paths = (
{
closed = 1;
nodes = (
"352 0 LINE",
"372 115 LINE",
"279 115 LINE",
"363 585 LINE",
"456 585 LINE",
"476 700 LINE",
"136 700 LINE",
"116 585 LINE",
"209 585 LINE",
"125 115 LINE",
"32 115 LINE",
"12 0 LINE"
);
}
);
width = 455;
}
);
rightKerningGroup = I;
unicode = 0049;
},
{
glyphname = J;
lastChange = "2021-12-05 15:54:10 +0000";
layers = (
{
layerId = "3A3E882A-FD1E-4FEC-B6F3-0E8C1BCDAD39";
paths = (
{
closed = 1;
nodes = (
"4 187 LINE",
"-13 54 OFFCURVE",
"64 -15 OFFCURVE",
"189 -15 CURVE SMOOTH",
"320 -15 OFFCURVE",
"412 61 OFFCURVE",
"438 206 CURVE SMOOTH",
"524 700 LINE",
"430 700 LINE",
"344 207 LINE SMOOTH",
"330 127 OFFCURVE",
"281 62 OFFCURVE",
"202 62 CURVE SMOOTH",
"136 62 OFFCURVE",
"77 109 OFFCURVE",
"96 207 CURVE"
);
}
);
width = 522;
},
{
layerId = "541F4A62-0ECD-4B4B-B1D5-38FFB5FB401F";
paths = (
{
closed = 1;
nodes = (
"-1 221 LINE",
"-26 75 OFFCURVE",
"56 -15 OFFCURVE",
"208 -15 CURVE SMOOTH",
"359 -15 OFFCURVE",
"464 73 OFFCURVE",
"490 226 CURVE SMOOTH",
"574 700 LINE",
"420 700 LINE",
"336 227 LINE SMOOTH",
"322 149 OFFCURVE",
"283 105 OFFCURVE",
"229 105 CURVE SMOOTH",
"161 105 OFFCURVE",
"119 161 OFFCURVE",
"135 255 CURVE"
);
}
);
width = 540;
}
);
leftKerningGroup = J;
rightKerningGroup = J;
unicode = 004A;
},
{
glyphname = K;
lastChange = "2021-12-14 09:36:58 +0000";
layers = (
{
layerId = "3A3E882A-FD1E-4FEC-B6F3-0E8C1BCDAD39";
paths = (
{
closed = 1;
nodes = (
"350 401 LINE",
"667 700 LINE",
"558 700 LINE",
"188 350 LINE",
"249 700 LINE",
"155 700 LINE",
"33 0 LINE",
"127 0 LINE",
"167 229 LINE",
"274 330 LINE",
"450 1 LINE",
"563 0 LINE"
);
}
);
width = 617;
},
{
layerId = "541F4A62-0ECD-4B4B-B1D5-38FFB5FB401F";
paths = (
{
closed = 1;
nodes = (
"380 400 LINE",
"717 700 LINE",
"539 700 LINE",
"228 423 LINE",
"277 700 LINE",
"123 700 LINE",
"-1 0 LINE",
"153 0 LINE",
"197 244 LINE",
"265 308 LINE",
"427 1 LINE",
"606 0 LINE"
);
}
);
width = 661;
}
);
leftKerningGroup = K;
rightKerningGroup = K;
unicode = 004B;
},
{
glyphname = L;
lastChange = "2021-12-05 15:54:10 +0000";
layers = (
{
layerId = "3A3E882A-FD1E-4FEC-B6F3-0E8C1BCDAD39";
paths = (
{
closed = 1;
nodes = (
"486 0 LINE",
"501 85 LINE",
"142 85 LINE",
"234 615 LINE",
"249 700 LINE",
"155 700 LINE",
"33 0 LINE"
);
}
);
width = 540;
},
{
layerId = "541F4A62-0ECD-4B4B-B1D5-38FFB5FB401F";
paths = (
{
closed = 1;
nodes = (
"502 0 LINE",
"525 125 LINE",
"176 125 LINE",
"258 595 LINE",
"277 700 LINE",
"123 700 LINE",
"-1 0 LINE"
);
}
);
width = 563;
}
);
rightKerningGroup = L;
unicode = 004C;
},
{
glyphname = M;
lastChange = "2021-12-05 15:54:10 +0000";
layers = (
{
layerId = "3A3E882A-FD1E-4FEC-B6F3-0E8C1BCDAD39";
paths = (
{
closed = 1;
nodes = (
"127 0 LINE",
"232 602 LINE",
"326 0 LINE",
"419 0 LINE",
"722 602 LINE",
"617 0 LINE",
"711 0 LINE",
"833 700 LINE",
"677 700 LINE",
"393 122 LINE",
"311 700 LINE",
"155 700 LINE",
"33 0 LINE"
);
}
);
width = 831;
},
{
layerId = "541F4A62-0ECD-4B4B-B1D5-38FFB5FB401F";
paths = (
{
closed = 1;
nodes = (
"153 0 LINE",
"246 525 LINE",
"316 0 LINE",
"421 0 LINE",
"675 524 LINE",
"583 0 LINE",
"737 0 LINE",
"861 700 LINE",
"641 700 LINE",
"407 218 LINE",
"343 700 LINE",
"123 700 LINE",
"-1 0 LINE"
);
}
);
width = 827;
}
);
rightKerningGroup = H;
unicode = 004D;
},
{
glyphname = N;
lastChange = "2021-12-15 06:50:49 +0000";
layers = (
{
layerId = "3A3E882A-FD1E-4FEC-B6F3-0E8C1BCDAD39";
paths = (
{
closed = 1;
nodes = (
"127 0 LINE",
"232 603 LINE",
"438 0 LINE",
"576 0 LINE",
"698 700 LINE",
"604 700 LINE",
"499 100 LINE",
"294 700 LINE",
"155 700 LINE",
"33 0 LINE"
);
}
);
width = 696;
},
{
layerId = "541F4A62-0ECD-4B4B-B1D5-38FFB5FB401F";
paths = (
{
closed = 1;
nodes = (
"153 0 LINE",
"235 460 LINE",
"444 0 LINE",
"602 0 LINE",
"726 700 LINE",
"572 700 LINE",
"489 235 LINE",
"283 700 LINE",
"123 700 LINE",
"-1 0 LINE"
);
}
);
width = 692;
}
);
rightKerningGroup = H;
unicode = 004E;
},
{
glyphname = O;
lastChange = "2021-12-05 15:54:10 +0000";
layers = (
{
layerId = "3A3E882A-FD1E-4FEC-B6F3-0E8C1BCDAD39";
paths = (
{
closed = 1;
nodes = (
"540 -15 OFFCURVE",
"697 148 OFFCURVE",
"725 349 CURVE SMOOTH",
"753 545 OFFCURVE",
"646 715 OFFCURVE",
"448 715 CURVE SMOOTH",
"255 715 OFFCURVE",
"96 548 OFFCURVE",
"68 349 CURVE SMOOTH",
"40 153 OFFCURVE",
"148 -15 OFFCURVE",
"345 -15 CURVE SMOOTH"
);
},
{
closed = 1;
nodes = (
"219 65 OFFCURVE",
"142 196 OFFCURVE",
"164 349 CURVE SMOOTH",
"185 501 OFFCURVE",
"298 635 OFFCURVE",
"436 635 CURVE SMOOTH",
"574 635 OFFCURVE",
"650 503 OFFCURVE",
"629 349 CURVE SMOOTH",
"607 195 OFFCURVE",
"495 65 OFFCURVE",
"356 65 CURVE SMOOTH"
);
}
);
width = 758;
},
{
layerId = "541F4A62-0ECD-4B4B-B1D5-38FFB5FB401F";
paths = (
{
closed = 1;
nodes = (
"566 -15 OFFCURVE",
"739 129 OFFCURVE",
"769 349 CURVE SMOOTH",
"800 568 OFFCURVE",
"667 715 OFFCURVE",
"462 715 CURVE SMOOTH",
"259 715 OFFCURVE",
"83 568 OFFCURVE",
"52 349 CURVE SMOOTH",
"22 130 OFFCURVE",
"156 -15 OFFCURVE",
"360 -15 CURVE SMOOTH"
);
},
{
closed = 1;
nodes = (
"264 115 OFFCURVE",
"187 200 OFFCURVE",
"208 349 CURVE SMOOTH",
"230 498 OFFCURVE",
"331 585 OFFCURVE",
"444 585 CURVE SMOOTH",
"557 585 OFFCURVE",
"635 499 OFFCURVE",
"613 349 CURVE SMOOTH",
"592 199 OFFCURVE",
"491 115 OFFCURVE",
"377 115 CURVE SMOOTH"
);
}
);
width = 788;
}
);
leftKerningGroup = C;
rightKerningGroup = D;
unicode = 004F;
},
{
glyphname = P;
lastChange = "2021-12-05 15:54:10 +0000";
layers = (
{
layerId = "3A3E882A-FD1E-4FEC-B6F3-0E8C1BCDAD39";
paths = (
{
closed = 1;
nodes = (
"127 1 LINE",
"179 298 LINE",
"294 298 LINE SMOOTH",
"469 298 OFFCURVE",
"582 343 OFFCURVE",
"609 500 CURVE SMOOTH",
"636 655 OFFCURVE",
"546 700 OFFCURVE",
"364 700 CURVE SMOOTH",
"155 700 LINE",
"33 1 LINE"
);
},
{
closed = 1;
nodes = (
"235 621 LINE",
"358 621 LINE SMOOTH",
"471 621 OFFCURVE",
"530 600 OFFCURVE",
"513 500 CURVE SMOOTH",
"496 401 OFFCURVE",
"430 379 OFFCURVE",
"316 379 CURVE SMOOTH",
"193 379 LINE"
);
}
);
width = 603;
},
{
layerId = "541F4A62-0ECD-4B4B-B1D5-38FFB5FB401F";
paths = (
{
closed = 1;
nodes = (
"153 1 LINE",
"201 268 LINE",
"286 268 LINE SMOOTH",
"498 268 OFFCURVE",
"607 332 OFFCURVE",
"633 485 CURVE SMOOTH",
"657 619 OFFCURVE",
"577 700 OFFCURVE",
"362 700 CURVE SMOOTH",
"123 700 LINE",
"-1 1 LINE"
);
},
{
closed = 1;
nodes = (
"255 581 LINE",
"348 581 LINE SMOOTH",
"462 581 OFFCURVE",
"490 544 OFFCURVE",
"479 485 CURVE SMOOTH",
"469 427 OFFCURVE",
"429 389 OFFCURVE",
"315 389 CURVE SMOOTH",
"222 389 LINE"
);
}
);
width = 614;
}
);
leftKerningGroup = P;
rightKerningGroup = P;
unicode = 0050;
},
{
glyphname = Q;
lastChange = "2021-12-05 15:54:10 +0000";
layers = (
{
layerId = "3A3E882A-FD1E-4FEC-B6F3-0E8C1BCDAD39";
paths = (
{
closed = 1;
nodes = (
"527 -15 OFFCURVE",
"690 149 OFFCURVE",
"725 350 CURVE SMOOTH",
"759 546 OFFCURVE",
"658 715 OFFCURVE",
"460 715 CURVE SMOOTH",
"267 715 OFFCURVE",
"103 549 OFFCURVE",
"68 350 CURVE SMOOTH",
"33 154 OFFCURVE",
"135 -15 OFFCURVE",
"332 -15 CURVE SMOOTH"
);
},
{
closed = 1;
nodes = (
"209 65 OFFCURVE",
"136 197 OFFCURVE",
"164 350 CURVE SMOOTH",
"190 502 OFFCURVE",
"308 635 OFFCURVE",
"446 635 CURVE SMOOTH",
"584 635 OFFCURVE",
"656 504 OFFCURVE",
"629 350 CURVE SMOOTH",
"601 196 OFFCURVE",
"485 65 OFFCURVE",
"346 65 CURVE SMOOTH"
);
},
{
closed = 1;
nodes = (
"654 -28 LINE",
"729 40 LINE",
"444 360 LINE",
"369 292 LINE"
);
}
);
width = 766;
},
{
layerId = "541F4A62-0ECD-4B4B-B1D5-38FFB5FB401F";
paths = (
{
closed = 1;
nodes = (
"552 -15 OFFCURVE",
"731 130 OFFCURVE",
"769 350 CURVE SMOOTH",
"807 569 OFFCURVE",
"679 715 OFFCURVE",
"474 715 CURVE SMOOTH",
"271 715 OFFCURVE",
"90 568 OFFCURVE",
"52 350 CURVE SMOOTH",
"14 131 OFFCURVE",
"142 -15 OFFCURVE",
"346 -15 CURVE SMOOTH"
);
},
{
closed = 1;
nodes = (
"255 115 OFFCURVE",
"180 201 OFFCURVE",
"206 350 CURVE SMOOTH",
"232 499 OFFCURVE",
"339 585 OFFCURVE",
"452 585 CURVE SMOOTH",
"566 585 OFFCURVE",
"642 500 OFFCURVE",
"615 350 CURVE SMOOTH",
"588 200 OFFCURVE",
"482 115 OFFCURVE",
"368 115 CURVE SMOOTH"
);
},
{
closed = 1;
nodes = (
"623 -46 LINE",
"732 52 LINE",
"435 385 LINE",
"327 288 LINE"
);
}
);
width = 768;
}
);
leftKerningGroup = C;
rightKerningGroup = Q;
unicode = 0051;
},
{
glyphname = R;
lastChange = "2021-12-15 06:51:47 +0000";
layers = (
{
layerId = "3A3E882A-FD1E-4FEC-B6F3-0E8C1BCDAD39";
paths = (
{
closed = 1;
nodes = (
"512 327 OFFCURVE",
"590 396 OFFCURVE",
"609 501 CURVE SMOOTH",
"636 656 OFFCURVE",
"546 700 OFFCURVE",
"364 700 CURVE SMOOTH",
"155 700 LINE",
"33 1 LINE",
"127 1 LINE",
"179 295 LINE",
"278 295 LINE",
"437 0 LINE",
"552 0 LINE",
"389 304 LINE"
);
},
{
closed = 1;
nodes = (
"235 621 LINE",
"357 621 LINE SMOOTH",
"470 621 OFFCURVE",
"531 601 OFFCURVE",
"513 501 CURVE SMOOTH",
"496 402 OFFCURVE",
"430 376 OFFCURVE",
"316 376 CURVE SMOOTH",
"193 376 LINE"
);
}
);
width = 626;
},
{
layerId = "541F4A62-0ECD-4B4B-B1D5-38FFB5FB401F";
paths = (
{
closed = 1;
nodes = (
"544 325 OFFCURVE",
"617 386 OFFCURVE",
"634 489 CURVE SMOOTH",
"658 623 OFFCURVE",
"578 700 OFFCURVE",
"362 700 CURVE SMOOTH",
"123 700 LINE",
"-1 1 LINE",
"153 1 LINE",
"203 275 LINE",
"254 275 LINE",
"415 0 LINE",
"595 0 LINE",
"426 293 LINE"
);
},
{
closed = 1;
nodes = (
"255 581 LINE",
"347 581 LINE SMOOTH",
"462 581 OFFCURVE",
"488 547 OFFCURVE",
"478 489 CURVE SMOOTH",
"464 409 OFFCURVE",
"427 396 OFFCURVE",
"316 396 CURVE SMOOTH",
"223 396 LINE"
);
}
);
width = 657;
}
);
leftKerningGroup = R;
rightKerningGroup = R;
unicode = 0052;
},
{
glyphname = S;
lastChange = "2021-12-05 10:36:32 +0000";
layers = (
{
layerId = "3A3E882A-FD1E-4FEC-B6F3-0E8C1BCDAD39";
paths = (
{
closed = 1;
nodes = (
"378 -15 OFFCURVE",
"522 66 OFFCURVE",
"548 189 CURVE SMOOTH",
"572 299 OFFCURVE",
"518 365 OFFCURVE",
"394 393 CURVE SMOOTH",
"324 409 LINE SMOOTH",
"251 425 OFFCURVE",
"191 456 OFFCURVE",
"206 524 CURVE SMOOTH",
"220 594 OFFCURVE",
"300 635 OFFCURVE",
"373 635 CURVE SMOOTH",
"434 635 OFFCURVE",
"493 608 OFFCURVE",
"508 561 CURVE",
"601 590 LINE",
"578 674 OFFCURVE",
"494 715 OFFCURVE",
"394 715 CURVE SMOOTH",
"275 715 OFFCURVE",
"134 644 OFFCURVE",
"109 528 CURVE SMOOTH",
"86 423 OFFCURVE",
"138 358 OFFCURVE",
"259 330 CURVE SMOOTH",
"340 311 LINE SMOOTH",
"436 289 OFFCURVE",
"461 248 OFFCURVE",
"449 193 CURVE SMOOTH",
"433 115 OFFCURVE",
"351 65 OFFCURVE",
"266 65 CURVE SMOOTH",
"192 65 OFFCURVE",
"123 101 OFFCURVE",
"115 172 CURVE",
"21 143 LINE",
"33 40 OFFCURVE",
"129 -15 OFFCURVE",
"245 -15 CURVE SMOOTH"
);
}
);
width = 599;
},
{
layerId = "541F4A62-0ECD-4B4B-B1D5-38FFB5FB401F";
paths = (
{
closed = 1;
nodes = (
"423 -15 OFFCURVE",
"572 74 OFFCURVE",
"598 199 CURVE SMOOTH",
"622 316 OFFCURVE",
"562 380 OFFCURVE",
"422 413 CURVE SMOOTH",
"352 429 LINE SMOOTH",
"279 446 OFFCURVE",
"242 472 OFFCURVE",
"252 522 CURVE SMOOTH",
"263 573 OFFCURVE",
"310 595 OFFCURVE",
"382 595 CURVE SMOOTH",
"446 595 OFFCURVE",
"493 563 OFFCURVE",
"497 513 CURVE",
"648 560 LINE",
"633 654 OFFCURVE",
"538 715 OFFCURVE",
"411 715 CURVE SMOOTH",
"256 715 OFFCURVE",
"121 639 OFFCURVE",
"97 526 CURVE SMOOTH",
"73 410 OFFCURVE",
"134 341 OFFCURVE",
"266 310 CURVE SMOOTH",
"348 291 LINE SMOOTH",
"423 274 OFFCURVE",
"450 255 OFFCURVE",
"439 203 CURVE SMOOTH",
"426 140 OFFCURVE",
"367 105 OFFCURVE",
"292 105 CURVE SMOOTH",
"213 105 OFFCURVE",
"162 149 OFFCURVE",
"166 222 CURVE",
"11 174 LINE",
"13 62 OFFCURVE",
"118 -15 OFFCURVE",
"263 -15 CURVE SMOOTH"
);
}
);
width = 631;
}
);
unicode = 0053;
},
{
glyphname = T;
lastChange = "2021-12-05 15:54:10 +0000";
layers = (
{
layerId = "3A3E882A-FD1E-4FEC-B6F3-0E8C1BCDAD39";
paths = (
{
closed = 1;
nodes = (
"283 0 LINE",
"392 625 LINE",
"614 625 LINE",
"627 700 LINE",
"89 700 LINE",
"76 625 LINE",
"298 625 LINE",
"189 0 LINE"
);
}
);
width = 559;
},
{
layerId = "541F4A62-0ECD-4B4B-B1D5-38FFB5FB401F";
paths = (
{
closed = 1;
nodes = (
"336 0 LINE",
"437 575 LINE",
"649 575 LINE",
"672 700 LINE",
"94 700 LINE",
"71 575 LINE",
"283 575 LINE",
"182 0 LINE"
);
}
);
width = 609;
}
);
leftKerningGroup = T;
rightKerningGroup = T;
unicode = 0054;
},
{
glyphname = U;
lastChange = "2021-12-05 15:54:10 +0000";
layers = (
{
layerId = "3A3E882A-FD1E-4FEC-B6F3-0E8C1BCDAD39";
paths = (
{
closed = 1;
nodes = (
"494 -14 OFFCURVE",
"588 103 OFFCURVE",
"623 298 CURVE SMOOTH",
"693 700 LINE",
"599 700 LINE",
"528 291 LINE SMOOTH",
"504 159 OFFCURVE",
"441 67 OFFCURVE",
"313 67 CURVE SMOOTH",
"185 67 OFFCURVE",
"154 159 OFFCURVE",
"178 291 CURVE SMOOTH",
"249 700 LINE",
"155 700 LINE",
"85 298 LINE SMOOTH",
"50 103 OFFCURVE",
"106 -14 OFFCURVE",
"299 -14 CURVE SMOOTH"
);
}
);
width = 691;
},
{
layerId = "541F4A62-0ECD-4B4B-B1D5-38FFB5FB401F";
paths = (
{
closed = 1;
nodes = (
"499 -14 OFFCURVE",
"636 106 OFFCURVE",
"673 318 CURVE SMOOTH",
"741 700 LINE",
"587 700 LINE",
"518 311 LINE SMOOTH",
"496 183 OFFCURVE",
"433 121 OFFCURVE",
"329 121 CURVE SMOOTH",
"225 121 OFFCURVE",
"186 183 OFFCURVE",
"208 311 CURVE SMOOTH",
"277 700 LINE",
"123 700 LINE",
"55 318 LINE SMOOTH",
"18 107 OFFCURVE",
"114 -14 OFFCURVE",
"306 -14 CURVE SMOOTH"
);
}
);
width = 707;
}
);
rightKerningGroup = U;
unicode = 0055;
},
{
glyphname = V;
lastChange = "2021-12-05 10:36:32 +0000";
layers = (
{
layerId = "3A3E882A-FD1E-4FEC-B6F3-0E8C1BCDAD39";
paths = (
{
closed = 1;
nodes = (
"253 0 LINE",
"363 0 LINE",
"673 700 LINE",
"572 700 LINE",
"319 112 LINE",
"190 700 LINE",
"89 700 LINE"
);
}
);
width = 604;
},
{
layerId = "541F4A62-0ECD-4B4B-B1D5-38FFB5FB401F";
paths = (
{
closed = 1;
nodes = (
"239 0 LINE",
"397 0 LINE",
"746 700 LINE",
"584 700 LINE",
"347 206 LINE",
"250 700 LINE",
"88 700 LINE"
);
}
);
width = 678;
}
);
unicode = 0056;
},
{
glyphname = W;
lastChange = "2021-12-05 15:54:10 +0000";
layers = (
{
layerId = "3A3E882A-FD1E-4FEC-B6F3-0E8C1BCDAD39";
paths = (
{
closed = 1;
nodes = (
"272 0 LINE",
"486 584 LINE",
"536 0 LINE",
"650 0 LINE",
"915 700 LINE",
"812 700 LINE",
"600 116 LINE",
"557 700 LINE",
"447 700 LINE",
"240 116 LINE",
"192 700 LINE",
"89 700 LINE",
"159 0 LINE"
);
}
);
width = 846;
},
{
layerId = "541F4A62-0ECD-4B4B-B1D5-38FFB5FB401F";
paths = (
{
closed = 1;
nodes = (
"331 0 LINE",
"506 490 LINE",
"543 0 LINE",
"709 0 LINE",
"984 700 LINE",
"820 700 LINE",
"648 215 LINE",
"604 700 LINE",
"469 700 LINE",
"288 215 LINE",
"252 700 LINE",
"88 700 LINE",
"167 0 LINE"
);
}
);
width = 916;
}
);
leftKerningGroup = W;
unicode = 0057;
},
{
glyphname = X;
lastChange = "2021-12-05 15:54:10 +0000";
layers = (
{
layerId = "3A3E882A-FD1E-4FEC-B6F3-0E8C1BCDAD39";
paths = (
{
closed = 1;
nodes = (
"90 0 LINE",
"315 267 LINE",
"467 0 LINE",
"580 0 LINE",
"381 360 LINE",
"664 700 LINE",
"551 700 LINE",
"341 453 LINE",
"201 700 LINE",
"89 700 LINE",
"276 360 LINE",
"-23 0 LINE"
);
}
);
width = 634;
},
{
layerId = "541F4A62-0ECD-4B4B-B1D5-38FFB5FB401F";
paths = (
{
closed = 1;
nodes = (
"153 0 LINE",
"353 221 LINE",
"492 0 LINE",
"670 0 LINE",
"459 360 LINE",
"755 700 LINE",
"577 700 LINE",
"390 479 LINE",
"265 700 LINE",
"88 700 LINE",
"288 360 LINE",
"-25 0 LINE"
);
}
);
width = 725;
}
);
leftKerningGroup = X;
unicode = 0058;
},
{
glyphname = Y;
lastChange = "2021-12-05 15:54:10 +0000";
layers = (
{
layerId = "3A3E882A-FD1E-4FEC-B6F3-0E8C1BCDAD39";
paths = (
{
closed = 1;
nodes = (
"259 287 LINE",
"209 0 LINE",
"303 0 LINE",
"353 287 LINE",
"667 700 LINE",
"564 700 LINE",
"320 371 LINE",
"192 700 LINE",
"89 700 LINE"
);
}
);
width = 598;
},
{
layerId = "541F4A62-0ECD-4B4B-B1D5-38FFB5FB401F";
paths = (
{
closed = 1;
nodes = (
"259 274 LINE",
"210 0 LINE",
"364 0 LINE",
"413 274 LINE",
"734 700 LINE",
"567 700 LINE",
"361 417 LINE",
"255 700 LINE",
"88 700 LINE"
);
}
);
width = 666;
}
);
leftKerningGroup = Y;
rightKerningGroup = Y;
unicode = 0059;
},
{
glyphname = Z;
lastChange = "2021-12-05 15:54:10 +0000";
layers = (
{
layerId = "3A3E882A-FD1E-4FEC-B6F3-0E8C1BCDAD39";
paths = (
{
closed = 1;
nodes = (
"533 0 LINE",
"544 81 LINE",
"133 81 LINE",
"605 619 LINE",
"616 700 LINE",
"123 700 LINE",
"112 619 LINE",
"495 619 LINE",
"21 81 LINE",
"10 0 LINE"
);
}
);
width = 621;
},
{
layerId = "541F4A62-0ECD-4B4B-B1D5-38FFB5FB401F";
paths = (
{
closed = 1;
nodes = (
"570 0 LINE",
"591 120 LINE",
"198 120 LINE",
"657 580 LINE",
"679 700 LINE",
"126 700 LINE",
"104 580 LINE",
"469 580 LINE",
"8 120 LINE",
"-13 0 LINE"
);
}
);
width = 647;
}
);
leftKerningGroup = Z;
rightKerningGroup = Z;
unicode = 005A;
},
{
glyphname = A.ss01;
lastChange = "2021-12-05 15:54:10 +0000";
layers = (
{
layerId = "3A3E882A-FD1E-4FEC-B6F3-0E8C1BCDAD39";
paths = (
{
closed = 1;
nodes = (
"66 0 LINE",
"148 177 LINE",
"452 177 LINE",
"472 0 LINE",
"572 0 LINE",
"444 700 LINE",
"339 700 LINE",
"-34 0 LINE"
);
},
{
closed = 1;
nodes = (
"375 605 LINE",
"437 258 LINE",
"191 258 LINE"
);
},
{
closed = 1;
nodes = (
"377 620 LINE",
"391 700 LINE",
"238 700 LINE",
"224 620 LINE"
);
}
);
width = 626;
},
{
layerId = "541F4A62-0ECD-4B4B-B1D5-38FFB5FB401F";
paths = (
{
closed = 1;
nodes = (
"113 0 LINE",
"205 177 LINE",
"459 177 LINE",
"486 0 LINE",
"642 0 LINE",
"502 700 LINE",
"350 700 LINE",
"-40 0 LINE"
);
},
{
closed = 1;
nodes = (
"395 534 LINE",
"439 298 LINE",
"269 298 LINE"
);
},
{
closed = 1;
nodes = (
"433 580 LINE",
"455 700 LINE",
"242 700 LINE",
"220 580 LINE"
);
}
);
width = 692;
}
);
leftKerningGroup = A;
rightKerningGroup = A;
},
{
glyphname = E.ss01;
lastChange = "2021-12-05 15:54:10 +0000";
layers = (
{
layerId = "3A3E882A-FD1E-4FEC-B6F3-0E8C1BCDAD39";
paths = (
{
closed = 1;
nodes = (
"489 0 LINE",
"504 85 LINE",
"145 85 LINE",
"185 318 LINE",
"452 318 LINE",
"467 403 LINE",
"200 403 LINE",
"237 615 LINE",
"596 615 LINE",
"611 700 LINE",
"158 700 LINE",
"36 0 LINE"
);
},
{
closed = 1;
nodes = (
"79 615 LINE",
"143 615 LINE",
"158 700 LINE",
"94 700 LINE"
);
}
);
width = 571;
},
{
layerId = "541F4A62-0ECD-4B4B-B1D5-38FFB5FB401F";
paths = (
{
closed = 1;
nodes = (
"542 0 LINE",
"565 125 LINE",
"206 125 LINE",
"236 298 LINE",
"503 298 LINE",
"525 423 LINE",
"258 423 LINE",
"284 575 LINE",
"643 575 LINE",
"666 700 LINE",
"153 700 LINE",
"29 0 LINE"
);
},
{
closed = 1;
nodes = (
"66 575 LINE",
"190 575 LINE",
"213 700 LINE",
"89 700 LINE"
);
}
);
width = 610;
}
);
leftKerningGroup = E.ss01;
rightKerningGroup = E;
},
{
glyphname = F.ss01;
lastChange = "2021-12-05 15:54:10 +0000";
layers = (
{
layerId = "3A3E882A-FD1E-4FEC-B6F3-0E8C1BCDAD39";
paths = (
{
closed = 1;
nodes = (
"125 0 LINE",
"180 318 LINE",
"534 318 LINE",
"549 403 LINE",
"195 403 LINE",
"232 615 LINE",
"586 615 LINE",
"601 700 LINE",
"153 700 LINE",
"31 0 LINE"
);
},
{
closed = 1;
nodes = (
"74 615 LINE",
"138 615 LINE",
"153 700 LINE",
"89 700 LINE"
);
}
);
width = 560;
},
{
layerId = "541F4A62-0ECD-4B4B-B1D5-38FFB5FB401F";
paths = (
{
closed = 1;
nodes = (
"183 0 LINE",
"238 308 LINE",
"592 308 LINE",
"613 433 LINE",
"259 433 LINE",
"284 575 LINE",
"638 575 LINE",
"661 700 LINE",
"153 700 LINE",
"29 0 LINE"
);
},
{
closed = 1;
nodes = (
"66 575 LINE",
"130 575 LINE",
"153 700 LINE",
"89 700 LINE"
);
}
);
width = 605;
}
);
leftKerningGroup = E.ss01;
rightKerningGroup = F;
},
{
glyphname = J.ss01;
lastChange = "2021-12-05 15:54:10 +0000";
layers = (
{
layerId = "3A3E882A-FD1E-4FEC-B6F3-0E8C1BCDAD39";
paths = (
{
closed = 1;
nodes = (
"4 187 LINE",
"-13 54 OFFCURVE",
"64 -15 OFFCURVE",
"189 -15 CURVE SMOOTH",
"320 -15 OFFCURVE",
"412 61 OFFCURVE",
"438 206 CURVE SMOOTH",
"524 700 LINE",
"430 700 LINE",
"344 207 LINE SMOOTH",
"330 127 OFFCURVE",
"281 62 OFFCURVE",
"202 62 CURVE SMOOTH",
"136 62 OFFCURVE",
"77 109 OFFCURVE",
"96 207 CURVE"
);
},
{
closed = 1;
nodes = (
"177 615 LINE",
"415 615 LINE",
"430 700 LINE",
"192 700 LINE"
);
}
);
width = 522;
},
{
layerId = "541F4A62-0ECD-4B4B-B1D5-38FFB5FB401F";
paths = (
{
closed = 1;
nodes = (
"-1 221 LINE",
"-26 75 OFFCURVE",
"56 -15 OFFCURVE",
"208 -15 CURVE SMOOTH",
"359 -15 OFFCURVE",
"464 73 OFFCURVE",
"490 226 CURVE SMOOTH",
"574 700 LINE",
"420 700 LINE",
"336 227 LINE SMOOTH",
"322 149 OFFCURVE",
"283 105 OFFCURVE",
"229 105 CURVE SMOOTH",
"161 105 OFFCURVE",
"117 164 OFFCURVE",
"135 255 CURVE"
);
},
{
closed = 1;
nodes = (
"159 575 LINE",
"457 575 LINE",
"480 700 LINE",
"182 700 LINE"
);
}
);
width = 540;
}
);
leftKerningGroup = J;
rightKerningGroup = J;
},
{
glyphname = U.ss02;
lastChange = "2021-12-05 10:36:32 +0000";
layers = (
{
layerId = "3A3E882A-FD1E-4FEC-B6F3-0E8C1BCDAD39";
paths = (
{
closed = 1;
nodes = (
"127 0 LINE",
"249 700 LINE",
"155 700 LINE",
"33 0 LINE"
);
},
{
closed = 1;
nodes = (
"571 0 LINE",
"693 700 LINE",
"599 700 LINE",
"477 0 LINE"
);
},
{
closed = 1;
nodes = (
"127 0 LINE",
"477 0 LINE",
"490 80 LINE",
"140 80 LINE"
);
}
);
width = 691;
},
{
layerId = "541F4A62-0ECD-4B4B-B1D5-38FFB5FB401F";
paths = (
{
closed = 1;
nodes = (
"187 0 LINE",
"311 700 LINE",
"157 700 LINE",
"33 0 LINE"
);
},
{
closed = 1;
nodes = (
"631 0 LINE",
"755 700 LINE",
"601 700 LINE",
"477 0 LINE"
);
},
{
closed = 1;
nodes = (
"127 0 LINE",
"537 0 LINE",
"561 130 LINE",
"151 130 LINE"
);
}
);
width = 755;
}
);
},
{
glyphname = Y.ss02;
lastChange = "2021-12-05 15:54:10 +0000";
layers = (
{
layerId = "3A3E882A-FD1E-4FEC-B6F3-0E8C1BCDAD39";
paths = (
{
closed = 1;
nodes = (
"259 287 LINE",
"209 0 LINE",
"303 0 LINE",
"353 287 LINE",
"667 700 LINE",
"564 700 LINE",
"320 371 LINE",
"192 700 LINE",
"89 700 LINE"
);
},
{
closed = 1;
nodes = (
"117 1 LINE",
"270 1 LINE",
"283 81 LINE",
"130 81 LINE"
);
}
);
width = 598;
},
{
layerId = "541F4A62-0ECD-4B4B-B1D5-38FFB5FB401F";
paths = (
{
closed = 1;
nodes = (
"270 284 LINE",
"220 0 LINE",
"374 0 LINE",
"424 284 LINE",
"754 700 LINE",
"587 700 LINE",
"369 407 LINE",
"255 700 LINE",
"88 700 LINE"
);
},
{
closed = 1;
nodes = (
"128 1 LINE",
"341 1 LINE",
"362 121 LINE",
"149 121 LINE"
);
}
);
width = 686;
}
);
leftKerningGroup = Y;
rightKerningGroup = Y;
},
{
glyphname = G.ss03;
lastChange = "2021-12-18 16:15:22 +0000";
layers = (
{
layerId = "3A3E882A-FD1E-4FEC-B6F3-0E8C1BCDAD39";
paths = (
{
closed = 1;
nodes = (
"425 -15 OFFCURVE",
"495 15 OFFCURVE",
"566 85 CURVE",
"555 0 LINE",
"620 0 LINE",
"685 372 LINE",
"380 372 LINE",
"365 287 LINE",
"590 287 LINE",
"581 239 OFFCURVE",
"574 214 OFFCURVE",
"558 187 CURVE SMOOTH",
"507 109 OFFCURVE",
"420 65 OFFCURVE",
"338 65 CURVE SMOOTH",
"213 65 OFFCURVE",
"133 185 OFFCURVE",
"162 350 CURVE SMOOTH",
"190 514 OFFCURVE",
"313 635 OFFCURVE",
"438 635 CURVE SMOOTH",
"520 635 OFFCURVE",
"584 586 OFFCURVE",
"605 513 CURVE",
"695 552 LINE",
"662 649 OFFCURVE",
"572 715 OFFCURVE",
"452 715 CURVE SMOOTH",
"272 715 OFFCURVE",
"102 544 OFFCURVE",
"68 350 CURVE SMOOTH",
"34 155 OFFCURVE",
"144 -15 OFFCURVE",
"324 -15 CURVE SMOOTH"
);
}
);
width = 736;
},
{
layerId = "541F4A62-0ECD-4B4B-B1D5-38FFB5FB401F";
paths = (
{
closed = 1;
nodes = (
"439 -15 OFFCURVE",
"526 25 OFFCURVE",
"589 96 CURVE",
"589 0 LINE",
"663 0 LINE",
"732 392 LINE",
"367 392 LINE",
"346 267 LINE",
"571 267 LINE",
"563 231 OFFCURVE",
"559 231 OFFCURVE",
"548 212 CURVE SMOOTH",
"505 142 OFFCURVE",
"433 115 OFFCURVE",
"360 115 CURVE SMOOTH",
"251 115 OFFCURVE",
"183 221 OFFCURVE",
"209 370 CURVE SMOOTH",
"232 499 OFFCURVE",
"335 585 OFFCURVE",
"444 585 CURVE SMOOTH",
"520 585 OFFCURVE",
"583 564 OFFCURVE",
"596 481 CURVE",
"743 544 LINE",
"713 659 OFFCURVE",
"600 715 OFFCURVE",
"466 715 CURVE SMOOTH",
"274 715 OFFCURVE",
"92 581 OFFCURVE",
"55 370 CURVE SMOOTH",
"19 158 OFFCURVE",
"112 -15 OFFCURVE",
"338 -15 CURVE SMOOTH"
);
}
);
width = 767;
}
);
leftKerningGroup = C;
rightKerningGroup = G;
},
{
glyphname = K.ss03;
lastChange = "2021-12-05 15:54:10 +0000";
layers = (
{
layerId = "3A3E882A-FD1E-4FEC-B6F3-0E8C1BCDAD39";
paths = (
{
closed = 1;
nodes = (
"667 700 LINE",
"550 700 LINE",
"188 351 LINE",
"249 700 LINE",
"155 700 LINE",
"33 0 LINE",
"127 0 LINE",
"167 229 LINE"
);
},
{
closed = 1;
nodes = (
"420 0 LINE",
"568 0 LINE",
"581 83 LINE",
"494 83 LINE",
"356 439 LINE",
"276 366 LINE"
);
}
);
width = 632;
},
{
layerId = "541F4A62-0ECD-4B4B-B1D5-38FFB5FB401F";
paths = (
{
closed = 1;
nodes = (
"717 700 LINE",
"541 700 LINE",
"227 415 LINE",
"277 700 LINE",
"123 700 LINE",
"-1 0 LINE",
"153 0 LINE",
"193 224 LINE"
);
},
{
closed = 1;
nodes = (
"414 0 LINE",
"594 0 LINE",
"617 124 LINE",
"521 124 LINE",
"368 484 LINE",
"255 373 LINE"
);
}
);
width = 670;
}
);
leftKerningGroup = K;
rightKerningGroup = K;
},
{
glyphname = Q.ss03;
lastChange = "2021-12-05 15:54:10 +0000";
layers = (
{
layerId = "3A3E882A-FD1E-4FEC-B6F3-0E8C1BCDAD39";
paths = (
{
closed = 1;
nodes = (
"527 -15 OFFCURVE",
"690 149 OFFCURVE",
"725 350 CURVE SMOOTH",
"759 546 OFFCURVE",
"658 715 OFFCURVE",
"460 715 CURVE SMOOTH",
"267 715 OFFCURVE",
"103 549 OFFCURVE",
"68 350 CURVE SMOOTH",
"33 154 OFFCURVE",
"135 -15 OFFCURVE",
"332 -15 CURVE SMOOTH"
);
},
{
closed = 1;
nodes = (
"209 65 OFFCURVE",
"136 197 OFFCURVE",
"164 350 CURVE SMOOTH",
"190 502 OFFCURVE",
"308 635 OFFCURVE",
"446 635 CURVE SMOOTH",
"584 635 OFFCURVE",
"656 504 OFFCURVE",
"629 350 CURVE SMOOTH",
"601 196 OFFCURVE",
"485 65 OFFCURVE",
"346 65 CURVE SMOOTH"
);
},
{
closed = 1;
nodes = (
"199 70 LINE",
"244 163 OFFCURVE",
"322 230 OFFCURVE",
"435 230 CURVE SMOOTH",
"562 230 OFFCURVE",
"647 129 OFFCURVE",
"625 1 CURVE",
"715 1 LINE",
"745 172 OFFCURVE",
"622 320 OFFCURVE",
"451 320 CURVE SMOOTH",
"309 320 OFFCURVE",
"193 232 OFFCURVE",
"128 116 CURVE"
);
}
);
width = 769;
},
{
layerId = "541F4A62-0ECD-4B4B-B1D5-38FFB5FB401F";
paths = (
{
closed = 1;
nodes = (
"552 -15 OFFCURVE",
"731 130 OFFCURVE",
"769 350 CURVE SMOOTH",
"807 569 OFFCURVE",
"679 715 OFFCURVE",
"474 715 CURVE SMOOTH",
"271 715 OFFCURVE",
"90 568 OFFCURVE",
"52 350 CURVE SMOOTH",
"14 131 OFFCURVE",
"142 -15 OFFCURVE",
"346 -15 CURVE SMOOTH"
);
},
{
closed = 1;
nodes = (
"255 115 OFFCURVE",
"182 201 OFFCURVE",
"208 350 CURVE SMOOTH",
"234 499 OFFCURVE",
"339 585 OFFCURVE",
"452 585 CURVE SMOOTH",
"566 585 OFFCURVE",
"640 500 OFFCURVE",
"613 350 CURVE SMOOTH",
"586 200 OFFCURVE",
"482 115 OFFCURVE",
"368 115 CURVE SMOOTH"
);
},
{
closed = 1;
nodes = (
"223 73 LINE",
"268 182 OFFCURVE",
"368 250 OFFCURVE",
"471 250 CURVE SMOOTH",
"607 250 OFFCURVE",
"667 126 OFFCURVE",
"632 1 CURVE",
"752 1 LINE",
"799 194 OFFCURVE",
"689 370 OFFCURVE",
"492 370 CURVE SMOOTH",
"350 370 OFFCURVE",
"201 283 OFFCURVE",
"125 136 CURVE"
);
}
);
width = 803;
}
);
leftKerningGroup = C;
rightKerningGroup = Q;
},
{
glyphname = R.ss03;
lastChange = "2021-12-15 06:53:08 +0000";
layers = (
{
layerId = "3A3E882A-FD1E-4FEC-B6F3-0E8C1BCDAD39";
paths = (
{
closed = 1;
nodes = (
"405 0 LINE",
"543 0 LINE",
"557 84 LINE",
"480 84 LINE",
"361 360 LINE",
"258 360 LINE"
);
},
{
closed = 1;
nodes = (
"512 327 OFFCURVE",
"590 396 OFFCURVE",
"609 501 CURVE SMOOTH",
"636 656 OFFCURVE",
"546 700 OFFCURVE",
"364 700 CURVE SMOOTH",
"155 700 LINE",
"33 0 LINE",
"127 0 LINE",
"179 295 LINE",
"278 295 LINE",
"327 295 OFFCURVE",
"358 298 OFFCURVE",
"389 304 CURVE"
);
},
{
closed = 1;
nodes = (
"235 621 LINE",
"357 621 LINE SMOOTH",
"470 621 OFFCURVE",
"531 601 OFFCURVE",
"513 501 CURVE SMOOTH",
"496 402 OFFCURVE",
"430 376 OFFCURVE",
"316 376 CURVE SMOOTH",
"193 376 LINE"
);
}
);
width = 637;
},
{
layerId = "541F4A62-0ECD-4B4B-B1D5-38FFB5FB401F";
paths = (
{
closed = 1;
nodes = (
"384 0 LINE",
"559 0 LINE",
"582 124 LINE",
"495 124 LINE",
"382 380 LINE",
"219 380 LINE"
);
},
{
closed = 1;
nodes = (
"528 310 OFFCURVE",
"614 376 OFFCURVE",
"634 489 CURVE SMOOTH",
"658 623 OFFCURVE",
"578 700 OFFCURVE",
"362 700 CURVE SMOOTH",
"123 700 LINE",
"-1 0 LINE",
"153 0 LINE",
"203 275 LINE",
"272 275 LINE SMOOTH",
"319 275 OFFCURVE",
"353 278 OFFCURVE",
"389 284 CURVE SMOOTH"
);
},
{
closed = 1;
nodes = (
"255 581 LINE",
"347 581 LINE SMOOTH",
"462 581 OFFCURVE",
"492 567 OFFCURVE",
"478 489 CURVE SMOOTH",
"464 409 OFFCURVE",
"427 396 OFFCURVE",
"316 396 CURVE SMOOTH",
"223 396 LINE"
);
}
);
width = 649;
}
);
leftKerningGroup = R;
rightKerningGroup = R;
},
{
glyphname = U.ss03;
lastChange = "2021-12-05 15:54:10 +0000";
layers = (
{
layerId = "3A3E882A-FD1E-4FEC-B6F3-0E8C1BCDAD39";
paths = (
{
closed = 1;
nodes = (
"127 0 LINE",
"249 700 LINE",
"155 700 LINE",
"33 0 LINE"
);
},
{
closed = 1;
nodes = (
"571 0 LINE",
"693 700 LINE",
"599 700 LINE",
"477 0 LINE"
);
},
{
closed = 1;
nodes = (
"127 0 LINE",
"477 0 LINE",
"490 80 LINE",
"140 80 LINE"
);
}
);
width = 691;
},
{
layerId = "541F4A62-0ECD-4B4B-B1D5-38FFB5FB401F";
paths = (
{
closed = 1;
nodes = (
"187 0 LINE",
"311 700 LINE",
"157 700 LINE",
"33 0 LINE"
);
},
{
closed = 1;
nodes = (
"631 0 LINE",
"755 700 LINE",
"601 700 LINE",
"477 0 LINE"
);
},
{
closed = 1;
nodes = (
"127 0 LINE",
"537 0 LINE",
"561 130 LINE",
"151 130 LINE"
);
}
);
width = 755;
}
);
leftKerningGroup = U.ss02;
},
{
glyphname = a;
lastChange = "2021-12-09 15:57:26 +0000";
layers = (
{
layerId = "3A3E882A-FD1E-4FEC-B6F3-0E8C1BCDAD39";
paths = (
{
closed = 1;
nodes = (
"151 368 LINE",
"168 404 OFFCURVE",
"220 445 OFFCURVE",
"283 445 CURVE SMOOTH",
"366 445 OFFCURVE",
"405 425 OFFCURVE",
"380 303 CURVE",
"421 350 LINE",
"374 328 OFFCURVE",
"309 311 OFFCURVE",
"252 297 CURVE SMOOTH",
"122 265 OFFCURVE",
"26 236 OFFCURVE",
"2 122 CURVE SMOOTH",
"-16 36 OFFCURVE",
"52 -15 OFFCURVE",
"142 -15 CURVE SMOOTH",
"230 -15 OFFCURVE",
"297 33 OFFCURVE",
"342 82 CURVE",
"350 0 LINE",
"413 0 LINE",
"424 109 LINE SMOOTH",
"427 133 OFFCURVE",
"435 157 OFFCURVE",
"441 188 CURVE SMOOTH",
"465 304 LINE SMOOTH",
"500 465 OFFCURVE",
"425 515 OFFCURVE",
"298 515 CURVE SMOOTH",
"219 515 OFFCURVE",
"129 470 OFFCURVE",
"86 408 CURVE"
);
},
{
closed = 1;
nodes = (
"123 58 OFFCURVE",
"85 79 OFFCURVE",
"95 123 CURVE SMOOTH",
"108 187 OFFCURVE",
"190 214 OFFCURVE",
"274 235 CURVE SMOOTH",
"305 243 OFFCURVE",
"347 255 OFFCURVE",
"373 262 CURVE",
"361 211 LINE SMOOTH",
"345 138 OFFCURVE",
"299 93 OFFCURVE",
"250 76 CURVE SMOOTH",
"226 67 OFFCURVE",
"200 58 OFFCURVE",
"174 58 CURVE SMOOTH"
);
}
);
width = 525;
},
{
layerId = "541F4A62-0ECD-4B4B-B1D5-38FFB5FB401F";
paths = (
{
closed = 1;
nodes = (
"165 334 LINE",
"176 383 OFFCURVE",
"237 415 OFFCURVE",
"295 415 CURVE SMOOTH",
"372 415 OFFCURVE",
"385 382 OFFCURVE",
"346 206 CURVE",
"502 363 LINE",
"372 315 OFFCURVE",
"340 325 OFFCURVE",
"264 306 CURVE SMOOTH",
"130 273 OFFCURVE",
"15 248 OFFCURVE",
"-13 122 CURVE SMOOTH",
"-31 31 OFFCURVE",
"46 -15 OFFCURVE",
"159 -15 CURVE SMOOTH",
"222 -15 OFFCURVE",
"286 17 OFFCURVE",
"339 57 CURVE",
"340 0 LINE",
"462 0 LINE",
"472 111 LINE SMOOTH",
"474 132 OFFCURVE",
"482 157 OFFCURVE",
"489 188 CURVE SMOOTH",
"513 304 LINE SMOOTH",
"543 449 OFFCURVE",
"479 525 OFFCURVE",
"317 525 CURVE SMOOTH",
"220 525 OFFCURVE",
"104 466 OFFCURVE",
"65 391 CURVE"
);
},
{
closed = 1;
nodes = (
"153 88 OFFCURVE",
"139 109 OFFCURVE",
"144 133 CURVE SMOOTH",
"151 171 OFFCURVE",
"191 188 OFFCURVE",
"295 216 CURVE SMOOTH",
"317 222 OFFCURVE",
"335 227 OFFCURVE",
"352 231 CURVE",
"349 211 LINE SMOOTH",
"338 160 OFFCURVE",
"301 123 OFFCURVE",
"263 105 CURVE SMOOTH",
"238 94 OFFCURVE",
"215 88 OFFCURVE",
"196 88 CURVE SMOOTH"
);
}
);
width = 558;
},
{
associatedMasterId = "541F4A62-0ECD-4B4B-B1D5-38FFB5FB401F";
layerId = "D43BB59E-A6F2-4149-A4E8-B9E7BBD756C3";
name = "Nov 21 21, 23:49";
paths = (
{
closed = 1;
nodes = (
"146 360 LINE",
"159 410 OFFCURVE",
"212 430 OFFCURVE",
"253 430 CURVE SMOOTH",
"333 430 OFFCURVE",
"375 417 OFFCURVE",
"375 308 CURVE",
"383 308 LINE",
"390 313 LINE",
"400 313 LINE",
"434 354 LINE",
"432 357 LINE",
"399 359 LINE",
"366 342 OFFCURVE",
"331 335 OFFCURVE",
"294 327 CURVE SMOOTH",
"278 324 OFFCURVE",
"261 321 OFFCURVE",
"247 317 CURVE SMOOTH",
"117 284 OFFCURVE",
"24 240 OFFCURVE",
"24 127 CURVE SMOOTH",
"24 46 OFFCURVE",
"99 -15 OFFCURVE",
"208 -15 CURVE SMOOTH",
"283 -15 OFFCURVE",
"340 15 OFFCURVE",
"376 48 CURVE",
"389 0 LINE",
"500 0 LINE",
"490 114 LINE SMOOTH",
"489 121 OFFCURVE",
"490 129 OFFCURVE",
"490 139 CURVE SMOOTH",
"490 145 OFFCURVE",
"490 153 OFFCURVE",
"490 162 CURVE SMOOTH",
"490 172 OFFCURVE",
"490 183 OFFCURVE",
"490 193 CURVE SMOOTH",
"490 309 LINE SMOOTH",
"490 455 OFFCURVE",
"413 525 OFFCURVE",
"252 525 CURVE SMOOTH",
"162 525 OFFCURVE",
"68 472 OFFCURVE",
"40 415 CURVE"
);
},
{
closed = 1;
nodes = (
"173 88 OFFCURVE",
"142 105 OFFCURVE",
"142 139 CURVE SMOOTH",
"142 203 OFFCURVE",
"208 208 OFFCURVE",
"287 229 CURVE SMOOTH",
"317 237 OFFCURVE",
"357 250 OFFCURVE",
"380 257 CURVE",
"380 216 LINE SMOOTH",
"380 160 OFFCURVE",
"350 130 OFFCURVE",
"298 106 CURVE SMOOTH",
"275 95 OFFCURVE",
"250 88 OFFCURVE",
"224 88 CURVE SMOOTH"
);
}
);
width = 600;
}
);
leftKerningGroup = a;
rightKerningGroup = a;
unicode = 0061;
},
{
glyphname = b;
lastChange = "2021-12-06 06:04:10 +0000";
layers = (
{
layerId = "3A3E882A-FD1E-4FEC-B6F3-0E8C1BCDAD39";
paths = (
{
closed = 1;
nodes = (
"80 0 LINE",
"116 82 LINE",
"150 23 OFFCURVE",
"208 -15 OFFCURVE",
"271 -15 CURVE SMOOTH",
"414 -15 OFFCURVE",
"540 104 OFFCURVE",
"566 250 CURVE SMOOTH",
"600 441 OFFCURVE",
"489 515 OFFCURVE",
"364 515 CURVE SMOOTH",
"305 515 OFFCURVE",
"241 487 OFFCURVE",
"188 436 CURVE",
"234 700 LINE",
"149 700 LINE",
"27 0 LINE"
);
},
{
closed = 1;
nodes = (
"152 251 LINE",
"172 362 OFFCURVE",
"255 440 OFFCURVE",
"353 440 CURVE SMOOTH",
"459 440 OFFCURVE",
"501 362 OFFCURVE",
"481 251 CURVE SMOOTH",
"463 144 OFFCURVE",
"391 60 OFFCURVE",
"286 60 CURVE SMOOTH",
"187 60 OFFCURVE",
"134 144 OFFCURVE",
"152 251 CURVE"
);
}
);
width = 604;
},
{
background = {
paths = (
{
closed = 1;
nodes = (
"189 -10 LINE",
"200 32 LINE",
"245 -3 OFFCURVE",
"303 -25 OFFCURVE",
"354 -25 CURVE SMOOTH",
"521 -25 OFFCURVE",
"637 89 OFFCURVE",
"637 255 CURVE SMOOTH",
"637 428 OFFCURVE",
"528 535 OFFCURVE",
"354 535 CURVE SMOOTH",
"310 535 OFFCURVE",
"264 522 OFFCURVE",
"226 500 CURVE",
"226 710 LINE",
"71 710 LINE",
"71 -10 LINE"
);
},
{
closed = 1;
nodes = (
"208 261 LINE",
"208 261 LINE",
"218 261 LINE",
"218 348 OFFCURVE",
"276 410 OFFCURVE",
"356 410 CURVE SMOOTH",
"443 410 OFFCURVE",
"492 355 OFFCURVE",
"492 256 CURVE SMOOTH",
"492 160 OFFCURVE",
"440 100 OFFCURVE",
"356 100 CURVE SMOOTH",
"274 100 OFFCURVE",
"218 165 OFFCURVE",
"218 261 CURVE"
);
}
);
};
layerId = "541F4A62-0ECD-4B4B-B1D5-38FFB5FB401F";
paths = (
{
closed = 1;
nodes = (
"113 0 LINE",
"139 68 LINE",
"166 26 OFFCURVE",
"233 -15 OFFCURVE",
"304 -15 CURVE SMOOTH",
"461 -15 OFFCURVE",
"579 90 OFFCURVE",
"607 250 CURVE SMOOTH",
"638 425 OFFCURVE",
"549 525 OFFCURVE",
"389 525 CURVE SMOOTH",
"321 525 OFFCURVE",
"260 495 OFFCURVE",
"231 460 CURVE",
"274 700 LINE",
"129 700 LINE",
"5 0 LINE"
);
},
{
closed = 1;
nodes = (
"192 256 LINE SMOOTH",
"209 350 OFFCURVE",
"282 405 OFFCURVE",
"359 405 CURVE SMOOTH",
"436 405 OFFCURVE",
"486 356 OFFCURVE",
"468 251 CURVE SMOOTH",
"449 148 OFFCURVE",
"383 105 OFFCURVE",
"314 105 CURVE SMOOTH",
"237 105 OFFCURVE",
"178 156 OFFCURVE",
"192 256 CURVE"
);
}
);
width = 632;
}
);
leftKerningGroup = h;
unicode = 0062;
},
{
glyphname = c;
lastChange = "2021-12-11 13:50:14 +0000";
layers = (
{
layerId = "3A3E882A-FD1E-4FEC-B6F3-0E8C1BCDAD39";
paths = (
{
closed = 1;
nodes = (
"336 87 OFFCURVE",
"301 62 OFFCURVE",
"243 62 CURVE SMOOTH",
"139 62 OFFCURVE",
"97 145 OFFCURVE",
"114 251 CURVE",
"29 251 LINE",
"4 106 OFFCURVE",
"78 -13 OFFCURVE",
"229 -13 CURVE",
"313 -13 OFFCURVE",
"385 32 OFFCURVE",
"441 100 CURVE",
"371 128 LINE"
);
},
{
closed = 1;
nodes = (
"495 402 LINE",
"461 470 OFFCURVE",
"407 515 OFFCURVE",
"323 515 CURVE",
"172 515 OFFCURVE",
"55 396 OFFCURVE",
"29 251 CURVE",
"114 251 LINE",
"133 357 OFFCURVE",
"205 440 OFFCURVE",
"309 440 CURVE SMOOTH",
"367 440 OFFCURVE",
"393 415 OFFCURVE",
"415 374 CURVE"
);
}
);
width = 501;
},
{
layerId = "541F4A62-0ECD-4B4B-B1D5-38FFB5FB401F";
paths = (
{
closed = 1;
nodes = (
"352 117 OFFCURVE",
"325 106 OFFCURVE",
"279 106 CURVE SMOOTH",
"195 106 OFFCURVE",
"150 157 OFFCURVE",
"173 271 CURVE",
"27 271 LINE",
"-6 96 OFFCURVE",
"97 -14 OFFCURVE",
"263 -14 CURVE SMOOTH",
"358 -14 OFFCURVE",
"446 37 OFFCURVE",
"512 128 CURVE",
"397 175 LINE"
);
},
{
closed = 1;
nodes = (
"548 388 LINE",
"508 474 OFFCURVE",
"434 525 OFFCURVE",
"339 525 CURVE SMOOTH",
"173 525 OFFCURVE",
"37 406 OFFCURVE",
"21 231 CURVE",
"167 231 LINE",
"176 345 OFFCURVE",
"237 405 OFFCURVE",
"321 405 CURVE SMOOTH",
"367 405 OFFCURVE",
"392 394 OFFCURVE",
"420 336 CURVE"
);
}
);
width = 552;
}
);
leftKerningGroup = c;
rightKerningGroup = c;
unicode = 0063;
},
{
glyphname = d;
lastChange = "2021-12-05 15:54:10 +0000";
layers = (
{
layerId = "3A3E882A-FD1E-4FEC-B6F3-0E8C1BCDAD39";
paths = (
{
closed = 1;
nodes = (
"12 104 OFFCURVE",
"98 -15 OFFCURVE",
"240 -15 CURVE SMOOTH",
"303 -15 OFFCURVE",
"374 23 OFFCURVE",
"428 82 CURVE",
"438 0 LINE",
"503 0 LINE",
"509 109 LINE",
"613 700 LINE",
"528 700 LINE",
"482 436 LINE",
"447 487 OFFCURVE",
"393 515 OFFCURVE",
"334 515 CURVE SMOOTH",
"209 515 OFFCURVE",
"72 441 OFFCURVE",
"38 250 CURVE SMOOTH"
);
},
{
closed = 1;
nodes = (
"143 362 OFFCURVE",
"213 440 OFFCURVE",
"320 440 CURVE SMOOTH",
"417 440 OFFCURVE",
"472 362 OFFCURVE",
"452 250 CURVE",
"452 250 LINE",
"434 144 OFFCURVE",
"351 60 OFFCURVE",
"253 60 CURVE SMOOTH",
"147 60 OFFCURVE",
"105 144 OFFCURVE",
"123 251 CURVE SMOOTH"
);
}
);
width = 598;
},
{
layerId = "541F4A62-0ECD-4B4B-B1D5-38FFB5FB401F";
paths = (
{
closed = 1;
nodes = (
"-4 94 OFFCURVE",
"98 -15 OFFCURVE",
"244 -15 CURVE SMOOTH",
"320 -15 OFFCURVE",
"378 22 OFFCURVE",
"424 61 CURVE",
"426 0 LINE",
"548 0 LINE",
"554 110 LINE",
"658 700 LINE",
"513 700 LINE",
"471 465 LINE",
"449 500 OFFCURVE",
"400 525 OFFCURVE",
"336 525 CURVE SMOOTH",
"186 525 OFFCURVE",
"55 429 OFFCURVE",
"24 254 CURVE SMOOTH"
);
},
{
closed = 1;
nodes = (
"183 361 OFFCURVE",
"245 405 OFFCURVE",
"329 405 CURVE SMOOTH",
"405 405 OFFCURVE",
"457 355 OFFCURVE",
"439 255 CURVE",
"439 255 LINE",
"420 148 OFFCURVE",
"350 105 OFFCURVE",
"274 105 CURVE SMOOTH",
"192 105 OFFCURVE",
"146 152 OFFCURVE",
"164 255 CURVE SMOOTH"
);
}
);
width = 626;
}
);
leftKerningGroup = c;
unicode = 0064;
},
{
glyphname = e;
lastChange = "2021-12-06 04:32:11 +0000";
layers = (
{
layerId = "3A3E882A-FD1E-4FEC-B6F3-0E8C1BCDAD39";
paths = (
{
closed = 1;
nodes = (
"12 106 OFFCURVE",
"97 -13 OFFCURVE",
"248 -13 CURVE SMOOTH",
"332 -13 OFFCURVE",
"410 17 OFFCURVE",
"468 85 CURVE",
"398 118 LINE",
"363 78 OFFCURVE",
"320 67 OFFCURVE",
"262 67 CURVE SMOOTH",
"165 67 OFFCURVE",
"112 134 OFFCURVE",
"121 230 CURVE",
"520 228 LINE",
"523 250 LINE SMOOTH",
"546 383 OFFCURVE",
"496 515 OFFCURVE",
"333 515 CURVE SMOOTH",
"187 515 OFFCURVE",
"67 406 OFFCURVE",
"38 251 CURVE SMOOTH"
);
},
{
closed = 1;
nodes = (
"166 382 OFFCURVE",
"229 440 OFFCURVE",
"320 440 CURVE SMOOTH",
"407 440 OFFCURVE",
"443 381 OFFCURVE",
"445 310 CURVE SMOOTH",
"446 301 LINE",
"137 300 LINE"
);
}
);
width = 552;
},
{
layerId = "541F4A62-0ECD-4B4B-B1D5-38FFB5FB401F";
paths = (
{
closed = 1;
nodes = (
"-7 91 OFFCURVE",
"89 -15 OFFCURVE",
"252 -15 CURVE SMOOTH",
"360 -15 OFFCURVE",
"457 31 OFFCURVE",
"512 111 CURVE",
"406 163 LINE",
"365 116 OFFCURVE",
"339 105 OFFCURVE",
"273 105 CURVE SMOOTH",
"213 105 OFFCURVE",
"155 147 OFFCURVE",
"155 223 CURVE",
"552 221 LINE",
"557 245 LINE SMOOTH",
"587 415 OFFCURVE",
"498 525 OFFCURVE",
"339 525 CURVE SMOOTH",
"177 525 OFFCURVE",
"53 418 OFFCURVE",
"23 251 CURVE SMOOTH"
);
},
{
closed = 1;
nodes = (
"208 383 OFFCURVE",
"264 410 OFFCURVE",
"319 410 CURVE SMOOTH",
"371 410 OFFCURVE",
"415 392 OFFCURVE",
"418 318 CURVE",
"418 318 LINE",
"177 317 LINE"
);
}
);
width = 580;
}
);
leftKerningGroup = c;
rightKerningGroup = e;
unicode = 0065;
},
{
glyphname = f;
lastChange = "2021-12-06 05:56:33 +0000";
layers = (
{
layerId = "3A3E882A-FD1E-4FEC-B6F3-0E8C1BCDAD39";
paths = (
{
closed = 1;
nodes = (
"360 638 LINE",
"378 711 LINE",
"347 712 LINE SMOOTH",
"264 715 OFFCURVE",
"210 704 OFFCURVE",
"180 655 CURVE SMOOTH",
"167 632 OFFCURVE",
"154 593 OFFCURVE",
"147 555 CURVE SMOOTH",
"137 500 LINE",
"59 500 LINE",
"47 430 LINE",
"125 430 LINE",
"50 0 LINE",
"135 0 LINE",
"210 430 LINE",
"317 430 LINE",
"329 500 LINE",
"222 500 LINE",
"232 555 LINE SMOOTH",
"247 633 OFFCURVE",
"265 638 OFFCURVE",
"342 638 CURVE SMOOTH"
);
}
);
width = 322;
},
{
layerId = "541F4A62-0ECD-4B4B-B1D5-38FFB5FB401F";
paths = (
{
closed = 1;
nodes = (
"404 611 LINE",
"429 713 LINE",
"368 715 LINE SMOOTH",
"265 718 OFFCURVE",
"202 698 OFFCURVE",
"170 646 CURVE SMOOTH",
"155 621 OFFCURVE",
"141 584 OFFCURVE",
"136 555 CURVE SMOOTH",
"128 510 LINE",
"50 510 LINE",
"33 410 LINE",
"111 410 LINE",
"38 0 LINE",
"183 0 LINE",
"256 410 LINE",
"363 410 LINE",
"380 510 LINE",
"273 510 LINE",
"281 555 LINE SMOOTH",
"289 599 OFFCURVE",
"290 611 OFFCURVE",
"357 611 CURVE SMOOTH"
);
}
);
width = 368;
}
);
leftKerningGroup = f;
rightKerningGroup = f;
unicode = 0066;
},
{
glyphname = g;
lastChange = "2021-12-11 13:50:07 +0000";
layers = (
{
background = {
paths = (
{
closed = 1;
nodes = (
"38 59 OFFCURVE",
"162 -15 OFFCURVE",
"287 -15 CURVE SMOOTH",
"346 -15 OFFCURVE",
"406 13 OFFCURVE",
"450 64 CURVE",
"449 0 LINE",
"534 0 LINE",
"534 500 LINE",
"481 500 LINE",
"458 418 LINE",
"414 477 OFFCURVE",
"350 515 OFFCURVE",
"287 515 CURVE SMOOTH",
"144 515 OFFCURVE",
"38 396 OFFCURVE",
"38 250 CURVE SMOOTH"
);
},
{
closed = 1;
nodes = (
"121 356 OFFCURVE",
"180 440 OFFCURVE",
"285 440 CURVE SMOOTH",
"384 440 OFFCURVE",
"447 364 OFFCURVE",
"453 264 CURVE",
"452 232 LINE",
"446 133 OFFCURVE",
"383 60 OFFCURVE",
"285 60 CURVE SMOOTH",
"179 60 OFFCURVE",
"121 138 OFFCURVE",
"121 249 CURVE SMOOTH"
);
},
{
closed = 0;
nodes = (
"490 -30 LINE"
);
},
{
closed = 0;
nodes = (
"79 -34 LINE SMOOTH",
"79 -148 OFFCURVE",
"171 -240 OFFCURVE",
"285 -240 CURVE SMOOTH",
"398 -240 OFFCURVE",
"490 -148 OFFCURVE",
"490 -34 CURVE SMOOTH"
);
}
);
};
layerId = "3A3E882A-FD1E-4FEC-B6F3-0E8C1BCDAD39";
paths = (
{
closed = 1;
nodes = (
"487 418 LINE",
"454 477 OFFCURVE",
"397 515 OFFCURVE",
"334 515 CURVE SMOOTH",
"191 515 OFFCURVE",
"63 396 OFFCURVE",
"38 250 CURVE SMOOTH",
"5 59 OFFCURVE",
"115 -15 OFFCURVE",
"240 -15 CURVE SMOOTH",
"299 -15 OFFCURVE",
"364 13 OFFCURVE",
"417 64 CURVE",
"403 -10 LINE SMOOTH",
"381 -137 OFFCURVE",
"287 -150 OFFCURVE",
"234 -150 CURVE SMOOTH",
"153 -150 OFFCURVE",
"127 -119 OFFCURVE",
"108 -85 CURVE",
"23 -122 LINE",
"55 -184 OFFCURVE",
"100 -225 OFFCURVE",
"221 -225 CURVE SMOOTH",
"319 -225 OFFCURVE",
"456 -184 OFFCURVE",
"488 -10 CURVE SMOOTH",
"578 500 LINE",
"525 500 LINE"
);
},
{
closed = 1;
nodes = (
"145 60 OFFCURVE",
"100 138 OFFCURVE",
"120 249 CURVE SMOOTH",
"139 356 OFFCURVE",
"213 440 OFFCURVE",
"318 440 CURVE SMOOTH",
"417 440 OFFCURVE",
"466 364 OFFCURVE",
"455 264 CURVE",
"448 232 LINE SMOOTH",
"424 133 OFFCURVE",
"349 60 OFFCURVE",
"251 60 CURVE SMOOTH"
);
}
);
width = 604;
},
{
layerId = "541F4A62-0ECD-4B4B-B1D5-38FFB5FB401F";
paths = (
{
closed = 1;
nodes = (
"494 452 LINE",
"465 496 OFFCURVE",
"405 525 OFFCURVE",
"351 525 CURVE SMOOTH",
"172 525 OFFCURVE",
"50 400 OFFCURVE",
"23 250 CURVE SMOOTH",
"-3 95 OFFCURVE",
"86 -15 OFFCURVE",
"256 -15 CURVE SMOOTH",
"302 -15 OFFCURVE",
"359 7 OFFCURVE",
"396 35 CURVE",
"393 10 LINE SMOOTH",
"378 -73 OFFCURVE",
"335 -110 OFFCURVE",
"257 -110 CURVE SMOOTH",
"182 -110 OFFCURVE",
"157 -89 OFFCURVE",
"129 -42 CURVE",
"8 -95 LINE",
"47 -186 OFFCURVE",
"115 -225 OFFCURVE",
"237 -225 CURVE SMOOTH",
"397 -225 OFFCURVE",
"511 -138 OFFCURVE",
"538 10 CURVE SMOOTH",
"625 510 LINE",
"517 510 LINE"
);
},
{
closed = 1;
nodes = (
"190 100 OFFCURVE",
"147 144 OFFCURVE",
"165 249 CURVE SMOOTH",
"183 352 OFFCURVE",
"247 410 OFFCURVE",
"328 410 CURVE SMOOTH",
"405 410 OFFCURVE",
"455 352 OFFCURVE",
"438 255 CURVE",
"438 255 LINE SMOOTH",
"419 144 OFFCURVE",
"350 100 OFFCURVE",
"273 100 CURVE SMOOTH"
);
}
);
width = 632;
}
);
leftKerningGroup = g;
unicode = 0067;
},
{
glyphname = h;
lastChange = "2021-12-19 11:17:27 +0000";
layers = (
{
layerId = "3A3E882A-FD1E-4FEC-B6F3-0E8C1BCDAD39";
paths = (
{
closed = 1;
nodes = (
"112 0 LINE",
"157 257 LINE SMOOTH",
"175 364 OFFCURVE",
"239 444 OFFCURVE",
"320 444 CURVE SMOOTH",
"413 444 OFFCURVE",
"416 371 OFFCURVE",
"402 289 CURVE SMOOTH",
"352 0 LINE",
"437 0 LINE",
"492 314 LINE SMOOTH",
"511 427 OFFCURVE",
"477 515 OFFCURVE",
"366 515 CURVE SMOOTH",
"291 515 OFFCURVE",
"227 485 OFFCURVE",
"188 438 CURVE",
"234 700 LINE",
"149 700 LINE",
"27 0 LINE"
);
}
);
width = 549;
},
{
layerId = "541F4A62-0ECD-4B4B-B1D5-38FFB5FB401F";
paths = (
{
closed = 1;
nodes = (
"150 0 LINE",
"194 247 LINE SMOOTH",
"211 346 OFFCURVE",
"246 409 OFFCURVE",
"317 409 CURVE SMOOTH",
"373 409 OFFCURVE",
"396 376 OFFCURVE",
"380 279 CURVE SMOOTH",
"330 0 LINE",
"475 0 LINE",
"529 304 LINE SMOOTH",
"553 442 OFFCURVE",
"497 525 OFFCURVE",
"377 525 CURVE SMOOTH",
"312 525 OFFCURVE",
"273 506 OFFCURVE",
"233 470 CURVE",
"274 700 LINE",
"129 700 LINE",
"5 0 LINE"
);
}
);
width = 570;
}
);
leftKerningGroup = h;
rightKerningGroup = h;
unicode = 0068;
},
{
glyphname = i;
lastChange = "2021-12-19 11:17:22 +0000";
layers = (
{
layerId = "3A3E882A-FD1E-4FEC-B6F3-0E8C1BCDAD39";
paths = (
{
closed = 1;
nodes = (
"138 0 LINE",
"225 500 LINE",
"74 500 LINE",
"62 430 LINE",
"128 430 LINE",
"53 0 LINE"
);
},
{
closed = 1;
nodes = (
"234 593 OFFCURVE",
"268 622 OFFCURVE",
"274 657 CURVE SMOOTH",
"281 692 OFFCURVE",
"258 722 OFFCURVE",
"222 722 CURVE SMOOTH",
"186 722 OFFCURVE",
"152 693 OFFCURVE",
"145 657 CURVE SMOOTH",
"139 620 OFFCURVE",
"166 593 OFFCURVE",
"199 593 CURVE SMOOTH"
);
}
);
width = 262;
},
{
layerId = "541F4A62-0ECD-4B4B-B1D5-38FFB5FB401F";
paths = (
{
closed = 1;
nodes = (
"190 0 LINE",
"280 510 LINE",
"69 510 LINE",
"52 410 LINE",
"118 410 LINE",
"45 0 LINE"
);
},
{
closed = 1;
nodes = (
"258 546 OFFCURVE",
"305 585 OFFCURVE",
"312 630 CURVE SMOOTH",
"320 677 OFFCURVE",
"289 715 OFFCURVE",
"243 715 CURVE SMOOTH",
"196 715 OFFCURVE",
"151 677 OFFCURVE",
"143 630 CURVE SMOOTH",
"135 584 OFFCURVE",
"167 546 OFFCURVE",
"213 546 CURVE SMOOTH"
);
}
);
width = 276;
}
);
leftKerningGroup = i;
rightKerningGroup = i;
unicode = 0069;
},
{
glyphname = j;
lastChange = "2021-12-05 15:54:10 +0000";
layers = (
{
layerId = "3A3E882A-FD1E-4FEC-B6F3-0E8C1BCDAD39";
paths = (
{
closed = 1;
nodes = (
"125 -35 LINE",
"219 500 LINE",
"134 500 LINE",
"40 -35 LINE"
);
},
{
closed = 1;
nodes = (
"-81 -195 LINE SMOOTH",
"4 -193 OFFCURVE",
"61 -187 OFFCURVE",
"91 -138 CURVE SMOOTH",
"106 -115 OFFCURVE",
"118 -72 OFFCURVE",
"125 -35 CURVE",
"40 -35 LINE",
"27 -107 OFFCURVE",
"-3 -117 OFFCURVE",
"-76 -118 CURVE SMOOTH",
"-123 -118 LINE",
"-136 -196 LINE"
);
},
{
closed = 1;
nodes = (
"228 593 OFFCURVE",
"262 622 OFFCURVE",
"268 657 CURVE SMOOTH",
"275 692 OFFCURVE",
"252 722 OFFCURVE",
"216 722 CURVE SMOOTH",
"180 722 OFFCURVE",
"146 693 OFFCURVE",
"139 657 CURVE SMOOTH",
"133 620 OFFCURVE",
"160 593 OFFCURVE",
"193 593 CURVE SMOOTH"
);
}
);
width = 256;
},
{
layerId = "541F4A62-0ECD-4B4B-B1D5-38FFB5FB401F";
paths = (
{
closed = 1;
nodes = (
"172 -36 LINE",
"268 510 LINE",
"123 510 LINE",
"27 -36 LINE"
);
},
{
closed = 1;
nodes = (
"-63 -196 LINE SMOOTH",
"50 -196 OFFCURVE",
"102 -178 OFFCURVE",
"138 -127 CURVE SMOOTH",
"158 -100 OFFCURVE",
"170 -52 OFFCURVE",
"179 4 CURVE",
"34 4 LINE",
"21 -71 OFFCURVE",
"17 -79 OFFCURVE",
"-52 -79 CURVE SMOOTH",
"-129 -79 LINE",
"-149 -196 LINE"
);
},
{
closed = 1;
nodes = (
"247 546 OFFCURVE",
"294 585 OFFCURVE",
"301 630 CURVE SMOOTH",
"309 676 OFFCURVE",
"278 715 OFFCURVE",
"232 715 CURVE SMOOTH",
"185 715 OFFCURVE",
"140 677 OFFCURVE",
"132 630 CURVE SMOOTH",
"124 584 OFFCURVE",
"156 546 OFFCURVE",
"202 546 CURVE SMOOTH"
);
}
);
width = 272;
}
);
leftKerningGroup = j;
unicode = 006A;
},
{
glyphname = k;
lastChange = "2021-12-06 06:04:04 +0000";
layers = (
{
background = {
paths = (
{
closed = 1;
nodes = (
"158 -1 LINE",
"158 701 LINE",
"71 701 LINE",
"71 -1 LINE"
);
},
{
closed = 1;
nodes = (
"218 230 LINE",
"384 0 LINE",
"491 0 LINE",
"276 296 LINE",
"470 500 LINE",
"365 500 LINE",
"158 278 LINE",
"158 165 LINE"
);
}
);
};
layerId = "3A3E882A-FD1E-4FEC-B6F3-0E8C1BCDAD39";
paths = (
{
closed = 1;
nodes = (
"113 -1 LINE",
"235 701 LINE",
"150 701 LINE",
"28 -1 LINE"
);
},
{
closed = 1;
nodes = (
"213 230 LINE",
"339 0 LINE",
"446 0 LINE",
"282 296 LINE",
"512 500 LINE",
"407 500 LINE",
"161 278 LINE",
"141 165 LINE"
);
}
);
width = 500;
},
{
layerId = "541F4A62-0ECD-4B4B-B1D5-38FFB5FB401F";
paths = (
{
closed = 1;
nodes = (
"150 0 LINE",
"274 700 LINE",
"129 700 LINE",
"5 0 LINE"
);
},
{
closed = 1;
nodes = (
"215 210 LINE",
"328 0 LINE",
"500 0 LINE",
"328 316 LINE",
"576 510 LINE",
"401 510 LINE",
"144 304 LINE",
"111 116 LINE"
);
}
);
width = 549;
},
{
associatedMasterId = "3A3E882A-FD1E-4FEC-B6F3-0E8C1BCDAD39";
layerId = "CBEA91B9-0051-4247-951C-B4550DA576B1";
name = "Nov 14 21, 13:34";
paths = (
{
closed = 1;
nodes = (
"154 0 LINE",
"154 700 LINE",
"69 700 LINE",
"69 0 LINE"
);
},
{
closed = 1;
nodes = (
"212 236 LINE",
"381 0 LINE",
"486 0 LINE",
"272 299 LINE",
"462 500 LINE",
"361 500 LINE",
"155 284 LINE",
"155 175 LINE"
);
},
{
closed = 1;
nodes = (
"154 0 LINE",
"154 166 LINE",
"212 229 LINE",
"377 0 LINE",
"480 0 LINE",
"268 291 LINE",
"455 496 LINE",
"354 496 LINE",
"154 273 LINE",
"154 668 LINE",
"70 668 LINE",
"70 0 LINE",
"70 0 LINE"
);
}
);
width = 495;
}
);
leftKerningGroup = h;
unicode = 006B;
},
{
glyphname = l;
lastChange = "2021-12-19 11:12:55 +0000";
layers = (
{
layerId = "3A3E882A-FD1E-4FEC-B6F3-0E8C1BCDAD39";
paths = (
{
closed = 1;
nodes = (
"189 81 LINE",
"128 84 OFFCURVE",
"125 80 OFFCURVE",
"138 152 CURVE SMOOTH",
"225 645 LINE",
"140 645 LINE",
"53 152 LINE SMOOTH",
"27 7 OFFCURVE",
"44 0 OFFCURVE",
"175 0 CURVE"
);
},
{
closed = 1;
nodes = (
"169 328 LINE",
"234 700 LINE",
"149 700 LINE",
"84 328 LINE"
);
}
);
width = 234;
},
{
layerId = "541F4A62-0ECD-4B4B-B1D5-38FFB5FB401F";
paths = (
{
closed = 1;
nodes = (
"225 118 LINE",
"171 118 OFFCURVE",
"170 115 OFFCURVE",
"180 172 CURVE SMOOTH",
"264 645 LINE",
"119 645 LINE",
"35 172 LINE SMOOTH",
"6 3 OFFCURVE",
"37 0 OFFCURVE",
"204 1 CURVE"
);
},
{
closed = 1;
nodes = (
"204 308 LINE",
"274 700 LINE",
"129 700 LINE",
"59 308 LINE"
);
}
);
width = 269;
}
);
unicode = 006C;
},
{
glyphname = m;
lastChange = "2021-12-05 15:54:10 +0000";
layers = (
{
layerId = "3A3E882A-FD1E-4FEC-B6F3-0E8C1BCDAD39";
paths = (
{
closed = 1;
nodes = (
"112 0 LINE",
"157 257 LINE SMOOTH",
"175 364 OFFCURVE",
"229 446 OFFCURVE",
"310 446 CURVE SMOOTH",
"403 446 OFFCURVE",
"404 371 OFFCURVE",
"390 289 CURVE SMOOTH",
"340 0 LINE",
"425 0 LINE",
"470 257 LINE SMOOTH",
"488 364 OFFCURVE",
"539 446 OFFCURVE",
"620 446 CURVE SMOOTH",
"713 446 OFFCURVE",
"716 371 OFFCURVE",
"702 289 CURVE SMOOTH",
"652 0 LINE",
"737 0 LINE",
"792 314 LINE SMOOTH",
"812 430 OFFCURVE",
"777 515 OFFCURVE",
"666 515 CURVE SMOOTH",
"582 515 OFFCURVE",
"516 478 OFFCURVE",
"478 421 CURVE",
"466 479 OFFCURVE",
"429 515 OFFCURVE",
"356 515 CURVE SMOOTH",
"272 515 OFFCURVE",
"213 478 OFFCURVE",
"175 421 CURVE",
"167 500 LINE",
"114 500 LINE",
"27 0 LINE"
);
}
);
width = 849;
},
{
layerId = "541F4A62-0ECD-4B4B-B1D5-38FFB5FB401F";
paths = (
{
closed = 1;
nodes = (
"150 0 LINE",
"194 247 LINE SMOOTH",
"212 351 OFFCURVE",
"246 411 OFFCURVE",
"310 411 CURVE SMOOTH",
"365 411 OFFCURVE",
"385 379 OFFCURVE",
"368 279 CURVE SMOOTH",
"318 0 LINE",
"463 0 LINE",
"507 247 LINE SMOOTH",
"527 361 OFFCURVE",
"563 411 OFFCURVE",
"622 411 CURVE SMOOTH",
"678 411 OFFCURVE",
"696 377 OFFCURVE",
"680 279 CURVE SMOOTH",
"630 0 LINE",
"775 0 LINE",
"829 304 LINE SMOOTH",
"853 442 OFFCURVE",
"798 525 OFFCURVE",
"677 525 CURVE SMOOTH",
"608 525 OFFCURVE",
"541 492 OFFCURVE",
"496 452 CURVE",
"472 493 OFFCURVE",
"427 525 OFFCURVE",
"367 525 CURVE SMOOTH",
"290 525 OFFCURVE",
"246 487 OFFCURVE",
"203 453 CURVE",
"203 510 LINE",
"95 510 LINE",
"5 0 LINE"
);
}
);
width = 870;
}
);
rightKerningGroup = h;
unicode = 006D;
},
{
glyphname = n;
lastChange = "2021-12-05 15:54:10 +0000";
layers = (
{
layerId = "3A3E882A-FD1E-4FEC-B6F3-0E8C1BCDAD39";
paths = (
{
closed = 1;
nodes = (
"112 0 LINE",
"157 257 LINE SMOOTH",
"175 364 OFFCURVE",
"239 444 OFFCURVE",
"320 444 CURVE SMOOTH",
"413 444 OFFCURVE",
"416 371 OFFCURVE",
"402 289 CURVE SMOOTH",
"352 0 LINE",
"437 0 LINE",
"492 314 LINE SMOOTH",
"511 428 OFFCURVE",
"477 515 OFFCURVE",
"366 515 CURVE SMOOTH",
"282 515 OFFCURVE",
"213 478 OFFCURVE",
"175 421 CURVE",
"167 500 LINE",
"114 500 LINE",
"27 0 LINE"
);
}
);
width = 549;
},
{
associatedMasterId = "3A3E882A-FD1E-4FEC-B6F3-0E8C1BCDAD39";
layerId = "61EC8C2C-9DC9-41A3-AC52-05DA4A4B81F0";
name = "Nov 12 21, 13:16";
paths = (
{
closed = 1;
nodes = (
"164 0 LINE",
"164 269 LINE SMOOTH",
"164 376 OFFCURVE",
"214 432 OFFCURVE",
"295 432 CURVE SMOOTH",
"388 432 OFFCURVE",
"404 371 OFFCURVE",
"404 289 CURVE SMOOTH",
"404 0 LINE",
"488 0 LINE",
"488 314 LINE SMOOTH",
"488 427 OFFCURVE",
"439 515 OFFCURVE",
"328 515 CURVE SMOOTH",
"244 515 OFFCURVE",
"192 468 OFFCURVE",
"164 421 CURVE",
"142 500 LINE",
"80 500 LINE",
"80 0 LINE"
);
}
);
width = 558;
},
{
layerId = "541F4A62-0ECD-4B4B-B1D5-38FFB5FB401F";
paths = (
{
closed = 1;
nodes = (
"150 0 LINE",
"194 247 LINE SMOOTH",
"211 346 OFFCURVE",
"248 409 OFFCURVE",
"319 409 CURVE SMOOTH",
"375 409 OFFCURVE",
"396 376 OFFCURVE",
"380 279 CURVE SMOOTH",
"330 0 LINE",
"475 0 LINE",
"529 304 LINE SMOOTH",
"553 442 OFFCURVE",
"497 525 OFFCURVE",
"377 525 CURVE SMOOTH",
"303 525 OFFCURVE",
"251 492 OFFCURVE",
"204 451 CURVE",
"203 510 LINE",
"95 510 LINE",
"5 0 LINE"
);
}
);
width = 570;
}
);
leftKerningGroup = n;
rightKerningGroup = h;
unicode = 006E;
},
{
glyphname = o;
lastChange = "2021-12-05 15:54:10 +0000";
layers = (
{
layerId = "3A3E882A-FD1E-4FEC-B6F3-0E8C1BCDAD39";
paths = (
{
closed = 1;
nodes = (
"393 -15 OFFCURVE",
"515 103 OFFCURVE",
"535 249 CURVE SMOOTH",
"556 394 OFFCURVE",
"466 515 OFFCURVE",
"325 515 CURVE",
"183 515 OFFCURVE",
"59 395 OFFCURVE",
"38 249 CURVE SMOOTH",
"18 103 OFFCURVE",
"108 -15 OFFCURVE",
"250 -15 CURVE SMOOTH"
);
},
{
closed = 1;
nodes = (
"157 61 OFFCURVE",
"110 143 OFFCURVE",
"125 250 CURVE SMOOTH",
"140 357 OFFCURVE",
"210 440 OFFCURVE",
"314 440 CURVE SMOOTH",
"420 440 OFFCURVE",
"465 359 OFFCURVE",
"450 250 CURVE SMOOTH",
"435 143 OFFCURVE",
"367 61 OFFCURVE",
"261 61 CURVE SMOOTH"
);
}
);
width = 573;
},
{
layerId = "541F4A62-0ECD-4B4B-B1D5-38FFB5FB401F";
paths = (
{
closed = 1;
nodes = (
"422 -15 OFFCURVE",
"558 94 OFFCURVE",
"581 254 CURVE SMOOTH",
"604 413 OFFCURVE",
"496 525 OFFCURVE",
"341 525 CURVE SMOOTH",
"185 525 OFFCURVE",
"47 415 OFFCURVE",
"24 254 CURVE SMOOTH",
"1 94 OFFCURVE",
"108 -15 OFFCURVE",
"265 -15 CURVE SMOOTH"
);
},
{
closed = 1;
nodes = (
"201 106 OFFCURVE",
"155 152 OFFCURVE",
"170 255 CURVE SMOOTH",
"183 348 OFFCURVE",
"243 405 OFFCURVE",
"323 405 CURVE SMOOTH",
"405 405 OFFCURVE",
"448 350 OFFCURVE",
"435 255 CURVE SMOOTH",
"420 151 OFFCURVE",
"362 106 OFFCURVE",
"281 106 CURVE SMOOTH"
);
}
);
width = 605;
}
);
leftKerningGroup = c;
unicode = 006F;
},
{
glyphname = p;
lastChange = "2021-12-19 11:17:36 +0000";
layers = (
{
layerId = "3A3E882A-FD1E-4FEC-B6F3-0E8C1BCDAD39";
paths = (
{
closed = 1;
nodes = (
"77 -195 LINE",
"122 64 LINE",
"157 13 OFFCURVE",
"212 -15 OFFCURVE",
"271 -15 CURVE SMOOTH",
"396 -15 OFFCURVE",
"533 59 OFFCURVE",
"566 250 CURVE SMOOTH",
"591 396 OFFCURVE",
"507 515 OFFCURVE",
"365 515 CURVE SMOOTH",
"282 515 OFFCURVE",
"220 477 OFFCURVE",
"175 418 CURVE",
"167 500 LINE",
"114 500 LINE",
"-8 -195 LINE"
);
},
{
closed = 1;
nodes = (
"168 364 OFFCURVE",
"245 440 OFFCURVE",
"343 440 CURVE SMOOTH",
"449 440 OFFCURVE",
"495 356 OFFCURVE",
"476 249 CURVE SMOOTH",
"456 138 OFFCURVE",
"383 60 OFFCURVE",
"276 60 CURVE SMOOTH",
"179 60 OFFCURVE",
"128 133 OFFCURVE",
"140 232 CURVE SMOOTH",
"145 264 LINE"
);
}
);
width = 604;
},
{
layerId = "541F4A62-0ECD-4B4B-B1D5-38FFB5FB401F";
paths = (
{
closed = 1;
nodes = (
"118 -185 LINE",
"155 35 LINE",
"189 0 OFFCURVE",
"234 -15 OFFCURVE",
"280 -15 CURVE SMOOTH",
"450 -15 OFFCURVE",
"576 82 OFFCURVE",
"606 257 CURVE SMOOTH",
"635 417 OFFCURVE",
"542 525 OFFCURVE",
"386 525 CURVE SMOOTH",
"312 525 OFFCURVE",
"253 493 OFFCURVE",
"206 452 CURVE",
"203 510 LINE",
"95 510 LINE",
"-27 -185 LINE"
);
},
{
closed = 1;
nodes = (
"200 350 OFFCURVE",
"269 405 OFFCURVE",
"345 405 CURVE SMOOTH",
"427 405 OFFCURVE",
"485 359 OFFCURVE",
"466 256 CURVE SMOOTH",
"447 150 OFFCURVE",
"377 105 OFFCURVE",
"293 105 CURVE SMOOTH",
"217 105 OFFCURVE",
"167 162 OFFCURVE",
"183 255 CURVE SMOOTH",
"183 255 LINE SMOOTH"
);
}
);
width = 630;
}
);
leftKerningGroup = p;
rightKerningGroup = p;
unicode = 0070;
},
{
glyphname = q;
lastChange = "2021-12-05 15:54:10 +0000";
layers = (
{
layerId = "3A3E882A-FD1E-4FEC-B6F3-0E8C1BCDAD39";
paths = (
{
closed = 1;
nodes = (
"5 59 OFFCURVE",
"116 -15 OFFCURVE",
"241 -15 CURVE SMOOTH",
"300 -15 OFFCURVE",
"365 13 OFFCURVE",
"418 64 CURVE",
"371 -195 LINE",
"456 -195 LINE",
"578 500 LINE",
"525 500 LINE",
"487 418 LINE",
"454 477 OFFCURVE",
"397 515 OFFCURVE",
"334 515 CURVE SMOOTH",
"191 515 OFFCURVE",
"63 396 OFFCURVE",
"38 250 CURVE SMOOTH"
);
},
{
closed = 1;
nodes = (
"142 356 OFFCURVE",
"214 440 OFFCURVE",
"319 440 CURVE SMOOTH",
"418 440 OFFCURVE",
"467 364 OFFCURVE",
"456 264 CURVE",
"449 232 LINE",
"425 133 OFFCURVE",
"350 60 OFFCURVE",
"252 60 CURVE SMOOTH",
"146 60 OFFCURVE",
"103 138 OFFCURVE",
"123 249 CURVE SMOOTH"
);
}
);
width = 604;
},
{
layerId = "541F4A62-0ECD-4B4B-B1D5-38FFB5FB401F";
paths = (
{
closed = 1;
nodes = (
"-6 80 OFFCURVE",
"97 -15 OFFCURVE",
"267 -15 CURVE SMOOTH",
"309 -15 OFFCURVE",
"362 0 OFFCURVE",
"410 40 CURVE",
"369 -185 LINE",
"514 -185 LINE",
"636 510 LINE",
"528 510 LINE",
"503 441 LINE",
"477 500 OFFCURVE",
"405 525 OFFCURVE",
"352 525 CURVE SMOOTH",
"195 525 OFFCURVE",
"53 415 OFFCURVE",
"24 255 CURVE SMOOTH"
);
},
{
closed = 1;
nodes = (
"183 359 OFFCURVE",
"255 405 OFFCURVE",
"335 405 CURVE SMOOTH",
"412 405 OFFCURVE",
"469 353 OFFCURVE",
"451 256 CURVE",
"451 256 LINE SMOOTH",
"435 159 OFFCURVE",
"360 105 OFFCURVE",
"283 105 CURVE SMOOTH",
"203 105 OFFCURVE",
"145 148 OFFCURVE",
"164 254 CURVE SMOOTH"
);
}
);
width = 642;
}
);
leftKerningGroup = c;
rightKerningGroup = q;
unicode = 0071;
},
{
glyphname = r;
lastChange = "2021-12-06 06:03:10 +0000";
layers = (
{
layerId = "3A3E882A-FD1E-4FEC-B6F3-0E8C1BCDAD39";
paths = (
{
closed = 1;
nodes = (
"390 513 LINE",
"382 514 OFFCURVE",
"375 515 OFFCURVE",
"366 515 CURVE SMOOTH",
"282 515 OFFCURVE",
"213 478 OFFCURVE",
"175 421 CURVE",
"167 500 LINE",
"114 500 LINE",
"27 0 LINE",
"112 0 LINE",
"157 257 LINE SMOOTH",
"175 364 OFFCURVE",
"235 424 OFFCURVE",
"316 424 CURVE SMOOTH",
"354 424 OFFCURVE",
"374 421 OFFCURVE",
"374 421 CURVE SMOOTH"
);
}
);
width = 359;
},
{
layerId = "541F4A62-0ECD-4B4B-B1D5-38FFB5FB401F";
paths = (
{
closed = 1;
nodes = (
"430 519 LINE",
"409 523 OFFCURVE",
"391 525 OFFCURVE",
"377 525 CURVE SMOOTH",
"313 525 OFFCURVE",
"243 494 OFFCURVE",
"204 455 CURVE",
"203 510 LINE",
"95 510 LINE",
"5 0 LINE",
"150 0 LINE",
"199 277 LINE SMOOTH",
"214 361 OFFCURVE",
"257 394 OFFCURVE",
"321 394 CURVE SMOOTH",
"346 394 OFFCURVE",
"364 393 OFFCURVE",
"408 387 CURVE"
);
}
);
width = 400;
}
);
rightKerningGroup = r;
unicode = 0072;
},
{
glyphname = s;
lastChange = "2021-12-19 11:13:01 +0000";
layers = (
{
layerId = "3A3E882A-FD1E-4FEC-B6F3-0E8C1BCDAD39";
paths = (
{
closed = 1;
nodes = (
"258 -15 OFFCURVE",
"329 9 OFFCURVE",
"375 54 CURVE SMOOTH",
"399 77 OFFCURVE",
"419 104 OFFCURVE",
"425 134 CURVE SMOOTH",
"443 219 OFFCURVE",
"396 266 OFFCURVE",
"296 287 CURVE SMOOTH",
"233 300 LINE SMOOTH",
"183 310 OFFCURVE",
"148 337 OFFCURVE",
"157 377 CURVE SMOOTH",
"166 420 OFFCURVE",
"219 440 OFFCURVE",
"270 440 CURVE SMOOTH",
"317 440 OFFCURVE",
"360 423 OFFCURVE",
"369 383 CURVE",
"456 413 LINE",
"441 482 OFFCURVE",
"372 515 OFFCURVE",
"293 515 CURVE SMOOTH",
"229 515 OFFCURVE",
"164 494 OFFCURVE",
"118 454 CURVE SMOOTH",
"95 433 OFFCURVE",
"79 406 OFFCURVE",
"72 376 CURVE SMOOTH",
"55 292 OFFCURVE",
"104 248 OFFCURVE",
"178 232 CURVE SMOOTH",
"244 218 LINE SMOOTH",
"301 206 OFFCURVE",
"351 185 OFFCURVE",
"339 131 CURVE SMOOTH",
"330 85 OFFCURVE",
"261 60 OFFCURVE",
"204 60 CURVE SMOOTH",
"149 60 OFFCURVE",
"99 86 OFFCURVE",
"97 145 CURVE",
"7 113 LINE",
"19 57 OFFCURVE",
"55 19 OFFCURVE",
"107 0 CURVE SMOOTH",
"132 -9 OFFCURVE",
"158 -15 OFFCURVE",
"188 -15 CURVE SMOOTH"
);
}
);
width = 476;
},
{
layerId = "541F4A62-0ECD-4B4B-B1D5-38FFB5FB401F";
paths = (
{
closed = 1;
nodes = (
"288 -15 OFFCURVE",
"370 5 OFFCURVE",
"418 51 CURVE SMOOTH",
"452 84 OFFCURVE",
"471 113 OFFCURVE",
"478 144 CURVE SMOOTH",
"497 235 OFFCURVE",
"445 282 OFFCURVE",
"326 307 CURVE SMOOTH",
"264 320 LINE SMOOTH",
"221 328 OFFCURVE",
"200 339 OFFCURVE",
"206 367 CURVE SMOOTH",
"212 394 OFFCURVE",
"247 415 OFFCURVE",
"293 415 CURVE SMOOTH",
"348 415 OFFCURVE",
"373 389 OFFCURVE",
"371 344 CURVE",
"505 385 LINE",
"500 464 OFFCURVE",
"430 525 OFFCURVE",
"323 525 CURVE SMOOTH",
"249 525 OFFCURVE",
"166 499 OFFCURVE",
"118 457 CURVE SMOOTH",
"86 429 OFFCURVE",
"68 400 OFFCURVE",
"61 366 CURVE SMOOTH",
"43 282 OFFCURVE",
"90 234 OFFCURVE",
"189 212 CURVE SMOOTH",
"254 198 LINE SMOOTH",
"317 185 OFFCURVE",
"340 177 OFFCURVE",
"332 141 CURVE SMOOTH",
"326 111 OFFCURVE",
"283 95 OFFCURVE",
"230 95 CURVE SMOOTH",
"170 95 OFFCURVE",
"121 125 OFFCURVE",
"132 188 CURVE",
"1 143 LINE",
"7 77 OFFCURVE",
"49 26 OFFCURVE",
"118 1 CURVE SMOOTH",
"148 -10 OFFCURVE",
"177 -15 OFFCURVE",
"207 -15 CURVE SMOOTH"
);
}
);
width = 525;
}
);
leftKerningGroup = s;
rightKerningGroup = s;
unicode = 0073;
},
{
glyphname = t;
lastChange = "2021-12-06 05:56:47 +0000";
layers = (
{
layerId = "3A3E882A-FD1E-4FEC-B6F3-0E8C1BCDAD39";
paths = (
{
closed = 1;
nodes = (
"52 430 LINE",
"322 430 LINE",
"334 500 LINE",
"64 500 LINE"
);
},
{
closed = 1;
nodes = (
"79 122 OFFCURVE",
"69 73 OFFCURVE",
"79 44 CURVE SMOOTH",
"94 1 OFFCURVE",
"134 0 OFFCURVE",
"236 0 CURVE SMOOTH",
"252 0 LINE",
"264 75 LINE",
"236 73 LINE SMOOTH",
"154 67 OFFCURVE",
"159 94 OFFCURVE",
"170 156 CURVE SMOOTH",
"256 648 LINE",
"171 648 LINE",
"85 156 LINE SMOOTH"
);
}
);
width = 336;
},
{
layerId = "541F4A62-0ECD-4B4B-B1D5-38FFB5FB401F";
paths = (
{
closed = 1;
nodes = (
"41 410 LINE",
"371 410 LINE",
"388 510 LINE",
"58 510 LINE"
);
},
{
closed = 1;
nodes = (
"69 110 OFFCURVE",
"67 82 OFFCURVE",
"76 55 CURVE SMOOTH",
"95 2 OFFCURVE",
"155 0 OFFCURVE",
"257 0 CURVE SMOOTH",
"303 0 LINE",
"323 115 LINE",
"263 115 LINE",
"223 115 OFFCURVE",
"215 119 OFFCURVE",
"225 176 CURVE SMOOTH",
"310 658 LINE",
"165 658 LINE",
"80 176 LINE SMOOTH"
);
}
);
width = 372;
}
);
leftKerningGroup = t;
rightKerningGroup = t;
unicode = 0074;
},
{
glyphname = u;
lastChange = "2021-12-05 15:54:10 +0000";
layers = (
{
layerId = "3A3E882A-FD1E-4FEC-B6F3-0E8C1BCDAD39";
paths = (
{
closed = 1;
nodes = (
"437 500 LINE",
"392 243 LINE SMOOTH",
"373 136 OFFCURVE",
"309 56 OFFCURVE",
"228 56 CURVE SMOOTH",
"135 56 OFFCURVE",
"132 129 OFFCURVE",
"146 211 CURVE SMOOTH",
"197 500 LINE",
"112 500 LINE",
"57 186 LINE SMOOTH",
"37 72 OFFCURVE",
"72 -15 OFFCURVE",
"183 -15 CURVE SMOOTH",
"267 -15 OFFCURVE",
"334 25 OFFCURVE",
"372 82 CURVE",
"382 0 LINE",
"447 0 LINE",
"453 109 LINE",
"522 500 LINE"
);
}
);
width = 561;
},
{
layerId = "541F4A62-0ECD-4B4B-B1D5-38FFB5FB401F";
paths = (
{
closed = 1;
nodes = (
"420 510 LINE",
"376 263 LINE SMOOTH",
"355 141 OFFCURVE",
"305 96 OFFCURVE",
"247 96 CURVE SMOOTH",
"191 96 OFFCURVE",
"174 134 OFFCURVE",
"191 231 CURVE SMOOTH",
"240 510 LINE",
"95 510 LINE",
"41 206 LINE SMOOTH",
"18 68 OFFCURVE",
"74 -15 OFFCURVE",
"194 -15 CURVE SMOOTH",
"247 -15 OFFCURVE",
"327 2 OFFCURVE",
"369 69 CURVE",
"368 0 LINE",
"490 0 LINE",
"499 130 LINE",
"565 510 LINE"
);
}
);
width = 586;
}
);
leftKerningGroup = u;
rightKerningGroup = u;
unicode = 0075;
},
{
glyphname = v;
lastChange = "2021-12-05 15:54:10 +0000";
layers = (
{
layerId = "3A3E882A-FD1E-4FEC-B6F3-0E8C1BCDAD39";
paths = (
{
closed = 1;
nodes = (
"224 0 LINE",
"493 500 LINE",
"401 500 LINE",
"202 114 LINE",
"136 500 LINE",
"44 500 LINE",
"139 0 LINE"
);
}
);
width = 449;
},
{
layerId = "541F4A62-0ECD-4B4B-B1D5-38FFB5FB401F";
paths = (
{
closed = 1;
nodes = (
"283 0 LINE",
"570 510 LINE",
"416 510 LINE",
"252 188 LINE",
"199 510 LINE",
"45 510 LINE",
"152 0 LINE"
);
}
);
width = 525;
}
);
leftKerningGroup = v;
rightKerningGroup = v;
unicode = 0076;
},
{
glyphname = w;
lastChange = "2021-12-05 10:36:32 +0000";
layers = (
{
layerId = "3A3E882A-FD1E-4FEC-B6F3-0E8C1BCDAD39";
paths = (
{
closed = 1;
nodes = (
"449 133 LINE",
"417 499 LINE",
"329 499 LINE",
"167 133 LINE",
"136 500 LINE",
"44 500 LINE",
"102 0 LINE",
"181 0 LINE",
"354 391 LINE",
"391 0 LINE",
"470 0 LINE",
"702 500 LINE",
"610 500 LINE"
);
}
);
width = 658;
},
{
layerId = "541F4A62-0ECD-4B4B-B1D5-38FFB5FB401F";
paths = (
{
closed = 1;
nodes = (
"508 208 LINE",
"479 509 LINE",
"361 509 LINE",
"226 208 LINE",
"198 510 LINE",
"45 510 LINE",
"121 0 LINE",
"240 0 LINE",
"385 308 LINE",
"420 0 LINE",
"539 0 LINE",
"795 510 LINE",
"642 510 LINE"
);
}
);
width = 750;
}
);
leftKerningGroup = v;
unicode = 0077;
},
{
glyphname = x;
lastChange = "2021-12-05 15:54:10 +0000";
layers = (
{
layerId = "3A3E882A-FD1E-4FEC-B6F3-0E8C1BCDAD39";
paths = (
{
closed = 1;
nodes = (
"55 0 LINE",
"219 184 LINE",
"320 0 LINE",
"421 0 LINE",
"284 257 LINE",
"499 500 LINE",
"398 500 LINE",
"244 329 LINE",
"151 500 LINE",
"49 500 LINE",
"180 257 LINE",
"-44 0 LINE"
);
}
);
width = 465;
},
{
layerId = "541F4A62-0ECD-4B4B-B1D5-38FFB5FB401F";
paths = (
{
closed = 1;
nodes = (
"119 0 LINE",
"259 149 LINE",
"348 0 LINE",
"514 0 LINE",
"364 262 LINE",
"595 510 LINE",
"429 510 LINE",
"299 374 LINE",
"218 510 LINE",
"51 510 LINE",
"194 262 LINE",
"-45 0 LINE"
);
}
);
width = 559;
}
);
rightKerningGroup = x;
unicode = 0078;
},
{
glyphname = y;
lastChange = "2021-12-05 15:54:10 +0000";
layers = (
{
layerId = "3A3E882A-FD1E-4FEC-B6F3-0E8C1BCDAD39";
paths = (
{
closed = 1;
nodes = (
"-5 -195 LINE SMOOTH",
"70 -195 OFFCURVE",
"115 -174 OFFCURVE",
"152 -139 CURVE SMOOTH",
"198 -92 OFFCURVE",
"218 -49 OFFCURVE",
"242 0 CURVE SMOOTH",
"493 500 LINE",
"396 500 LINE",
"214 109 LINE",
"136 500 LINE",
"44 500 LINE",
"155 0 LINE",
"144 -75 OFFCURVE",
"77 -120 OFFCURVE",
"-4 -120 CURVE",
"-14 -195 LINE"
);
}
);
width = 449;
},
{
layerId = "541F4A62-0ECD-4B4B-B1D5-38FFB5FB401F";
paths = (
{
closed = 1;
nodes = (
"31 -197 LINE SMOOTH",
"123 -197 OFFCURVE",
"170 -176 OFFCURVE",
"213 -134 CURVE SMOOTH",
"267 -80 OFFCURVE",
"284 -44 OFFCURVE",
"307 1 CURVE SMOOTH",
"570 510 LINE",
"411 510 LINE",
"258 159 LINE",
"199 510 LINE",
"45 510 LINE",
"163 6 LINE",
"153 -62 OFFCURVE",
"88 -86 OFFCURVE",
"9 -80 CURVE",
"-8 -197 LINE"
);
}
);
width = 525;
}
);
leftKerningGroup = v;
rightKerningGroup = v;
unicode = 0079;
},
{
glyphname = z;
lastChange = "2021-12-05 15:54:10 +0000";
layers = (
{
layerId = "3A3E882A-FD1E-4FEC-B6F3-0E8C1BCDAD39";
paths = (
{
closed = 1;
nodes = (
"397 0 LINE",
"407 76 LINE",
"112 76 LINE",
"446 425 LINE",
"457 500 LINE",
"84 500 LINE",
"73 424 LINE",
"348 424 LINE",
"15 75 LINE",
"5 1 LINE",
"6 1 LINE",
"6 0 LINE"
);
}
);
width = 471;
},
{
layerId = "541F4A62-0ECD-4B4B-B1D5-38FFB5FB401F";
paths = (
{
closed = 1;
nodes = (
"437 0 LINE",
"458 120 LINE",
"183 120 LINE",
"499 407 LINE",
"517 510 LINE",
"84 510 LINE",
"63 390 LINE",
"318 390 LINE",
"4 103 LINE",
"-15 1 LINE",
"-14 1 LINE",
"-14 0 LINE"
);
}
);
width = 502;
}
);
leftKerningGroup = z;
rightKerningGroup = z;
unicode = 007A;
},
{
glyphname = a.ss01;
lastChange = "2021-12-05 15:54:10 +0000";
layers = (
{
layerId = "3A3E882A-FD1E-4FEC-B6F3-0E8C1BCDAD39";
paths = (
{
closed = 1;
nodes = (
"248 -15 OFFCURVE",
"313 33 OFFCURVE",
"357 82 CURVE",
"367 0 LINE",
"432 0 LINE",
"438 109 LINE SMOOTH",
"439 133 OFFCURVE",
"447 157 OFFCURVE",
"452 188 CURVE SMOOTH",
"472 304 LINE SMOOTH",
"477 326 OFFCURVE",
"503 481 OFFCURVE",
"507 500 CURVE",
"422 500 LINE",
"418 482 OFFCURVE",
"392 327 OFFCURVE",
"387 303 CURVE",
"426 350 LINE SMOOTH",
"380 328 OFFCURVE",
"316 311 OFFCURVE",
"259 297 CURVE SMOOTH",
"130 265 OFFCURVE",
"35 236 OFFCURVE",
"15 122 CURVE SMOOTH",
"0 36 OFFCURVE",
"70 -15 OFFCURVE",
"160 -15 CURVE SMOOTH"
);
},
{
closed = 1;
nodes = (
"138 58 OFFCURVE",
"100 79 OFFCURVE",
"108 123 CURVE SMOOTH",
"119 187 OFFCURVE",
"200 214 OFFCURVE",
"283 235 CURVE SMOOTH",
"314 243 OFFCURVE",
"356 255 OFFCURVE",
"381 262 CURVE",
"371 211 LINE SMOOTH",
"358 138 OFFCURVE",
"313 93 OFFCURVE",
"265 76 CURVE SMOOTH",
"241 67 OFFCURVE",
"215 58 OFFCURVE",
"189 58 CURVE SMOOTH"
);
},
{
closed = 1;
nodes = (
"408 425 LINE",
"422 500 LINE",
"122 500 LINE",
"108 425 LINE"
);
}
);
width = 527;
},
{
layerId = "541F4A62-0ECD-4B4B-B1D5-38FFB5FB401F";
paths = (
{
closed = 1;
nodes = (
"234 -15 OFFCURVE",
"309 22 OFFCURVE",
"352 72 CURVE",
"352 0 LINE",
"474 0 LINE",
"484 131 LINE SMOOTH",
"485 152 OFFCURVE",
"491 177 OFFCURVE",
"497 208 CURVE SMOOTH",
"515 314 LINE SMOOTH",
"518 328 OFFCURVE",
"519 335 OFFCURVE",
"550 510 CURVE",
"405 510 LINE",
"399 471 OFFCURVE",
"375 339 OFFCURVE",
"354 216 CURVE",
"470 354 LINE",
"355 336 OFFCURVE",
"355 337 OFFCURVE",
"254 321 CURVE SMOOTH",
"120 299 OFFCURVE",
"22 238 OFFCURVE",
"4 142 CURVE SMOOTH",
"-12 51 OFFCURVE",
"58 -15 OFFCURVE",
"171 -15 CURVE SMOOTH"
);
},
{
closed = 1;
nodes = (
"162 93 OFFCURVE",
"147 113 OFFCURVE",
"152 143 CURVE SMOOTH",
"160 185 OFFCURVE",
"196 199 OFFCURVE",
"300 226 CURVE SMOOTH",
"319 231 OFFCURVE",
"338 235 OFFCURVE",
"358 239 CURVE",
"354 221 LINE SMOOTH",
"345 171 OFFCURVE",
"309 127 OFFCURVE",
"272 110 CURVE SMOOTH",
"244 97 OFFCURVE",
"224 93 OFFCURVE",
"205 93 CURVE SMOOTH"
);
},
{
closed = 1;
nodes = (
"446 400 LINE",
"465 510 LINE",
"115 510 LINE",
"96 400 LINE"
);
}
);
width = 552;
}
);
leftKerningGroup = a;
rightKerningGroup = a;
},
{
glyphname = f.ss01;
lastChange = "2021-12-05 15:54:10 +0000";
layers = (
{
layerId = "3A3E882A-FD1E-4FEC-B6F3-0E8C1BCDAD39";
paths = (
{
closed = 1;
nodes = (
"135 0 LINE",
"257 700 LINE",
"172 700 LINE",
"50 0 LINE"
);
},
{
closed = 1;
nodes = (
"312 430 LINE",
"324 500 LINE",
"59 500 LINE",
"47 430 LINE"
);
},
{
closed = 1;
nodes = (
"388 620 LINE",
"402 700 LINE",
"172 700 LINE",
"158 620 LINE"
);
}
);
width = 338;
},
{
layerId = "541F4A62-0ECD-4B4B-B1D5-38FFB5FB401F";
paths = (
{
closed = 1;
nodes = (
"180 -20 LINE",
"310 720 LINE",
"165 720 LINE",
"35 -20 LINE"
);
},
{
closed = 1;
nodes = (
"358 410 LINE",
"375 510 LINE",
"50 510 LINE",
"33 410 LINE"
);
},
{
closed = 1;
nodes = (
"437 615 LINE",
"455 720 LINE",
"165 720 LINE",
"147 615 LINE"
);
}
);
width = 384;
}
);
leftKerningGroup = f;
rightKerningGroup = f;
},
{
glyphname = g.ss01;
lastChange = "2021-12-05 15:54:10 +0000";
layers = (
{
background = {
paths = (
{
closed = 1;
nodes = (
"38 59 OFFCURVE",
"162 -15 OFFCURVE",
"287 -15 CURVE SMOOTH",
"346 -15 OFFCURVE",
"406 13 OFFCURVE",
"450 64 CURVE",
"449 0 LINE",
"534 0 LINE",
"534 500 LINE",
"481 500 LINE",
"458 418 LINE",
"414 477 OFFCURVE",
"350 515 OFFCURVE",
"287 515 CURVE SMOOTH",
"144 515 OFFCURVE",
"38 396 OFFCURVE",
"38 250 CURVE SMOOTH"
);
},
{
closed = 1;
nodes = (
"121 356 OFFCURVE",
"180 440 OFFCURVE",
"285 440 CURVE SMOOTH",
"384 440 OFFCURVE",
"447 364 OFFCURVE",
"453 264 CURVE",
"452 232 LINE",
"446 133 OFFCURVE",
"383 60 OFFCURVE",
"285 60 CURVE SMOOTH",
"179 60 OFFCURVE",
"121 138 OFFCURVE",
"121 249 CURVE SMOOTH"
);
},
{
closed = 0;
nodes = (
"490 -30 LINE"
);
},
{
closed = 0;
nodes = (
"79 -34 LINE SMOOTH",
"79 -148 OFFCURVE",
"171 -240 OFFCURVE",
"285 -240 CURVE SMOOTH",
"398 -240 OFFCURVE",
"490 -148 OFFCURVE",
"490 -34 CURVE SMOOTH"
);
}
);
};
layerId = "3A3E882A-FD1E-4FEC-B6F3-0E8C1BCDAD39";
paths = (
{
closed = 1;
nodes = (
"290 -14 OFFCURVE",
"365 13 OFFCURVE",
"408 64 CURVE",
"393 -10 LINE",
"478 -10 LINE",
"555 426 LINE",
"473 426 LINE",
"438 227 LINE SMOOTH",
"421 131 OFFCURVE",
"339 56 OFFCURVE",
"241 56 CURVE SMOOTH",
"145 56 OFFCURVE",
"100 138 OFFCURVE",
"120 249 CURVE SMOOTH",
"139 356 OFFCURVE",
"209 425 OFFCURVE",
"304 425 CURVE SMOOTH",
"305 425 LINE",
"319 500 LINE",
"187 499 OFFCURVE",
"63 395 OFFCURVE",
"38 250 CURVE SMOOTH",
"5 59 OFFCURVE",
"116 -14 OFFCURVE",
"231 -14 CURVE SMOOTH"
);
},
{
closed = 1;
nodes = (
"310 -225 OFFCURVE",
"447 -184 OFFCURVE",
"478 -10 CURVE",
"393 -10 LINE",
"371 -137 OFFCURVE",
"278 -150 OFFCURVE",
"225 -150 CURVE SMOOTH",
"144 -150 OFFCURVE",
"118 -119 OFFCURVE",
"99 -85 CURVE",
"14 -122 LINE",
"46 -184 OFFCURVE",
"91 -225 OFFCURVE",
"212 -225 CURVE SMOOTH"
);
},
{
closed = 1;
nodes = (
"555 426 LINE",
"568 501 LINE",
"318 500 LINE",
"304 425 LINE"
);
}
);
width = 594;
},
{
layerId = "541F4A62-0ECD-4B4B-B1D5-38FFB5FB401F";
paths = (
{
closed = 1;
nodes = (
"292 -15 OFFCURVE",
"348 0 OFFCURVE",
"386 33 CURVE",
"380 0 LINE",
"526 5 LINE",
"602 436 LINE",
"460 436 LINE",
"427 247 LINE SMOOTH",
"409 145 OFFCURVE",
"343 100 OFFCURVE",
"264 100 CURVE SMOOTH",
"190 100 OFFCURVE",
"151 165 OFFCURVE",
"165 249 CURVE SMOOTH",
"182 346 OFFCURVE",
"239 395 OFFCURVE",
"315 395 CURVE SMOOTH",
"346 395 LINE",
"366 509 LINE",
"201 524 OFFCURVE",
"52 413 OFFCURVE",
"23 250 CURVE SMOOTH",
"-3 98 OFFCURVE",
"84 -15 OFFCURVE",
"246 -15 CURVE SMOOTH"
);
},
{
closed = 1;
nodes = (
"404 -225 OFFCURVE",
"504 -124 OFFCURVE",
"528 10 CURVE",
"381 8 LINE",
"369 -67 OFFCURVE",
"331 -110 OFFCURVE",
"247 -110 CURVE SMOOTH",
"172 -110 OFFCURVE",
"147 -89 OFFCURVE",
"119 -42 CURVE",
"-2 -95 LINE",
"37 -186 OFFCURVE",
"105 -225 OFFCURVE",
"227 -225 CURVE SMOOTH"
);
},
{
closed = 1;
nodes = (
"595 396 LINE",
"615 511 LINE",
"305 510 LINE",
"285 395 LINE"
);
}
);
width = 622;
},
{
associatedMasterId = "3A3E882A-FD1E-4FEC-B6F3-0E8C1BCDAD39";
background = {
paths = (
{
closed = 1;
nodes = (
"38 59 OFFCURVE",
"162 -15 OFFCURVE",
"287 -15 CURVE SMOOTH",
"346 -15 OFFCURVE",
"406 13 OFFCURVE",
"450 64 CURVE",
"449 0 LINE",
"534 0 LINE",
"534 500 LINE",
"481 500 LINE",
"458 418 LINE",
"414 477 OFFCURVE",
"350 515 OFFCURVE",
"287 515 CURVE SMOOTH",
"144 515 OFFCURVE",
"38 396 OFFCURVE",
"38 250 CURVE SMOOTH"
);
},
{
closed = 1;
nodes = (
"121 356 OFFCURVE",
"180 440 OFFCURVE",
"285 440 CURVE SMOOTH",
"384 440 OFFCURVE",
"447 364 OFFCURVE",
"453 264 CURVE",
"452 232 LINE",
"446 133 OFFCURVE",
"383 60 OFFCURVE",
"285 60 CURVE SMOOTH",
"179 60 OFFCURVE",
"121 138 OFFCURVE",
"121 249 CURVE SMOOTH"
);
},
{
closed = 0;
nodes = (
"490 -30 LINE"
);
},
{
closed = 0;
nodes = (
"79 -34 LINE SMOOTH",
"79 -148 OFFCURVE",
"171 -240 OFFCURVE",
"285 -240 CURVE SMOOTH",
"398 -240 OFFCURVE",
"490 -148 OFFCURVE",
"490 -34 CURVE SMOOTH"
);
}
);
};
layerId = "FB2009A9-0144-466E-ADF5-C615C3AEB447";
name = "Nov 18 21, 00:42";
paths = (
{
closed = 1;
nodes = (
"453 313 LINE",
"452 292 LINE SMOOTH",
"447 184 OFFCURVE",
"383 106 OFFCURVE",
"285 106 CURVE SMOOTH",
"179 106 OFFCURVE",
"121 158 OFFCURVE",
"121 269 CURVE SMOOTH",
"121 376 OFFCURVE",
"180 440 OFFCURVE",
"285 440 CURVE SMOOTH",
"287 440 OFFCURVE",
"288 440 OFFCURVE",
"290 440 CURVE",
"290 515 LINE",
"289 515 OFFCURVE",
"289 515 OFFCURVE",
"288 515 CURVE SMOOTH",
"145 515 OFFCURVE",
"39 416 OFFCURVE",
"39 270 CURVE SMOOTH",
"39 79 OFFCURVE",
"163 31 OFFCURVE",
"288 31 CURVE SMOOTH",
"347 31 OFFCURVE",
"407 53 OFFCURVE",
"451 104 CURVE",
"450 -10 LINE",
"535 -10 LINE",
"535 313 LINE"
);
},
{
closed = 0;
nodes = (
"490 -20 LINE"
);
},
{
closed = 1;
nodes = (
"90 -122 LINE",
"133 -184 OFFCURVE",
"185 -225 OFFCURVE",
"306 -225 CURVE SMOOTH",
"404 -225 OFFCURVE",
"534 -184 OFFCURVE",
"535 -10 CURVE",
"450 -10 LINE",
"450 -137 OFFCURVE",
"359 -150 OFFCURVE",
"306 -150 CURVE SMOOTH",
"225 -150 OFFCURVE",
"194 -119 OFFCURVE",
"168 -85 CURVE"
);
},
{
closed = 1;
nodes = (
"453 313 LINE",
"535 313 LINE",
"535 515 LINE",
"453 515 LINE"
);
},
{
closed = 1;
nodes = (
"290 440 LINE",
"610 440 LINE",
"610 515 LINE",
"290 515 LINE"
);
}
);
width = 606;
}
);
leftKerningGroup = g;
rightKerningGroup = g;
},
{
glyphname = h.ss01;
lastChange = "2021-12-05 15:54:10 +0000";
layers = (
{
layerId = "3A3E882A-FD1E-4FEC-B6F3-0E8C1BCDAD39";
paths = (
{
closed = 1;
nodes = (
"425 425 LINE",
"352 0 LINE",
"437 0 LINE",
"510 425 LINE"
);
},
{
closed = 1;
nodes = (
"188 438 LINE",
"188 438 OFFCURVE",
"188 438 OFFCURVE",
"188 438 CURVE",
"234 700 LINE",
"149 700 LINE",
"27 0 LINE",
"112 0 LINE",
"157 257 LINE SMOOTH",
"158 262 OFFCURVE",
"158 267 OFFCURVE",
"159 272 CURVE SMOOTH"
);
},
{
closed = 1;
nodes = (
"510 425 LINE",
"524 500 LINE",
"199 500 LINE",
"185 425 LINE"
);
}
);
width = 551;
},
{
layerId = "541F4A62-0ECD-4B4B-B1D5-38FFB5FB401F";
paths = (
{
closed = 1;
nodes = (
"406 435 LINE",
"330 0 LINE",
"475 0 LINE",
"551 435 LINE"
);
},
{
closed = 1;
nodes = (
"225 428 LINE",
"225 428 OFFCURVE",
"225 428 OFFCURVE",
"225 428 CURVE",
"274 700 LINE",
"129 700 LINE",
"5 0 LINE",
"150 0 LINE",
"195 257 LINE SMOOTH",
"196 262 OFFCURVE",
"198 267 OFFCURVE",
"199 272 CURVE SMOOTH"
);
},
{
closed = 1;
nodes = (
"545 395 LINE",
"565 510 LINE",
"180 510 LINE",
"160 395 LINE"
);
}
);
width = 590;
}
);
leftKerningGroup = h;
rightKerningGroup = h;
},
{
glyphname = m.ss01;
lastChange = "2021-12-05 15:54:10 +0000";
layers = (
{
layerId = "3A3E882A-FD1E-4FEC-B6F3-0E8C1BCDAD39";
paths = (
{
closed = 1;
nodes = (
"199 500 LINE",
"114 500 LINE",
"27 0 LINE",
"112 0 LINE"
);
},
{
closed = 1;
nodes = (
"510 500 LINE",
"425 500 LINE",
"338 0 LINE",
"423 0 LINE"
);
},
{
closed = 1;
nodes = (
"822 500 LINE",
"737 500 LINE",
"650 0 LINE",
"735 0 LINE"
);
},
{
closed = 1;
nodes = (
"723 425 LINE",
"737 500 LINE",
"199 500 LINE",
"185 425 LINE"
);
}
);
width = 847;
},
{
layerId = "541F4A62-0ECD-4B4B-B1D5-38FFB5FB401F";
paths = (
{
closed = 1;
nodes = (
"240 510 LINE",
"95 510 LINE",
"5 0 LINE",
"150 0 LINE"
);
},
{
closed = 1;
nodes = (
"551 510 LINE",
"406 510 LINE",
"316 0 LINE",
"461 0 LINE"
);
},
{
closed = 1;
nodes = (
"863 510 LINE",
"718 510 LINE",
"628 0 LINE",
"773 0 LINE"
);
},
{
closed = 1;
nodes = (
"758 395 LINE",
"778 510 LINE",
"180 510 LINE",
"160 395 LINE"
);
}
);
width = 868;
}
);
leftKerningGroup = m;
rightKerningGroup = m;
},
{
glyphname = n.ss01;
lastChange = "2021-12-05 15:54:10 +0000";
layers = (
{
layerId = "3A3E882A-FD1E-4FEC-B6F3-0E8C1BCDAD39";
paths = (
{
closed = 1;
nodes = (
"199 500 LINE",
"114 500 LINE",
"27 0 LINE",
"112 0 LINE"
);
},
{
closed = 1;
nodes = (
"524 500 LINE",
"439 500 LINE",
"352 0 LINE",
"437 0 LINE"
);
},
{
closed = 1;
nodes = (
"425 425 LINE",
"439 500 LINE",
"196 500 LINE",
"182 425 LINE"
);
}
);
width = 551;
},
{
associatedMasterId = "3A3E882A-FD1E-4FEC-B6F3-0E8C1BCDAD39";
layerId = "61EC8C2C-9DC9-41A3-AC52-05DA4A4B81F0";
name = "Nov 12 21, 13:16";
paths = (
{
closed = 1;
nodes = (
"164 0 LINE",
"164 269 LINE SMOOTH",
"164 376 OFFCURVE",
"214 432 OFFCURVE",
"295 432 CURVE SMOOTH",
"388 432 OFFCURVE",
"404 371 OFFCURVE",
"404 289 CURVE SMOOTH",
"404 0 LINE",
"488 0 LINE",
"488 314 LINE SMOOTH",
"488 427 OFFCURVE",
"439 515 OFFCURVE",
"328 515 CURVE SMOOTH",
"244 515 OFFCURVE",
"192 468 OFFCURVE",
"164 421 CURVE",
"142 500 LINE",
"80 500 LINE",
"80 0 LINE"
);
}
);
width = 558;
},
{
layerId = "541F4A62-0ECD-4B4B-B1D5-38FFB5FB401F";
paths = (
{
closed = 1;
nodes = (
"240 510 LINE",
"95 510 LINE",
"5 0 LINE",
"150 0 LINE"
);
},
{
closed = 1;
nodes = (
"565 510 LINE",
"420 510 LINE",
"330 0 LINE",
"475 0 LINE"
);
},
{
closed = 1;
nodes = (
"460 395 LINE",
"480 510 LINE",
"177 510 LINE",
"157 395 LINE"
);
}
);
width = 590;
}
);
leftKerningGroup = n;
rightKerningGroup = n;
},
{
glyphname = r.ss01;
lastChange = "2021-12-05 15:54:10 +0000";
layers = (
{
layerId = "3A3E882A-FD1E-4FEC-B6F3-0E8C1BCDAD39";
paths = (
{
closed = 1;
nodes = (
"199 500 LINE",
"114 500 LINE",
"27 0 LINE",
"112 0 LINE"
);
},
{
closed = 1;
nodes = (
"378 415 LINE",
"393 500 LINE",
"196 500 LINE",
"181 415 LINE"
);
}
);
width = 354;
},
{
layerId = "541F4A62-0ECD-4B4B-B1D5-38FFB5FB401F";
paths = (
{
closed = 1;
nodes = (
"240 510 LINE",
"95 510 LINE",
"5 0 LINE",
"150 0 LINE"
);
},
{
closed = 1;
nodes = (
"412 385 LINE",
"434 510 LINE",
"177 510 LINE",
"155 385 LINE"
);
}
);
width = 404;
}
);
leftKerningGroup = r;
rightKerningGroup = r;
},
{
glyphname = a.ss02;
lastChange = "2021-12-05 15:54:10 +0000";
layers = (
{
layerId = "3A3E882A-FD1E-4FEC-B6F3-0E8C1BCDAD39";
paths = (
{
closed = 1;
nodes = (
"12 104 OFFCURVE",
"96 -15 OFFCURVE",
"238 -15 CURVE SMOOTH",
"310 -15 OFFCURVE",
"389 33 OFFCURVE",
"431 92 CURVE",
"438 0 LINE",
"503 0 LINE",
"509 109 LINE",
"578 500 LINE",
"493 500 LINE",
"480 428 LINE",
"448 491 OFFCURVE",
"391 515 OFFCURVE",
"332 515 CURVE SMOOTH",
"207 515 OFFCURVE",
"72 441 OFFCURVE",
"38 250 CURVE SMOOTH"
);
},
{
closed = 1;
nodes = (
"141 362 OFFCURVE",
"211 440 OFFCURVE",
"318 440 CURVE SMOOTH",
"415 440 OFFCURVE",
"477 391 OFFCURVE",
"453 250 CURVE",
"436 150 OFFCURVE",
"359 60 OFFCURVE",
"251 60 CURVE SMOOTH",
"145 60 OFFCURVE",
"103 144 OFFCURVE",
"121 251 CURVE SMOOTH"
);
}
);
width = 617;
},
{
layerId = "541F4A62-0ECD-4B4B-B1D5-38FFB5FB401F";
paths = (
{
closed = 1;
nodes = (
"-1 74 OFFCURVE",
"93 -15 OFFCURVE",
"249 -15 CURVE SMOOTH",
"328 -15 OFFCURVE",
"391 19 OFFCURVE",
"428 73 CURVE",
"436 0 LINE",
"558 0 LINE",
"563 130 LINE",
"616 510 LINE",
"471 510 LINE",
"462 444 LINE",
"435 500 OFFCURVE",
"381 525 OFFCURVE",
"323 525 CURVE SMOOTH",
"174 525 OFFCURVE",
"49 430 OFFCURVE",
"24 255 CURVE SMOOTH"
);
},
{
closed = 1;
nodes = (
"177 352 OFFCURVE",
"236 410 OFFCURVE",
"320 410 CURVE SMOOTH",
"412 410 OFFCURVE",
"455 352 OFFCURVE",
"442 255 CURVE SMOOTH",
"429 162 OFFCURVE",
"365 100 OFFCURVE",
"283 100 CURVE SMOOTH",
"202 100 OFFCURVE",
"151 161 OFFCURVE",
"164 255 CURVE SMOOTH"
);
}
);
width = 636;
}
);
leftKerningGroup = a;
rightKerningGroup = a;
},
{
glyphname = l.ss02;
lastChange = "2021-12-05 15:54:10 +0000";
layers = (
{
layerId = "3A3E882A-FD1E-4FEC-B6F3-0E8C1BCDAD39";
paths = (
{
closed = 1;
nodes = (
"112 0 LINE",
"234 700 LINE",
"149 700 LINE",
"27 0 LINE"
);
},
{
closed = 1;
nodes = (
"176 0 LINE",
"189 80 LINE",
"40 80 LINE",
"27 0 LINE"
);
}
);
width = 235;
},
{
layerId = "541F4A62-0ECD-4B4B-B1D5-38FFB5FB401F";
paths = (
{
closed = 1;
nodes = (
"150 0 LINE",
"274 700 LINE",
"129 700 LINE",
"5 0 LINE"
);
},
{
closed = 1;
nodes = (
"212 0 LINE",
"232 115 LINE",
"25 115 LINE",
"5 0 LINE"
);
}
);
width = 277;
}
);
leftKerningGroup = l;
rightKerningGroup = l;
},
{
glyphname = t.ss02;
lastChange = "2021-12-05 16:06:10 +0000";
layers = (
{
layerId = "3A3E882A-FD1E-4FEC-B6F3-0E8C1BCDAD39";
paths = (
{
closed = 1;
nodes = (
"156 80 LINE",
"256 648 LINE",
"171 648 LINE",
"71 80 LINE"
);
},
{
closed = 1;
nodes = (
"247 0 LINE",
"260 80 LINE",
"71 80 LINE",
"58 0 LINE"
);
},
{
closed = 1;
nodes = (
"317 430 LINE",
"329 500 LINE",
"64 500 LINE",
"52 430 LINE"
);
}
);
width = 331;
},
{
layerId = "541F4A62-0ECD-4B4B-B1D5-38FFB5FB401F";
paths = (
{
closed = 1;
nodes = (
"209 80 LINE",
"310 658 LINE",
"165 658 LINE",
"64 80 LINE"
);
},
{
closed = 1;
nodes = (
"295 0 LINE",
"315 110 LINE",
"69 110 LINE",
"49 0 LINE"
);
},
{
closed = 1;
nodes = (
"366 410 LINE",
"383 510 LINE",
"58 510 LINE",
"41 410 LINE"
);
}
);
width = 365;
}
);
leftKerningGroup = t;
rightKerningGroup = t;
},
{
glyphname = u.ss02;
lastChange = "2021-12-05 15:54:10 +0000";
layers = (
{
layerId = "3A3E882A-FD1E-4FEC-B6F3-0E8C1BCDAD39";
paths = (
{
closed = 1;
nodes = (
"112 500 LINE",
"25 0 LINE",
"110 0 LINE",
"197 500 LINE"
);
},
{
closed = 1;
nodes = (
"437 500 LINE",
"350 0 LINE",
"435 0 LINE",
"522 500 LINE"
);
},
{
closed = 1;
nodes = (
"107 0 LINE",
"350 0 LINE",
"362 75 LINE",
"119 75 LINE"
);
}
);
width = 549;
},
{
layerId = "541F4A62-0ECD-4B4B-B1D5-38FFB5FB401F";
paths = (
{
closed = 1;
nodes = (
"95 510 LINE",
"5 0 LINE",
"150 0 LINE",
"240 510 LINE"
);
},
{
closed = 1;
nodes = (
"420 510 LINE",
"330 0 LINE",
"475 0 LINE",
"565 510 LINE"
);
},
{
closed = 1;
nodes = (
"87 0 LINE",
"390 0 LINE",
"410 115 LINE",
"107 115 LINE"
);
}
);
width = 571;
}
);
rightKerningGroup = u;
},
{
glyphname = y.ss02;
lastChange = "2021-12-05 15:54:10 +0000";
layers = (
{
layerId = "3A3E882A-FD1E-4FEC-B6F3-0E8C1BCDAD39";
paths = (
{
closed = 1;
nodes = (
"185 -217 LINE",
"224 0 LINE",
"493 500 LINE",
"396 500 LINE",
"199 99 LINE",
"136 500 LINE",
"44 500 LINE",
"139 0 LINE",
"114 -142 LINE",
"-6 -142 LINE",
"-20 -217 LINE"
);
}
);
width = 449;
},
{
layerId = "541F4A62-0ECD-4B4B-B1D5-38FFB5FB401F";
paths = (
{
closed = 1;
nodes = (
"252 -220 LINE",
"290 0 LINE",
"570 510 LINE",
"411 510 LINE",
"245 155 LINE",
"199 510 LINE",
"45 510 LINE",
"145 0 LINE",
"126 -110 LINE",
"3 -110 LINE",
"-16 -220 LINE"
);
}
);
width = 525;
}
);
leftKerningGroup = y;
rightKerningGroup = y;
},
{
glyphname = g.ss03;
lastChange = "2021-12-05 15:54:10 +0000";
layers = (
{
background = {
paths = (
{
closed = 1;
nodes = (
"38 59 OFFCURVE",
"162 -15 OFFCURVE",
"287 -15 CURVE SMOOTH",
"346 -15 OFFCURVE",
"406 13 OFFCURVE",
"450 64 CURVE",
"449 0 LINE",
"534 0 LINE",
"534 500 LINE",
"481 500 LINE",
"458 418 LINE",
"414 477 OFFCURVE",
"350 515 OFFCURVE",
"287 515 CURVE SMOOTH",
"144 515 OFFCURVE",
"38 396 OFFCURVE",
"38 250 CURVE SMOOTH"
);
},
{
closed = 1;
nodes = (
"121 356 OFFCURVE",
"180 440 OFFCURVE",
"285 440 CURVE SMOOTH",
"384 440 OFFCURVE",
"447 364 OFFCURVE",
"453 264 CURVE",
"452 232 LINE",
"446 133 OFFCURVE",
"383 60 OFFCURVE",
"285 60 CURVE SMOOTH",
"179 60 OFFCURVE",
"121 138 OFFCURVE",
"121 249 CURVE SMOOTH"
);
},
{
closed = 0;
nodes = (
"490 -30 LINE"
);
},
{
closed = 0;
nodes = (
"79 -34 LINE SMOOTH",
"79 -148 OFFCURVE",
"171 -240 OFFCURVE",
"285 -240 CURVE SMOOTH",
"398 -240 OFFCURVE",
"490 -148 OFFCURVE",
"490 -34 CURVE SMOOTH"
);
}
);
};
layerId = "3A3E882A-FD1E-4FEC-B6F3-0E8C1BCDAD39";
paths = (
{
closed = 1;
nodes = (
"300 -15 OFFCURVE",
"365 13 OFFCURVE",
"418 64 CURVE",
"406 0 LINE",
"491 0 LINE",
"578 500 LINE",
"525 500 LINE",
"487 418 LINE",
"454 477 OFFCURVE",
"397 515 OFFCURVE",
"334 515 CURVE SMOOTH",
"191 515 OFFCURVE",
"63 396 OFFCURVE",
"38 250 CURVE SMOOTH",
"5 59 OFFCURVE",
"116 -15 OFFCURVE",
"241 -15 CURVE SMOOTH"
);
},
{
closed = 1;
nodes = (
"367 -217 LINE",
"381 -142 LINE",
"90 -142 LINE",
"76 -217 LINE"
);
},
{
closed = 1;
nodes = (
"452 -217 LINE",
"491 0 LINE",
"406 0 LINE",
"367 -217 LINE"
);
},
{
closed = 1;
nodes = (
"145 60 OFFCURVE",
"100 138 OFFCURVE",
"120 249 CURVE SMOOTH",
"139 356 OFFCURVE",
"213 440 OFFCURVE",
"318 440 CURVE SMOOTH",
"417 440 OFFCURVE",
"466 364 OFFCURVE",
"455 264 CURVE",
"448 232 LINE SMOOTH",
"424 133 OFFCURVE",
"349 60 OFFCURVE",
"251 60 CURVE SMOOTH"
);
}
);
width = 605;
},
{
layerId = "541F4A62-0ECD-4B4B-B1D5-38FFB5FB401F";
paths = (
{
closed = 1;
nodes = (
"327 -15 OFFCURVE",
"371 20 OFFCURVE",
"400 57 CURVE",
"390 0 LINE",
"535 0 LINE",
"625 510 LINE",
"517 510 LINE",
"495 462 LINE",
"458 501 OFFCURVE",
"409 525 OFFCURVE",
"355 525 CURVE SMOOTH",
"198 525 OFFCURVE",
"52 410 OFFCURVE",
"23 250 CURVE SMOOTH",
"-7 75 OFFCURVE",
"90 -15 OFFCURVE",
"250 -15 CURVE SMOOTH"
);
},
{
closed = 1;
nodes = (
"412 -220 LINE",
"431 -110 LINE",
"80 -110 LINE",
"61 -220 LINE"
);
},
{
closed = 1;
nodes = (
"497 -220 LINE",
"535 0 LINE",
"390 0 LINE",
"352 -220 LINE"
);
},
{
closed = 1;
nodes = (
"205 102 OFFCURVE",
"145 144 OFFCURVE",
"163 249 CURVE SMOOTH",
"181 352 OFFCURVE",
"261 410 OFFCURVE",
"332 410 CURVE SMOOTH",
"409 410 OFFCURVE",
"456 352 OFFCURVE",
"437 250 CURVE",
"437 249 LINE SMOOTH",
"419 144 OFFCURVE",
"355 102 OFFCURVE",
"278 102 CURVE SMOOTH"
);
}
);
width = 632;
},
{
associatedMasterId = "3A3E882A-FD1E-4FEC-B6F3-0E8C1BCDAD39";
background = {
paths = (
{
closed = 1;
nodes = (
"38 59 OFFCURVE",
"162 -15 OFFCURVE",
"287 -15 CURVE SMOOTH",
"346 -15 OFFCURVE",
"406 13 OFFCURVE",
"450 64 CURVE",
"449 0 LINE",
"534 0 LINE",
"534 500 LINE",
"481 500 LINE",
"458 418 LINE",
"414 477 OFFCURVE",
"350 515 OFFCURVE",
"287 515 CURVE SMOOTH",
"144 515 OFFCURVE",
"38 396 OFFCURVE",
"38 250 CURVE SMOOTH"
);
},
{
closed = 1;
nodes = (
"121 356 OFFCURVE",
"180 440 OFFCURVE",
"285 440 CURVE SMOOTH",
"384 440 OFFCURVE",
"447 364 OFFCURVE",
"453 264 CURVE",
"452 232 LINE",
"446 133 OFFCURVE",
"383 60 OFFCURVE",
"285 60 CURVE SMOOTH",
"179 60 OFFCURVE",
"121 138 OFFCURVE",
"121 249 CURVE SMOOTH"
);
},
{
closed = 0;
nodes = (
"490 -30 LINE"
);
},
{
closed = 0;
nodes = (
"79 -34 LINE SMOOTH",
"79 -148 OFFCURVE",
"171 -240 OFFCURVE",
"285 -240 CURVE SMOOTH",
"398 -240 OFFCURVE",
"490 -148 OFFCURVE",
"490 -34 CURVE SMOOTH"
);
}
);
};
layerId = "34868933-FA0D-4B30-BB69-66B6BD4AC2DA";
name = "Nov 21 21, 01:45";
paths = (
{
closed = 1;
nodes = (
"39 59 OFFCURVE",
"163 -15 OFFCURVE",
"288 -15 CURVE SMOOTH",
"347 -15 OFFCURVE",
"407 13 OFFCURVE",
"451 64 CURVE",
"450 0 LINE",
"535 0 LINE",
"535 500 LINE",
"482 500 LINE",
"459 418 LINE",
"415 477 OFFCURVE",
"351 515 OFFCURVE",
"288 515 CURVE SMOOTH",
"145 515 OFFCURVE",
"39 396 OFFCURVE",
"39 250 CURVE SMOOTH"
);
},
{
closed = 1;
nodes = (
"121 356 OFFCURVE",
"180 440 OFFCURVE",
"285 440 CURVE SMOOTH",
"384 440 OFFCURVE",
"447 364 OFFCURVE",
"453 264 CURVE",
"452 232 LINE SMOOTH",
"446 133 OFFCURVE",
"383 60 OFFCURVE",
"285 60 CURVE SMOOTH",
"179 60 OFFCURVE",
"121 138 OFFCURVE",
"121 249 CURVE SMOOTH"
);
},
{
closed = 0;
nodes = (
"490 -10 LINE"
);
},
{
closed = 1;
nodes = (
"450 -217 LINE",
"450 -142 LINE",
"159 -142 LINE",
"159 -217 LINE"
);
},
{
closed = 1;
nodes = (
"450 -217 LINE",
"535 -217 LINE",
"535 0 LINE",
"450 0 LINE"
);
}
);
width = 606;
}
);
leftKerningGroup = g;
rightKerningGroup = g;
},
{
glyphname = j.ss03;
lastChange = "2021-12-05 15:54:10 +0000";
layers = (
{
layerId = "3A3E882A-FD1E-4FEC-B6F3-0E8C1BCDAD39";
paths = (
{
closed = 1;
nodes = (
"128 -35 LINE",
"222 500 LINE",
"137 500 LINE",
"43 -35 LINE"
);
},
{
closed = 1;
nodes = (
"11 -220 LINE",
"23 -145 LINE",
"-128 -145 LINE",
"-140 -220 LINE"
);
},
{
closed = 1;
nodes = (
"11 -220 LINE",
"96 -220 LINE",
"133 -3 LINE",
"48 -3 LINE"
);
},
{
closed = 1;
nodes = (
"231 593 OFFCURVE",
"265 622 OFFCURVE",
"271 657 CURVE SMOOTH",
"278 692 OFFCURVE",
"255 722 OFFCURVE",
"219 722 CURVE SMOOTH",
"183 722 OFFCURVE",
"149 693 OFFCURVE",
"142 657 CURVE SMOOTH",
"136 620 OFFCURVE",
"163 593 OFFCURVE",
"196 593 CURVE SMOOTH"
);
}
);
width = 259;
},
{
layerId = "541F4A62-0ECD-4B4B-B1D5-38FFB5FB401F";
paths = (
{
closed = 1;
nodes = (
"172 -50 LINE",
"271 510 LINE",
"126 510 LINE",
"27 -50 LINE"
);
},
{
closed = 1;
nodes = (
"57 -224 LINE",
"76 -114 LINE",
"-135 -114 LINE",
"-154 -224 LINE"
);
},
{
closed = 1;
nodes = (
"-3 -224 LINE",
"142 -224 LINE",
"185 22 LINE",
"40 22 LINE"
);
},
{
closed = 1;
nodes = (
"250 546 OFFCURVE",
"297 585 OFFCURVE",
"304 630 CURVE SMOOTH",
"312 676 OFFCURVE",
"281 715 OFFCURVE",
"235 715 CURVE SMOOTH",
"188 715 OFFCURVE",
"143 677 OFFCURVE",
"135 630 CURVE SMOOTH",
"127 584 OFFCURVE",
"159 546 OFFCURVE",
"205 546 CURVE SMOOTH"
);
}
);
width = 275;
}
);
leftKerningGroup = j;
rightKerningGroup = j;
},
{
glyphname = q.ss03;
lastChange = "2021-12-05 15:54:10 +0000";
layers = (
{
layerId = "3A3E882A-FD1E-4FEC-B6F3-0E8C1BCDAD39";
paths = (
{
closed = 1;
nodes = (
"5 59 OFFCURVE",
"116 -15 OFFCURVE",
"241 -15 CURVE SMOOTH",
"300 -15 OFFCURVE",
"365 13 OFFCURVE",
"418 64 CURVE",
"371 -195 LINE",
"456 -195 LINE",
"578 500 LINE",
"525 500 LINE",
"487 418 LINE",
"454 477 OFFCURVE",
"397 515 OFFCURVE",
"334 515 CURVE SMOOTH",
"191 515 OFFCURVE",
"63 396 OFFCURVE",
"38 250 CURVE SMOOTH"
);
},
{
closed = 1;
nodes = (
"140 356 OFFCURVE",
"214 440 OFFCURVE",
"319 440 CURVE SMOOTH",
"418 440 OFFCURVE",
"467 364 OFFCURVE",
"456 264 CURVE",
"449 232 LINE",
"425 133 OFFCURVE",
"350 60 OFFCURVE",
"252 60 CURVE SMOOTH",
"146 60 OFFCURVE",
"101 138 OFFCURVE",
"121 249 CURVE SMOOTH"
);
},
{
closed = 1;
nodes = (
"520 -195 LINE",
"535 -115 LINE",
"386 -115 LINE",
"371 -195 LINE"
);
}
);
width = 594;
},
{
layerId = "541F4A62-0ECD-4B4B-B1D5-38FFB5FB401F";
paths = (
{
closed = 1;
nodes = (
"-6 80 OFFCURVE",
"108 -15 OFFCURVE",
"266 -15 CURVE SMOOTH",
"320 -15 OFFCURVE",
"380 10 OFFCURVE",
"410 46 CURVE",
"368 -185 LINE",
"513 -185 LINE",
"635 510 LINE",
"527 510 LINE",
"502 442 LINE",
"483 498 OFFCURVE",
"405 525 OFFCURVE",
"361 525 CURVE SMOOTH",
"204 525 OFFCURVE",
"53 415 OFFCURVE",
"24 255 CURVE SMOOTH"
);
},
{
closed = 1;
nodes = (
"182 357 OFFCURVE",
"253 405 OFFCURVE",
"334 405 CURVE SMOOTH",
"411 405 OFFCURVE",
"470 352 OFFCURVE",
"450 255 CURVE",
"450 255 LINE",
"433 164 OFFCURVE",
"358 105 OFFCURVE",
"282 105 CURVE SMOOTH",
"201 105 OFFCURVE",
"149 169 OFFCURVE",
"164 254 CURVE SMOOTH"
);
},
{
closed = 1;
nodes = (
"577 -185 LINE",
"598 -65 LINE",
"389 -65 LINE",
"368 -185 LINE"
);
}
);
width = 645;
}
);
leftKerningGroup = q;
},
{
glyphname = u.ss03;
lastChange = "2021-12-05 15:54:10 +0000";
layers = (
{
layerId = "3A3E882A-FD1E-4FEC-B6F3-0E8C1BCDAD39";
paths = (
{
closed = 1;
nodes = (
"112 500 LINE",
"25 0 LINE",
"110 0 LINE",
"197 500 LINE"
);
},
{
closed = 1;
nodes = (
"437 500 LINE",
"350 0 LINE",
"435 0 LINE",
"522 500 LINE"
);
},
{
closed = 1;
nodes = (
"107 0 LINE",
"350 0 LINE",
"362 75 LINE",
"119 75 LINE"
);
}
);
width = 549;
},
{
layerId = "541F4A62-0ECD-4B4B-B1D5-38FFB5FB401F";
paths = (
{
closed = 1;
nodes = (
"95 510 LINE",
"5 0 LINE",
"150 0 LINE",
"240 510 LINE"
);
},
{
closed = 1;
nodes = (
"420 510 LINE",
"330 0 LINE",
"475 0 LINE",
"565 510 LINE"
);
},
{
closed = 1;
nodes = (
"87 0 LINE",
"390 0 LINE",
"410 115 LINE",
"107 115 LINE"
);
}
);
width = 571;
}
);
rightKerningGroup = u;
},
{
glyphname = f_f;
lastChange = "2021-12-05 15:54:10 +0000";
layers = (
{
layerId = "3A3E882A-FD1E-4FEC-B6F3-0E8C1BCDAD39";
paths = (
{
closed = 1;
nodes = (
"135 0 LINE",
"232 557 LINE",
"147 557 LINE",
"50 0 LINE"
);
},
{
closed = 1;
nodes = (
"371 430 LINE",
"383 500 LINE",
"59 500 LINE",
"47 430 LINE"
);
},
{
closed = 1;
nodes = (
"459 0 LINE",
"556 555 LINE",
"471 555 LINE",
"374 0 LINE"
);
},
{
closed = 1;
nodes = (
"232 557 LINE",
"247 635 OFFCURVE",
"265 640 OFFCURVE",
"343 640 CURVE SMOOTH",
"407 640 LINE",
"424 713 LINE",
"347 714 LINE SMOOTH",
"263 715 OFFCURVE",
"210 706 OFFCURVE",
"180 657 CURVE SMOOTH",
"167 634 OFFCURVE",
"154 595 OFFCURVE",
"147 557 CURVE"
);
},
{
closed = 1;
nodes = (
"641 430 LINE",
"653 500 LINE",
"383 500 LINE",
"371 430 LINE"
);
},
{
closed = 1;
nodes = (
"556 555 LINE",
"571 633 OFFCURVE",
"589 638 OFFCURVE",
"666 638 CURVE SMOOTH",
"684 638 LINE",
"702 711 LINE",
"671 712 LINE SMOOTH",
"588 715 OFFCURVE",
"534 704 OFFCURVE",
"504 655 CURVE SMOOTH",
"491 632 OFFCURVE",
"478 593 OFFCURVE",
"471 555 CURVE"
);
}
);
width = 646;
},
{
layerId = "541F4A62-0ECD-4B4B-B1D5-38FFB5FB401F";
paths = (
{
closed = 1;
nodes = (
"183 0 LINE",
"284 577 LINE",
"139 577 LINE",
"38 0 LINE"
);
},
{
closed = 1;
nodes = (
"417 410 LINE",
"434 510 LINE",
"50 510 LINE",
"33 410 LINE"
);
},
{
closed = 1;
nodes = (
"567 0 LINE",
"668 575 LINE",
"523 575 LINE",
"422 0 LINE"
);
},
{
closed = 1;
nodes = (
"278 537 LINE",
"290 598 OFFCURVE",
"303 610 OFFCURVE",
"356 610 CURVE SMOOTH",
"449 610 LINE",
"475 713 LINE",
"367 714 LINE SMOOTH",
"279 715 OFFCURVE",
"205 702 OFFCURVE",
"170 645 CURVE SMOOTH",
"152 616 OFFCURVE",
"141 591 OFFCURVE",
"133 537 CURVE"
);
},
{
closed = 1;
nodes = (
"747 410 LINE",
"764 510 LINE",
"434 510 LINE",
"417 410 LINE"
);
},
{
closed = 1;
nodes = (
"662 535 LINE",
"671 596 OFFCURVE",
"666 608 OFFCURVE",
"740 608 CURVE SMOOTH",
"787 608 LINE",
"813 715 LINE",
"752 715 LINE SMOOTH",
"649 715 OFFCURVE",
"585 695 OFFCURVE",
"554 643 CURVE SMOOTH",
"536 614 OFFCURVE",
"525 589 OFFCURVE",
"517 535 CURVE"
);
}
);
width = 752;
}
);
leftKerningGroup = f;
rightKerningGroup = f;
},
{
glyphname = f_i;
lastChange = "2021-12-05 15:54:10 +0000";
layers = (
{
layerId = "3A3E882A-FD1E-4FEC-B6F3-0E8C1BCDAD39";
paths = (
{
closed = 1;
nodes = (
"382 0 LINE",
"467 0 LINE",
"554 500 LINE",
"402 500 LINE",
"390 430 LINE",
"457 430 LINE"
);
},
{
closed = 1;
nodes = (
"135 0 LINE",
"232 557 LINE",
"147 557 LINE",
"50 0 LINE"
);
},
{
closed = 1;
nodes = (
"390 430 LINE",
"402 500 LINE",
"59 500 LINE",
"47 430 LINE"
);
},
{
closed = 1;
nodes = (
"232 557 LINE",
"247 635 OFFCURVE",
"265 640 OFFCURVE",
"343 640 CURVE SMOOTH",
"407 640 LINE",
"424 713 LINE",
"347 714 LINE SMOOTH",
"263 715 OFFCURVE",
"210 706 OFFCURVE",
"180 657 CURVE SMOOTH",
"167 634 OFFCURVE",
"154 595 OFFCURVE",
"147 557 CURVE"
);
},
{
closed = 1;
nodes = (
"563 593 OFFCURVE",
"597 622 OFFCURVE",
"603 657 CURVE SMOOTH",
"610 692 OFFCURVE",
"587 722 OFFCURVE",
"551 722 CURVE SMOOTH",
"515 722 OFFCURVE",
"481 693 OFFCURVE",
"474 657 CURVE SMOOTH",
"468 620 OFFCURVE",
"495 593 OFFCURVE",
"528 593 CURVE SMOOTH"
);
}
);
width = 591;
},
{
layerId = "541F4A62-0ECD-4B4B-B1D5-38FFB5FB401F";
paths = (
{
closed = 1;
nodes = (
"424 0 LINE",
"569 0 LINE",
"659 510 LINE",
"447 510 LINE",
"430 410 LINE",
"497 410 LINE"
);
},
{
closed = 1;
nodes = (
"183 0 LINE",
"284 577 LINE",
"139 577 LINE",
"38 0 LINE"
);
},
{
closed = 1;
nodes = (
"430 410 LINE",
"447 510 LINE",
"50 510 LINE",
"33 410 LINE"
);
},
{
closed = 1;
nodes = (
"278 537 LINE",
"290 598 OFFCURVE",
"302 610 OFFCURVE",
"356 610 CURVE SMOOTH",
"449 610 LINE",
"475 713 LINE",
"367 714 LINE SMOOTH",
"279 715 OFFCURVE",
"205 702 OFFCURVE",
"170 645 CURVE SMOOTH",
"152 616 OFFCURVE",
"141 591 OFFCURVE",
"133 537 CURVE"
);
},
{
closed = 1;
nodes = (
"639 546 OFFCURVE",
"686 585 OFFCURVE",
"693 630 CURVE SMOOTH",
"701 676 OFFCURVE",
"670 715 OFFCURVE",
"624 715 CURVE SMOOTH",
"577 715 OFFCURVE",
"532 677 OFFCURVE",
"524 630 CURVE SMOOTH",
"516 584 OFFCURVE",
"548 546 OFFCURVE",
"594 546 CURVE SMOOTH"
);
}
);
width = 657;
}
);
leftKerningGroup = f;
rightKerningGroup = i;
},
{
glyphname = f_l;
lastChange = "2021-12-05 15:54:10 +0000";
layers = (
{
layerId = "3A3E882A-FD1E-4FEC-B6F3-0E8C1BCDAD39";
paths = (
{
closed = 1;
nodes = (
"513 81 LINE",
"452 84 OFFCURVE",
"451 90 OFFCURVE",
"462 152 CURVE SMOOTH",
"558 700 LINE",
"473 700 LINE",
"377 152 LINE SMOOTH",
"371 118 OFFCURVE",
"362 74 OFFCURVE",
"372 45 CURVE SMOOTH",
"386 6 OFFCURVE",
"418 -2 OFFCURVE",
"500 0 CURVE"
);
},
{
closed = 1;
nodes = (
"135 0 LINE",
"232 557 LINE",
"147 557 LINE",
"50 0 LINE"
);
},
{
closed = 1;
nodes = (
"317 430 LINE",
"329 500 LINE",
"59 500 LINE",
"47 430 LINE"
);
},
{
closed = 1;
nodes = (
"232 557 LINE",
"247 635 OFFCURVE",
"268 640 OFFCURVE",
"343 640 CURVE SMOOTH",
"545 640 LINE",
"562 713 LINE",
"347 714 LINE SMOOTH",
"264 714 OFFCURVE",
"210 706 OFFCURVE",
"180 657 CURVE SMOOTH",
"167 634 OFFCURVE",
"154 595 OFFCURVE",
"147 557 CURVE"
);
}
);
width = 559;
},
{
layerId = "541F4A62-0ECD-4B4B-B1D5-38FFB5FB401F";
paths = (
{
closed = 1;
nodes = (
"627 118 LINE",
"572 118 OFFCURVE",
"568 118 OFFCURVE",
"577 172 CURVE SMOOTH",
"674 720 LINE",
"529 720 LINE",
"432 172 LINE SMOOTH",
"422 109 OFFCURVE",
"419 79 OFFCURVE",
"429 52 CURVE SMOOTH",
"445 5 OFFCURVE",
"492 -5 OFFCURVE",
"606 1 CURVE"
);
},
{
closed = 1;
nodes = (
"183 0 LINE",
"284 577 LINE",
"139 577 LINE",
"38 0 LINE"
);
},
{
closed = 1;
nodes = (
"363 410 LINE",
"380 510 LINE",
"50 510 LINE",
"33 410 LINE"
);
},
{
closed = 1;
nodes = (
"278 537 LINE",
"289 597 OFFCURVE",
"284 607 OFFCURVE",
"356 607 CURVE SMOOTH",
"594 607 LINE",
"614 720 LINE",
"368 721 LINE SMOOTH",
"282 721 OFFCURVE",
"208 723 OFFCURVE",
"173 665 CURVE SMOOTH",
"156 636 OFFCURVE",
"141 591 OFFCURVE",
"133 537 CURVE"
);
}
);
width = 671;
}
);
leftKerningGroup = f;
rightKerningGroup = l;
},
{
glyphname = f_t;
lastChange = "2021-12-05 15:54:10 +0000";
layers = (
{
layerId = "3A3E882A-FD1E-4FEC-B6F3-0E8C1BCDAD39";
paths = (
{
closed = 1;
nodes = (
"576 0 LINE",
"588 75 LINE",
"560 73 LINE SMOOTH",
"478 67 OFFCURVE",
"483 94 OFFCURVE",
"494 156 CURVE SMOOTH",
"580 648 LINE",
"495 648 LINE",
"409 156 LINE SMOOTH",
"403 122 OFFCURVE",
"393 73 OFFCURVE",
"403 44 CURVE SMOOTH",
"418 1 OFFCURVE",
"458 0 OFFCURVE",
"560 0 CURVE SMOOTH"
);
},
{
closed = 1;
nodes = (
"135 0 LINE",
"232 557 LINE",
"147 557 LINE",
"50 0 LINE"
);
},
{
closed = 1;
nodes = (
"376 430 LINE",
"388 500 LINE",
"59 500 LINE",
"47 430 LINE"
);
},
{
closed = 1;
nodes = (
"232 557 LINE",
"247 635 OFFCURVE",
"265 640 OFFCURVE",
"343 640 CURVE SMOOTH",
"407 640 LINE",
"424 713 LINE",
"347 714 LINE SMOOTH",
"263 715 OFFCURVE",
"210 706 OFFCURVE",
"180 657 CURVE SMOOTH",
"167 634 OFFCURVE",
"154 595 OFFCURVE",
"147 557 CURVE"
);
},
{
closed = 1;
nodes = (
"646 430 LINE",
"658 500 LINE",
"388 500 LINE",
"376 430 LINE"
);
}
);
width = 660;
},
{
layerId = "541F4A62-0ECD-4B4B-B1D5-38FFB5FB401F";
paths = (
{
closed = 1;
nodes = (
"709 0 LINE",
"729 115 LINE",
"669 115 LINE",
"625 115 OFFCURVE",
"622 123 OFFCURVE",
"631 176 CURVE SMOOTH",
"716 658 LINE",
"571 658 LINE",
"486 176 LINE SMOOTH",
"475 110 OFFCURVE",
"473 82 OFFCURVE",
"482 55 CURVE SMOOTH",
"501 2 OFFCURVE",
"561 0 OFFCURVE",
"663 0 CURVE SMOOTH"
);
},
{
closed = 1;
nodes = (
"183 0 LINE",
"280 550 LINE",
"135 550 LINE",
"38 0 LINE"
);
},
{
closed = 1;
nodes = (
"452 410 LINE",
"469 510 LINE",
"50 510 LINE",
"33 410 LINE"
);
},
{
closed = 1;
nodes = (
"273 510 LINE",
"287 581 OFFCURVE",
"285 610 OFFCURVE",
"356 610 CURVE SMOOTH",
"449 610 LINE",
"475 713 LINE",
"367 714 LINE SMOOTH",
"279 715 OFFCURVE",
"204 702 OFFCURVE",
"169 645 CURVE SMOOTH",
"151 616 OFFCURVE",
"137 564 OFFCURVE",
"128 510 CURVE"
);
},
{
closed = 1;
nodes = (
"777 410 LINE",
"794 510 LINE",
"464 510 LINE",
"447 410 LINE"
);
}
);
width = 778;
}
);
leftKerningGroup = f;
rightKerningGroup = t;
},
{
glyphname = t_i;
lastChange = "2021-12-05 16:07:10 +0000";
layers = (
{
layerId = "3A3E882A-FD1E-4FEC-B6F3-0E8C1BCDAD39";
paths = (
{
closed = 1;
nodes = (
"252 0 LINE",
"264 75 LINE",
"236 73 LINE SMOOTH",
"154 67 OFFCURVE",
"159 94 OFFCURVE",
"170 156 CURVE SMOOTH",
"256 648 LINE",
"171 648 LINE",
"85 156 LINE SMOOTH",
"79 122 OFFCURVE",
"69 73 OFFCURVE",
"79 44 CURVE SMOOTH",
"94 1 OFFCURVE",
"134 0 OFFCURVE",
"236 0 CURVE SMOOTH"
);
},
{
closed = 1;
nodes = (
"390 430 LINE",
"402 500 LINE",
"64 500 LINE",
"52 430 LINE"
);
},
{
closed = 1;
nodes = (
"467 0 LINE",
"554 500 LINE",
"402 500 LINE",
"390 430 LINE",
"457 430 LINE",
"382 0 LINE"
);
},
{
closed = 1;
nodes = (
"563 593 OFFCURVE",
"597 622 OFFCURVE",
"603 657 CURVE SMOOTH",
"610 692 OFFCURVE",
"587 722 OFFCURVE",
"551 722 CURVE SMOOTH",
"515 722 OFFCURVE",
"481 693 OFFCURVE",
"474 657 CURVE SMOOTH",
"468 620 OFFCURVE",
"495 593 OFFCURVE",
"528 593 CURVE SMOOTH"
);
}
);
width = 591;
},
{
layerId = "541F4A62-0ECD-4B4B-B1D5-38FFB5FB401F";
paths = (
{
closed = 1;
nodes = (
"303 0 LINE",
"324 117 LINE",
"264 117 LINE",
"215 117 OFFCURVE",
"217 124 OFFCURVE",
"225 176 CURVE SMOOTH",
"310 658 LINE",
"165 658 LINE",
"80 176 LINE SMOOTH",
"69 110 OFFCURVE",
"67 82 OFFCURVE",
"76 55 CURVE SMOOTH",
"95 2 OFFCURVE",
"155 0 OFFCURVE",
"257 0 CURVE SMOOTH"
);
},
{
closed = 1;
nodes = (
"449 410 LINE",
"466 510 LINE",
"58 510 LINE",
"41 410 LINE"
);
},
{
closed = 1;
nodes = (
"573 0 LINE",
"663 510 LINE",
"466 510 LINE",
"449 410 LINE",
"501 410 LINE",
"428 0 LINE"
);
},
{
closed = 1;
nodes = (
"641 546 OFFCURVE",
"688 585 OFFCURVE",
"695 630 CURVE SMOOTH",
"703 676 OFFCURVE",
"672 715 OFFCURVE",
"626 715 CURVE SMOOTH",
"579 715 OFFCURVE",
"534 677 OFFCURVE",
"526 630 CURVE SMOOTH",
"518 584 OFFCURVE",
"550 546 OFFCURVE",
"596 546 CURVE SMOOTH"
);
}
);
width = 659;
}
);
leftKerningGroup = t;
rightKerningGroup = i;
},
{
glyphname = t_t;
lastChange = "2021-12-05 15:54:10 +0000";
layers = (
{
layerId = "3A3E882A-FD1E-4FEC-B6F3-0E8C1BCDAD39";
paths = (
{
closed = 1;
nodes = (
"589 0 LINE",
"601 75 LINE",
"573 73 LINE SMOOTH",
"491 67 OFFCURVE",
"496 94 OFFCURVE",
"507 156 CURVE SMOOTH",
"593 648 LINE",
"508 648 LINE",
"422 156 LINE SMOOTH",
"416 122 OFFCURVE",
"406 73 OFFCURVE",
"416 44 CURVE SMOOTH",
"431 1 OFFCURVE",
"471 0 OFFCURVE",
"573 0 CURVE SMOOTH"
);
},
{
closed = 1;
nodes = (
"252 0 LINE",
"264 75 LINE",
"236 73 LINE SMOOTH",
"154 67 OFFCURVE",
"159 94 OFFCURVE",
"170 156 CURVE SMOOTH",
"256 648 LINE",
"171 648 LINE",
"85 156 LINE SMOOTH",
"79 122 OFFCURVE",
"69 73 OFFCURVE",
"79 44 CURVE SMOOTH",
"94 1 OFFCURVE",
"134 0 OFFCURVE",
"236 0 CURVE SMOOTH"
);
},
{
closed = 1;
nodes = (
"389 430 LINE",
"401 500 LINE",
"64 500 LINE",
"52 430 LINE"
);
},
{
closed = 1;
nodes = (
"659 430 LINE",
"671 500 LINE",
"401 500 LINE",
"389 430 LINE"
);
}
);
width = 673;
},
{
layerId = "541F4A62-0ECD-4B4B-B1D5-38FFB5FB401F";
paths = (
{
closed = 1;
nodes = (
"713 0 LINE",
"733 115 LINE",
"673 115 LINE",
"637 115 OFFCURVE",
"625 116 OFFCURVE",
"635 176 CURVE SMOOTH",
"720 658 LINE",
"575 658 LINE",
"490 176 LINE SMOOTH",
"479 110 OFFCURVE",
"477 82 OFFCURVE",
"486 55 CURVE SMOOTH",
"505 2 OFFCURVE",
"565 0 OFFCURVE",
"667 0 CURVE SMOOTH"
);
},
{
closed = 1;
nodes = (
"303 0 LINE",
"323 115 LINE",
"263 115 LINE",
"218 115 OFFCURVE",
"217 126 OFFCURVE",
"225 176 CURVE SMOOTH",
"310 658 LINE",
"165 658 LINE",
"80 176 LINE SMOOTH",
"69 110 OFFCURVE",
"67 82 OFFCURVE",
"76 55 CURVE SMOOTH",
"95 2 OFFCURVE",
"155 0 OFFCURVE",
"257 0 CURVE SMOOTH"
);
},
{
closed = 1;
nodes = (
"451 410 LINE",
"468 510 LINE",
"58 510 LINE",
"41 410 LINE"
);
},
{
closed = 1;
nodes = (
"781 410 LINE",
"798 510 LINE",
"468 510 LINE",
"451 410 LINE"
);
}
);
width = 782;
}
);
leftKerningGroup = t;
rightKerningGroup = t;
},
{
glyphname = f_f.ss01;
lastChange = "2021-12-05 15:54:10 +0000";
layers = (
{
layerId = "3A3E882A-FD1E-4FEC-B6F3-0E8C1BCDAD39";
paths = (
{
closed = 1;
nodes = (
"405 715 LINE",
"175 715 LINE",
"137 500 LINE",
"59 500 LINE",
"47 430 LINE",
"125 430 LINE",
"50 0 LINE",
"135 0 LINE",
"210 430 LINE",
"371 430 LINE",
"383 500 LINE",
"222 500 LINE",
"246 635 LINE",
"391 635 LINE"
);
},
{
closed = 1;
nodes = (
"729 715 LINE",
"499 715 LINE",
"461 500 LINE",
"383 500 LINE",
"371 430 LINE",
"449 430 LINE",
"374 0 LINE",
"459 0 LINE",
"534 430 LINE",
"636 430 LINE",
"648 500 LINE",
"546 500 LINE",
"570 635 LINE",
"715 635 LINE"
);
}
);
width = 672;
},
{
layerId = "541F4A62-0ECD-4B4B-B1D5-38FFB5FB401F";
paths = (
{
closed = 1;
nodes = (
"454 715 LINE",
"164 715 LINE",
"128 510 LINE",
"50 510 LINE",
"33 410 LINE",
"111 410 LINE",
"38 0 LINE",
"183 0 LINE",
"256 410 LINE",
"417 410 LINE",
"434 510 LINE",
"273 510 LINE",
"292 615 LINE",
"437 615 LINE"
);
},
{
closed = 1;
nodes = (
"818 715 LINE",
"528 715 LINE",
"492 510 LINE",
"414 510 LINE",
"397 410 LINE",
"475 410 LINE",
"402 0 LINE",
"547 0 LINE",
"620 410 LINE",
"722 410 LINE",
"739 510 LINE",
"637 510 LINE",
"656 615 LINE",
"801 615 LINE"
);
}
);
width = 758;
}
);
leftKerningGroup = f;
rightKerningGroup = f;
},
{
glyphname = f_i.ss01;
lastChange = "2021-12-05 15:54:10 +0000";
layers = (
{
layerId = "3A3E882A-FD1E-4FEC-B6F3-0E8C1BCDAD39";
paths = (
{
closed = 1;
nodes = (
"382 0 LINE",
"467 0 LINE",
"554 500 LINE",
"402 500 LINE",
"390 430 LINE",
"457 430 LINE"
);
},
{
closed = 1;
nodes = (
"563 593 OFFCURVE",
"597 622 OFFCURVE",
"603 657 CURVE SMOOTH",
"610 692 OFFCURVE",
"587 722 OFFCURVE",
"551 722 CURVE SMOOTH",
"515 722 OFFCURVE",
"481 693 OFFCURVE",
"474 657 CURVE SMOOTH",
"468 620 OFFCURVE",
"495 593 OFFCURVE",
"528 593 CURVE SMOOTH"
);
},
{
closed = 1;
nodes = (
"405 715 LINE",
"175 715 LINE",
"137 500 LINE",
"59 500 LINE",
"47 430 LINE",
"125 430 LINE",
"50 0 LINE",
"135 0 LINE",
"210 430 LINE",
"390 430 LINE",
"402 500 LINE",
"222 500 LINE",
"246 635 LINE",
"391 635 LINE"
);
}
);
width = 591;
},
{
layerId = "541F4A62-0ECD-4B4B-B1D5-38FFB5FB401F";
paths = (
{
closed = 1;
nodes = (
"424 0 LINE",
"569 0 LINE",
"659 510 LINE",
"447 510 LINE",
"430 410 LINE",
"497 410 LINE"
);
},
{
closed = 1;
nodes = (
"639 546 OFFCURVE",
"686 585 OFFCURVE",
"693 630 CURVE SMOOTH",
"701 676 OFFCURVE",
"670 715 OFFCURVE",
"624 715 CURVE SMOOTH",
"577 715 OFFCURVE",
"532 677 OFFCURVE",
"524 630 CURVE SMOOTH",
"516 584 OFFCURVE",
"548 546 OFFCURVE",
"594 546 CURVE SMOOTH"
);
},
{
closed = 1;
nodes = (
"474 715 LINE",
"164 715 LINE",
"128 510 LINE",
"50 510 LINE",
"33 410 LINE",
"111 410 LINE",
"38 0 LINE",
"183 0 LINE",
"256 410 LINE",
"430 410 LINE",
"447 510 LINE",
"273 510 LINE",
"292 615 LINE",
"457 615 LINE"
);
}
);
width = 657;
}
);
leftKerningGroup = f;
rightKerningGroup = i;
},
{
glyphname = f_l.ss01;
lastChange = "2021-12-05 15:54:10 +0000";
layers = (
{
layerId = "3A3E882A-FD1E-4FEC-B6F3-0E8C1BCDAD39";
paths = (
{
closed = 1;
nodes = (
"513 81 LINE",
"452 84 OFFCURVE",
"451 90 OFFCURVE",
"462 152 CURVE SMOOTH",
"558 700 LINE",
"473 700 LINE",
"377 152 LINE SMOOTH",
"371 118 OFFCURVE",
"362 74 OFFCURVE",
"372 45 CURVE SMOOTH",
"386 6 OFFCURVE",
"418 -2 OFFCURVE",
"500 0 CURVE"
);
},
{
closed = 1;
nodes = (
"561 715 LINE",
"175 715 LINE",
"137 500 LINE",
"59 500 LINE",
"47 430 LINE",
"125 430 LINE",
"50 0 LINE",
"135 0 LINE",
"210 430 LINE",
"312 430 LINE",
"324 500 LINE",
"222 500 LINE",
"246 635 LINE",
"547 635 LINE"
);
}
);
width = 559;
},
{
layerId = "541F4A62-0ECD-4B4B-B1D5-38FFB5FB401F";
paths = (
{
closed = 1;
nodes = (
"627 118 LINE",
"572 118 OFFCURVE",
"568 118 OFFCURVE",
"577 172 CURVE SMOOTH",
"673 715 LINE",
"528 715 LINE",
"432 172 LINE SMOOTH",
"422 109 OFFCURVE",
"419 79 OFFCURVE",
"429 52 CURVE SMOOTH",
"445 5 OFFCURVE",
"492 -5 OFFCURVE",
"606 1 CURVE"
);
},
{
closed = 1;
nodes = (
"673 715 LINE",
"164 715 LINE",
"128 510 LINE",
"50 510 LINE",
"33 410 LINE",
"111 410 LINE",
"38 0 LINE",
"183 0 LINE",
"256 410 LINE",
"358 410 LINE",
"375 510 LINE",
"273 510 LINE",
"292 615 LINE",
"656 615 LINE"
);
}
);
width = 671;
}
);
leftKerningGroup = f;
rightKerningGroup = l;
},
{
glyphname = f_t.ss01;
lastChange = "2021-12-05 15:54:10 +0000";
layers = (
{
layerId = "3A3E882A-FD1E-4FEC-B6F3-0E8C1BCDAD39";
paths = (
{
closed = 1;
nodes = (
"404 714 LINE",
"174 714 LINE",
"137 500 LINE",
"59 500 LINE",
"47 430 LINE",
"125 430 LINE",
"50 0 LINE",
"135 0 LINE",
"210 430 LINE",
"376 430 LINE",
"388 500 LINE",
"222 500 LINE",
"246 634 LINE",
"391 634 LINE"
);
},
{
closed = 1;
nodes = (
"480 80 LINE",
"580 648 LINE",
"495 648 LINE",
"395 80 LINE"
);
},
{
closed = 1;
nodes = (
"577 0 LINE",
"590 80 LINE",
"395 80 LINE",
"382 0 LINE"
);
},
{
closed = 1;
nodes = (
"646 430 LINE",
"658 500 LINE",
"388 500 LINE",
"376 430 LINE"
);
}
);
width = 661;
},
{
layerId = "541F4A62-0ECD-4B4B-B1D5-38FFB5FB401F";
paths = (
{
closed = 1;
nodes = (
"454 715 LINE",
"164 715 LINE",
"128 510 LINE",
"50 510 LINE",
"33 410 LINE",
"111 410 LINE",
"38 0 LINE",
"183 0 LINE",
"256 410 LINE",
"417 410 LINE",
"434 510 LINE",
"273 510 LINE",
"292 615 LINE",
"437 615 LINE"
);
},
{
closed = 1;
nodes = (
"585 80 LINE",
"686 658 LINE",
"541 658 LINE",
"440 80 LINE"
);
},
{
closed = 1;
nodes = (
"675 0 LINE",
"695 110 LINE",
"445 110 LINE",
"425 0 LINE"
);
},
{
closed = 1;
nodes = (
"747 410 LINE",
"764 510 LINE",
"434 510 LINE",
"417 410 LINE"
);
}
);
width = 745;
}
);
leftKerningGroup = f;
rightKerningGroup = t;
},
{
glyphname = t_i.ss01;
lastChange = "2021-12-05 15:54:10 +0000";
layers = (
{
layerId = "3A3E882A-FD1E-4FEC-B6F3-0E8C1BCDAD39";
paths = (
{
closed = 1;
nodes = (
"467 0 LINE",
"554 500 LINE",
"402 500 LINE",
"390 430 LINE",
"457 430 LINE",
"382 0 LINE"
);
},
{
closed = 1;
nodes = (
"563 593 OFFCURVE",
"597 622 OFFCURVE",
"603 657 CURVE SMOOTH",
"610 692 OFFCURVE",
"587 722 OFFCURVE",
"551 722 CURVE SMOOTH",
"515 722 OFFCURVE",
"481 693 OFFCURVE",
"474 657 CURVE SMOOTH",
"468 620 OFFCURVE",
"495 593 OFFCURVE",
"528 593 CURVE SMOOTH"
);
},
{
closed = 1;
nodes = (
"218 430 LINE",
"390 430 LINE",
"402 500 LINE",
"230 500 LINE",
"256 648 LINE",
"171 648 LINE",
"145 500 LINE",
"64 500 LINE",
"52 430 LINE",
"133 430 LINE",
"58 0 LINE",
"253 0 LINE",
"266 80 LINE",
"156 80 LINE"
);
}
);
width = 591;
},
{
layerId = "541F4A62-0ECD-4B4B-B1D5-38FFB5FB401F";
paths = (
{
closed = 1;
nodes = (
"573 0 LINE",
"663 510 LINE",
"466 510 LINE",
"449 410 LINE",
"501 410 LINE",
"428 0 LINE"
);
},
{
closed = 1;
nodes = (
"641 546 OFFCURVE",
"688 585 OFFCURVE",
"695 630 CURVE SMOOTH",
"703 676 OFFCURVE",
"672 715 OFFCURVE",
"626 715 CURVE SMOOTH",
"579 715 OFFCURVE",
"534 677 OFFCURVE",
"526 630 CURVE SMOOTH",
"518 584 OFFCURVE",
"550 546 OFFCURVE",
"596 546 CURVE SMOOTH"
);
},
{
closed = 1;
nodes = (
"267 410 LINE",
"449 410 LINE",
"466 510 LINE",
"284 510 LINE",
"310 658 LINE",
"165 658 LINE",
"139 510 LINE",
"58 510 LINE",
"41 410 LINE",
"122 410 LINE",
"49 0 LINE",
"299 0 LINE",
"319 110 LINE",
"214 110 LINE"
);
}
);
width = 659;
}
);
leftKerningGroup = t;
rightKerningGroup = i;
},
{
glyphname = t_t.ss01;
lastChange = "2021-12-05 15:54:10 +0000";
layers = (
{
layerId = "3A3E882A-FD1E-4FEC-B6F3-0E8C1BCDAD39";
paths = (
{
closed = 1;
nodes = (
"218 430 LINE",
"389 430 LINE",
"401 500 LINE",
"230 500 LINE",
"256 648 LINE",
"171 648 LINE",
"145 500 LINE",
"64 500 LINE",
"52 430 LINE",
"133 430 LINE",
"58 0 LINE",
"253 0 LINE",
"266 80 LINE",
"156 80 LINE"
);
},
{
closed = 1;
nodes = (
"555 430 LINE",
"659 430 LINE",
"671 500 LINE",
"567 500 LINE",
"593 648 LINE",
"508 648 LINE",
"482 500 LINE",
"401 500 LINE",
"389 430 LINE",
"470 430 LINE",
"395 0 LINE",
"590 0 LINE",
"603 80 LINE",
"493 80 LINE"
);
}
);
width = 674;
},
{
layerId = "541F4A62-0ECD-4B4B-B1D5-38FFB5FB401F";
paths = (
{
closed = 1;
nodes = (
"267 410 LINE",
"451 410 LINE",
"468 510 LINE",
"284 510 LINE",
"310 658 LINE",
"165 658 LINE",
"139 510 LINE",
"58 510 LINE",
"41 410 LINE",
"122 410 LINE",
"49 0 LINE",
"299 0 LINE",
"319 110 LINE",
"214 110 LINE"
);
},
{
closed = 1;
nodes = (
"677 410 LINE",
"781 410 LINE",
"798 510 LINE",
"694 510 LINE",
"720 658 LINE",
"575 658 LINE",
"549 510 LINE",
"468 510 LINE",
"451 410 LINE",
"532 410 LINE",
"459 0 LINE",
"709 0 LINE",
"729 110 LINE",
"624 110 LINE"
);
}
);
width = 779;
}
);
leftKerningGroup = t;
rightKerningGroup = t;
},
{
glyphname = zero;
lastChange = "2021-12-05 10:36:32 +0000";
layers = (
{
background = {
paths = (
{
closed = 1;
nodes = (
"544 -15 OFFCURVE",
"618 148 OFFCURVE",
"618 349 CURVE SMOOTH",
"618 545 OFFCURVE",
"547 715 OFFCURVE",
"329 715 CURVE SMOOTH",
"116 715 OFFCURVE",
"41 548 OFFCURVE",
"41 349 CURVE SMOOTH",
"41 153 OFFCURVE",
"112 -15 OFFCURVE",
"329 -15 CURVE SMOOTH"
);
},
{
closed = 1;
nodes = (
"172 65 OFFCURVE",
"137 196 OFFCURVE",
"137 349 CURVE SMOOTH",
"137 501 OFFCURVE",
"171 635 OFFCURVE",
"329 635 CURVE SMOOTH",
"487 635 OFFCURVE",
"522 503 OFFCURVE",
"522 349 CURVE SMOOTH",
"522 195 OFFCURVE",
"488 65 OFFCURVE",
"329 65 CURVE SMOOTH"
);
},
{
closed = 1;
nodes = (
"144 544 LINE",
"190 624 LINE",
"515 159 LINE",
"470 76 LINE"
);
}
);
};
layerId = "3A3E882A-FD1E-4FEC-B6F3-0E8C1BCDAD39";
paths = (
{
closed = 1;
nodes = (
"495 -15 OFFCURVE",
"587 148 OFFCURVE",
"615 349 CURVE SMOOTH",
"643 545 OFFCURVE",
"601 715 OFFCURVE",
"398 715 CURVE SMOOTH",
"200 715 OFFCURVE",
"106 548 OFFCURVE",
"78 349 CURVE SMOOTH",
"50 153 OFFCURVE",
"93 -15 OFFCURVE",
"295 -15 CURVE SMOOTH"
);
},
{
closed = 1;
nodes = (
"164 65 OFFCURVE",
"150 196 OFFCURVE",
"172 349 CURVE SMOOTH",
"193 501 OFFCURVE",
"243 635 OFFCURVE",
"386 635 CURVE SMOOTH",
"529 635 OFFCURVE",
"542 503 OFFCURVE",
"521 349 CURVE SMOOTH",
"499 195 OFFCURVE",
"450 65 OFFCURVE",
"306 65 CURVE SMOOTH"
);
},
{
closed = 1;
nodes = (
"505 159 LINE",
"245 624 LINE",
"189 544 LINE",
"448 76 LINE"
);
}
);
width = 658;
},
{
layerId = "541F4A62-0ECD-4B4B-B1D5-38FFB5FB401F";
paths = (
{
closed = 1;
nodes = (
"505 -15 OFFCURVE",
"625 101 OFFCURVE",
"659 349 CURVE SMOOTH",
"694 598 OFFCURVE",
"606 715 OFFCURVE",
"412 715 CURVE SMOOTH",
"220 715 OFFCURVE",
"97 596 OFFCURVE",
"62 349 CURVE SMOOTH",
"28 101 OFFCURVE",
"116 -15 OFFCURVE",
"310 -15 CURVE SMOOTH"
);
},
{
closed = 1;
nodes = (
"228 105 OFFCURVE",
"182 167 OFFCURVE",
"207 349 CURVE SMOOTH",
"233 532 OFFCURVE",
"297 595 OFFCURVE",
"395 595 CURVE SMOOTH",
"494 595 OFFCURVE",
"540 533 OFFCURVE",
"514 349 CURVE SMOOTH",
"489 166 OFFCURVE",
"426 105 OFFCURVE",
"326 105 CURVE SMOOTH"
);
},
{
closed = 1;
nodes = (
"537 160 LINE",
"262 652 LINE",
"184 543 LINE",
"460 48 LINE"
);
}
);
width = 677;
}
);
unicode = 0030;
},
{
glyphname = one;
lastChange = "2021-12-05 10:36:32 +0000";
layers = (
{
layerId = "3A3E882A-FD1E-4FEC-B6F3-0E8C1BCDAD39";
paths = (
{
closed = 1;
nodes = (
"92 536 LINE",
"258 536 LINE",
"165 0 LINE",
"250 0 LINE",
"372 700 LINE",
"315 700 LINE",
"286 645 OFFCURVE",
"240 619 OFFCURVE",
"183 610 CURVE SMOOTH",
"160 606 OFFCURVE",
"130 604 OFFCURVE",
"104 603 CURVE"
);
}
);
width = 392;
},
{
background = {
paths = (
{
closed = 1;
nodes = (
"33 516 LINE",
"199 516 LINE",
"199 -20 LINE",
"344 -20 LINE",
"344 720 LINE",
"233 720 LINE",
"218 665 OFFCURVE",
"190 639 OFFCURVE",
"136 630 CURVE SMOOTH",
"111 625 OFFCURVE",
"78 623 OFFCURVE",
"33 622 CURVE"
);
}
);
};
layerId = "541F4A62-0ECD-4B4B-B1D5-38FFB5FB401F";
paths = (
{
closed = 1;
nodes = (
"92 509 LINE",
"248 509 LINE",
"158 0 LINE",
"303 0 LINE",
"427 700 LINE",
"316 700 LINE",
"291 645 OFFCURVE",
"260 629 OFFCURVE",
"204 620 CURVE SMOOTH",
"179 616 OFFCURVE",
"155 613 OFFCURVE",
"110 612 CURVE"
);
}
);
width = 447;
}
);
unicode = 0031;
},
{
glyphname = two;
lastChange = "2021-12-05 10:36:32 +0000";
layers = (
{
layerId = "3A3E882A-FD1E-4FEC-B6F3-0E8C1BCDAD39";
paths = (
{
closed = 1;
nodes = (
"466 0 LINE",
"476 77 LINE",
"135 77 LINE",
"311 178 OFFCURVE",
"512 319 OFFCURVE",
"534 485 CURVE SMOOTH",
"556 633 OFFCURVE",
"478 714 OFFCURVE",
"336 714 CURVE SMOOTH",
"219 714 OFFCURVE",
"125 653 OFFCURVE",
"88 556 CURVE",
"167 518 LINE",
"196 613 OFFCURVE",
"260 634 OFFCURVE",
"323 634 CURVE SMOOTH",
"402 634 OFFCURVE",
"461 599 OFFCURVE",
"445 484 CURVE SMOOTH",
"433 397 OFFCURVE",
"353 320 OFFCURVE",
"218 223 CURVE",
"5 75 LINE",
"-5 0 LINE"
);
}
);
width = 544;
},
{
layerId = "541F4A62-0ECD-4B4B-B1D5-38FFB5FB401F";
paths = (
{
closed = 1;
nodes = (
"525 0 LINE",
"541 115 LINE",
"236 115 LINE",
"458 246 OFFCURVE",
"575 346 OFFCURVE",
"593 475 CURVE SMOOTH",
"615 630 OFFCURVE",
"529 714 OFFCURVE",
"366 714 CURVE SMOOTH",
"231 714 OFFCURVE",
"118 640 OFFCURVE",
"82 527 CURVE",
"204 464 LINE",
"225 558 OFFCURVE",
"271 594 OFFCURVE",
"347 594 CURVE SMOOTH",
"424 594 OFFCURVE",
"460 553 OFFCURVE",
"448 474 CURVE SMOOTH",
"437 400 OFFCURVE",
"378 362 OFFCURVE",
"230 256 CURVE",
"9 100 LINE",
"-6 0 LINE"
);
}
);
width = 609;
}
);
unicode = 0032;
},
{
glyphname = three;
lastChange = "2021-12-05 10:36:32 +0000";
layers = (
{
layerId = "3A3E882A-FD1E-4FEC-B6F3-0E8C1BCDAD39";
paths = (
{
closed = 1;
nodes = (
"357 -12 OFFCURVE",
"490 56 OFFCURVE",
"513 188 CURVE SMOOTH",
"529 279 OFFCURVE",
"502 340 OFFCURVE",
"397 371 CURVE",
"472 390 OFFCURVE",
"541 457 OFFCURVE",
"557 545 CURVE SMOOTH",
"575 652 OFFCURVE",
"489 715 OFFCURVE",
"361 715 CURVE SMOOTH",
"238 715 OFFCURVE",
"146 652 OFFCURVE",
"106 557 CURVE",
"182 523 LINE",
"207 590 OFFCURVE",
"265 645 OFFCURVE",
"346 645 CURVE SMOOTH",
"417 645 OFFCURVE",
"480 608 OFFCURVE",
"467 536 CURVE SMOOTH",
"450 437 OFFCURVE",
"335 407 OFFCURVE",
"246 407 CURVE",
"232 331 LINE",
"345 331 OFFCURVE",
"441 290 OFFCURVE",
"423 187 CURVE SMOOTH",
"408 104 OFFCURVE",
"329 63 OFFCURVE",
"241 63 CURVE SMOOTH",
"156 63 OFFCURVE",
"115 106 OFFCURVE",
"112 175 CURVE",
"25 151 LINE",
"34 45 OFFCURVE",
"106 -12 OFFCURVE",
"226 -12 CURVE SMOOTH"
);
}
);
width = 584;
},
{
layerId = "541F4A62-0ECD-4B4B-B1D5-38FFB5FB401F";
paths = (
{
closed = 1;
nodes = (
"413 -15 OFFCURVE",
"547 75 OFFCURVE",
"569 205 CURVE SMOOTH",
"585 295 OFFCURVE",
"554 332 OFFCURVE",
"479 367 CURVE",
"546 403 OFFCURVE",
"594 452 OFFCURVE",
"607 525 CURVE SMOOTH",
"626 638 OFFCURVE",
"534 715 OFFCURVE",
"384 715 CURVE SMOOTH",
"247 715 OFFCURVE",
"134 643 OFFCURVE",
"92 527 CURVE",
"225 489 LINE",
"242 554 OFFCURVE",
"295 605 OFFCURVE",
"362 605 CURVE SMOOTH",
"429 605 OFFCURVE",
"466 570 OFFCURVE",
"457 516 CURVE SMOOTH",
"444 440 OFFCURVE",
"364 423 OFFCURVE",
"252 423 CURVE",
"231 305 LINE",
"369 305 OFFCURVE",
"434 290 OFFCURVE",
"419 204 CURVE SMOOTH",
"408 139 OFFCURVE",
"353 100 OFFCURVE",
"270 100 CURVE SMOOTH",
"196 100 OFFCURVE",
"164 138 OFFCURVE",
"168 221 CURVE",
"20 180 LINE",
"22 57 OFFCURVE",
"108 -15 OFFCURVE",
"249 -15 CURVE SMOOTH"
);
}
);
width = 629;
}
);
unicode = 0033;
},
{
glyphname = four;
lastChange = "2021-12-05 10:36:32 +0000";
layers = (
{
layerId = "3A3E882A-FD1E-4FEC-B6F3-0E8C1BCDAD39";
paths = (
{
closed = 1;
nodes = (
"412 0 LINE",
"442 175 LINE",
"559 175 LINE",
"572 254 LINE",
"455 254 LINE",
"534 700 LINE",
"449 700 LINE",
"39 254 LINE",
"26 175 LINE",
"358 175 LINE",
"328 0 LINE"
);
},
{
closed = 1;
nodes = (
"430 585 LINE",
"371 254 LINE",
"130 254 LINE"
);
}
);
width = 610;
},
{
layerId = "541F4A62-0ECD-4B4B-B1D5-38FFB5FB401F";
paths = (
{
closed = 1;
nodes = (
"455 0 LINE",
"484 160 LINE",
"580 160 LINE",
"599 270 LINE",
"503 270 LINE",
"579 700 LINE",
"445 700 LINE",
"27 278 LINE",
"7 160 LINE",
"339 160 LINE",
"310 0 LINE"
);
},
{
closed = 1;
nodes = (
"400 509 LINE",
"358 270 LINE",
"184 270 LINE"
);
}
);
width = 631;
}
);
unicode = 0034;
},
{
glyphname = five;
lastChange = "2021-12-05 10:36:32 +0000";
layers = (
{
layerId = "3A3E882A-FD1E-4FEC-B6F3-0E8C1BCDAD39";
paths = (
{
closed = 1;
nodes = (
"373 -15 OFFCURVE",
"501 78 OFFCURVE",
"526 220 CURVE SMOOTH",
"550 359 OFFCURVE",
"484 467 OFFCURVE",
"350 467 CURVE SMOOTH",
"295 467 OFFCURVE",
"228 452 OFFCURVE",
"187 417 CURVE",
"246 620 LINE",
"551 620 LINE",
"565 700 LINE",
"192 700 LINE",
"89 345 LINE",
"167 321 LINE",
"187 354 OFFCURVE",
"249 395 OFFCURVE",
"318 395 CURVE SMOOTH",
"413 395 OFFCURVE",
"457 324 OFFCURVE",
"439 219 CURVE SMOOTH",
"423 128 OFFCURVE",
"333 55 OFFCURVE",
"249 55 CURVE SMOOTH",
"162 55 OFFCURVE",
"126 102 OFFCURVE",
"123 175 CURVE",
"37 151 LINE",
"49 43 OFFCURVE",
"128 -15 OFFCURVE",
"238 -15 CURVE SMOOTH"
);
}
);
width = 593;
},
{
layerId = "541F4A62-0ECD-4B4B-B1D5-38FFB5FB401F";
paths = (
{
closed = 1;
nodes = (
"415 -15 OFFCURVE",
"552 94 OFFCURVE",
"578 240 CURVE SMOOTH",
"601 377 OFFCURVE",
"543 498 OFFCURVE",
"387 498 CURVE SMOOTH",
"337 498 OFFCURVE",
"292 484 OFFCURVE",
"253 456 CURVE",
"292 585 LINE",
"594 585 LINE",
"614 700 LINE",
"191 700 LINE",
"81 333 LINE",
"202 293 LINE",
"215 338 OFFCURVE",
"276 375 OFFCURVE",
"333 375 CURVE SMOOTH",
"407 375 OFFCURVE",
"446 316 OFFCURVE",
"433 239 CURVE SMOOTH",
"419 161 OFFCURVE",
"345 100 OFFCURVE",
"276 100 CURVE SMOOTH",
"203 100 OFFCURVE",
"171 135 OFFCURVE",
"175 224 CURVE",
"28 183 LINE",
"32 61 OFFCURVE",
"122 -15 OFFCURVE",
"256 -15 CURVE SMOOTH"
);
}
);
width = 628;
}
);
unicode = 0035;
},
{
glyphname = six;
lastChange = "2021-12-05 10:36:32 +0000";
layers = (
{
layerId = "3A3E882A-FD1E-4FEC-B6F3-0E8C1BCDAD39";
paths = (
{
closed = 1;
nodes = (
"403 -12 OFFCURVE",
"521 87 OFFCURVE",
"543 218 CURVE SMOOTH",
"567 348 OFFCURVE",
"499 465 OFFCURVE",
"372 465 CURVE SMOOTH",
"283 465 OFFCURVE",
"208 414 OFFCURVE",
"166 352 CURVE",
"203 542 OFFCURVE",
"287 645 OFFCURVE",
"391 645 CURVE SMOOTH",
"444 645 OFFCURVE",
"480 622 OFFCURVE",
"494 583 CURVE",
"583 608 LINE",
"565 668 OFFCURVE",
"513 715 OFFCURVE",
"414 715 CURVE SMOOTH",
"214 715 OFFCURVE",
"114 549 OFFCURVE",
"71 310 CURVE SMOOTH",
"35 105 OFFCURVE",
"101 -12 OFFCURVE",
"268 -12 CURVE SMOOTH"
);
},
{
closed = 1;
nodes = (
"192 59 OFFCURVE",
"136 123 OFFCURVE",
"152 215 CURVE SMOOTH",
"168 307 OFFCURVE",
"239 386 OFFCURVE",
"338 386 CURVE SMOOTH",
"426 386 OFFCURVE",
"474 307 OFFCURVE",
"458 215 CURVE SMOOTH",
"442 123 OFFCURVE",
"369 59 OFFCURVE",
"281 59 CURVE SMOOTH"
);
}
);
width = 609;
},
{
layerId = "541F4A62-0ECD-4B4B-B1D5-38FFB5FB401F";
paths = (
{
closed = 1;
nodes = (
"432 -15 OFFCURVE",
"570 93 OFFCURVE",
"595 235 CURVE SMOOTH",
"622 385 OFFCURVE",
"527 489 OFFCURVE",
"389 489 CURVE SMOOTH",
"323 489 OFFCURVE",
"275 472 OFFCURVE",
"224 418 CURVE",
"247 552 OFFCURVE",
"333 605 OFFCURVE",
"403 605 CURVE SMOOTH",
"451 605 OFFCURVE",
"486 584 OFFCURVE",
"496 536 CURVE",
"634 587 LINE",
"609 673 OFFCURVE",
"540 715 OFFCURVE",
"433 715 CURVE SMOOTH",
"233 715 OFFCURVE",
"112 599 OFFCURVE",
"64 327 CURVE SMOOTH",
"25 107 OFFCURVE",
"99 -15 OFFCURVE",
"281 -15 CURVE SMOOTH"
);
},
{
closed = 1;
nodes = (
"230 95 OFFCURVE",
"190 152 OFFCURVE",
"204 232 CURVE SMOOTH",
"219 321 OFFCURVE",
"278 373 OFFCURVE",
"352 373 CURVE SMOOTH",
"419 373 OFFCURVE",
"465 317 OFFCURVE",
"450 232 CURVE SMOOTH",
"436 151 OFFCURVE",
"376 95 OFFCURVE",
"304 95 CURVE SMOOTH"
);
}
);
width = 653;
}
);
unicode = 0036;
},
{
glyphname = seven;
lastChange = "2021-12-05 10:36:32 +0000";
layers = (
{
layerId = "3A3E882A-FD1E-4FEC-B6F3-0E8C1BCDAD39";
paths = (
{
closed = 1;
nodes = (
"156 0 LINE",
"556 642 LINE",
"566 700 LINE",
"94 700 LINE",
"80 620 LINE",
"499 620 LINE",
"478 663 LINE",
"52 0 LINE"
);
}
);
width = 521;
},
{
layerId = "541F4A62-0ECD-4B4B-B1D5-38FFB5FB401F";
paths = (
{
closed = 1;
nodes = (
"206 0 LINE",
"611 620 LINE",
"626 700 LINE",
"94 700 LINE",
"72 580 LINE",
"567 580 LINE",
"509 699 LINE",
"40 0 LINE"
);
}
);
width = 576;
}
);
unicode = 0037;
},
{
glyphname = eight;
lastChange = "2021-12-05 10:36:32 +0000";
layers = (
{
layerId = "3A3E882A-FD1E-4FEC-B6F3-0E8C1BCDAD39";
paths = (
{
closed = 1;
nodes = (
"382 -16 OFFCURVE",
"519 66 OFFCURVE",
"545 194 CURVE SMOOTH",
"563 281 OFFCURVE",
"533 361 OFFCURVE",
"464 390 CURVE",
"505 423 OFFCURVE",
"540 472 OFFCURVE",
"552 526 CURVE SMOOTH",
"576 633 OFFCURVE",
"522 714 OFFCURVE",
"407 714 CURVE SMOOTH",
"296 714 OFFCURVE",
"209 633 OFFCURVE",
"185 526 CURVE SMOOTH",
"173 472 OFFCURVE",
"186 423 OFFCURVE",
"215 390 CURVE",
"136 361 OFFCURVE",
"68 281 OFFCURVE",
"50 194 CURVE SMOOTH",
"23 60 OFFCURVE",
"115 -16 OFFCURVE",
"255 -16 CURVE SMOOTH"
);
},
{
closed = 1;
nodes = (
"286 417 OFFCURVE",
"246 465 OFFCURVE",
"259 526 CURVE SMOOTH",
"273 595 OFFCURVE",
"334 639 OFFCURVE",
"393 639 CURVE SMOOTH",
"452 639 OFFCURVE",
"491 595 OFFCURVE",
"478 526 CURVE SMOOTH",
"466 465 OFFCURVE",
"404 417 OFFCURVE",
"345 417 CURVE SMOOTH"
);
},
{
closed = 1;
nodes = (
"176 59 OFFCURVE",
"125 117 OFFCURVE",
"140 194 CURVE SMOOTH",
"156 273 OFFCURVE",
"232 337 OFFCURVE",
"327 337 CURVE SMOOTH",
"423 337 OFFCURVE",
"472 273 OFFCURVE",
"455 194 CURVE SMOOTH",
"439 117 OFFCURVE",
"367 59 OFFCURVE",
"271 59 CURVE SMOOTH"
);
}
);
width = 615;
},
{
layerId = "541F4A62-0ECD-4B4B-B1D5-38FFB5FB401F";
paths = (
{
closed = 1;
nodes = (
"415 -15 OFFCURVE",
"558 83 OFFCURVE",
"586 212 CURVE SMOOTH",
"604 298 OFFCURVE",
"573 357 OFFCURVE",
"510 396 CURVE",
"550 434 OFFCURVE",
"576 470 OFFCURVE",
"585 518 CURVE SMOOTH",
"608 621 OFFCURVE",
"540 715 OFFCURVE",
"413 715 CURVE SMOOTH",
"289 715 OFFCURVE",
"180 619 OFFCURVE",
"158 518 CURVE SMOOTH",
"149 470 OFFCURVE",
"157 434 OFFCURVE",
"183 396 CURVE",
"105 356 OFFCURVE",
"49 297 OFFCURVE",
"31 212 CURVE SMOOTH",
"2 75 OFFCURVE",
"96 -15 OFFCURVE",
"261 -15 CURVE SMOOTH"
);
},
{
closed = 1;
nodes = (
"311 438 OFFCURVE",
"283 469 OFFCURVE",
"292 518 CURVE SMOOTH",
"303 572 OFFCURVE",
"344 600 OFFCURVE",
"390 600 CURVE SMOOTH",
"436 600 OFFCURVE",
"463 572 OFFCURVE",
"451 518 CURVE SMOOTH",
"441 469 OFFCURVE",
"398 438 OFFCURVE",
"355 438 CURVE SMOOTH"
);
},
{
closed = 1;
nodes = (
"208 100 OFFCURVE",
"165 143 OFFCURVE",
"181 212 CURVE SMOOTH",
"195 284 OFFCURVE",
"255 323 OFFCURVE",
"330 323 CURVE SMOOTH",
"406 323 OFFCURVE",
"450 284 OFFCURVE",
"436 212 CURVE SMOOTH",
"420 143 OFFCURVE",
"362 100 OFFCURVE",
"285 100 CURVE SMOOTH"
);
}
);
width = 632;
}
);
unicode = 0038;
},
{
glyphname = nine;
lastChange = "2021-12-05 10:36:32 +0000";
layers = (
{
layerId = "3A3E882A-FD1E-4FEC-B6F3-0E8C1BCDAD39";
paths = (
{
closed = 1;
nodes = (
"252 0 LINE",
"315 75 OFFCURVE",
"404 189 OFFCURVE",
"452 254 CURVE SMOOTH",
"522 347 OFFCURVE",
"565 401 OFFCURVE",
"577 475 CURVE SMOOTH",
"601 607 OFFCURVE",
"520 715 OFFCURVE",
"381 715 CURVE SMOOTH",
"252 715 OFFCURVE",
"124 613 OFFCURVE",
"100 477 CURVE SMOOTH",
"77 345 OFFCURVE",
"168 237 OFFCURVE",
"297 237 CURVE SMOOTH",
"316 237 OFFCURVE",
"333 239 OFFCURVE",
"351 243 CURVE",
"235 102 OFFCURVE",
"166 20 OFFCURVE",
"148 0 CURVE"
);
},
{
closed = 1;
nodes = (
"228 322 OFFCURVE",
"170 393 OFFCURVE",
"185 477 CURVE SMOOTH",
"199 560 OFFCURVE",
"277 630 OFFCURVE",
"366 630 CURVE SMOOTH",
"452 630 OFFCURVE",
"509 562 OFFCURVE",
"494 477 CURVE SMOOTH",
"479 395 OFFCURVE",
"400 322 OFFCURVE",
"312 322 CURVE SMOOTH"
);
}
);
width = 597;
},
{
layerId = "541F4A62-0ECD-4B4B-B1D5-38FFB5FB401F";
paths = (
{
closed = 1;
nodes = (
"285 0 LINE",
"360 96 OFFCURVE",
"437 198 OFFCURVE",
"486 264 CURVE SMOOTH",
"559 360 OFFCURVE",
"582 398 OFFCURVE",
"596 475 CURVE SMOOTH",
"618 602 OFFCURVE",
"530 715 OFFCURVE",
"378 715 CURVE SMOOTH",
"229 715 OFFCURVE",
"99 600 OFFCURVE",
"77 477 CURVE SMOOTH",
"56 355 OFFCURVE",
"148 237 OFFCURVE",
"294 237 CURVE SMOOTH",
"295 237 OFFCURVE",
"315 237 OFFCURVE",
"316 237 CURVE",
"217 118 OFFCURVE",
"163 53 OFFCURVE",
"117 0 CURVE"
);
},
{
closed = 1;
nodes = (
"249 362 OFFCURVE",
"209 404 OFFCURVE",
"222 477 CURVE SMOOTH",
"232 532 OFFCURVE",
"286 590 OFFCURVE",
"356 590 CURVE SMOOTH",
"425 590 OFFCURVE",
"462 531 OFFCURVE",
"452 477 CURVE SMOOTH",
"439 403 OFFCURVE",
"384 362 OFFCURVE",
"316 362 CURVE SMOOTH"
);
}
);
width = 602;
}
);
unicode = 0039;
},
{
glyphname = period;
lastChange = "2021-12-05 15:54:10 +0000";
layers = (
{
layerId = "3A3E882A-FD1E-4FEC-B6F3-0E8C1BCDAD39";
paths = (
{
closed = 1;
nodes = (
"92 -15 OFFCURVE",
"126 14 OFFCURVE",
"132 49 CURVE SMOOTH",
"138 84 OFFCURVE",
"116 114 OFFCURVE",
"80 114 CURVE SMOOTH",
"44 114 OFFCURVE",
"10 85 OFFCURVE",
"3 49 CURVE SMOOTH",
"-4 12 OFFCURVE",
"24 -15 OFFCURVE",
"57 -15 CURVE SMOOTH"
);
}
);
userData = {
assembly = "NPUSHB[ ]	/* 23 values pushed */\0120 1 1 0 97 2 1 0 0 41 0 78 1 0 7 5 0 11 1 11 3 8 22 \012CALL[ ]	/* CallFunction */";
};
width = 205;
},
{
layerId = "541F4A62-0ECD-4B4B-B1D5-38FFB5FB401F";
paths = (
{
closed = 1;
nodes = (
"106 -15 OFFCURVE",
"152 24 OFFCURVE",
"160 69 CURVE SMOOTH",
"168 116 OFFCURVE",
"137 154 OFFCURVE",
"91 154 CURVE SMOOTH",
"44 154 OFFCURVE",
"-1 116 OFFCURVE",
"-9 69 CURVE SMOOTH",
"-17 23 OFFCURVE",
"15 -15 OFFCURVE",
"61 -15 CURVE SMOOTH"
);
}
);
width = 217;
}
);
note = period;
rightKerningGroup = quotesinglbase;
unicode = 002E;
},
{
glyphname = comma;
lastChange = "2021-12-05 15:54:10 +0000";
layers = (
{
layerId = "3A3E882A-FD1E-4FEC-B6F3-0E8C1BCDAD39";
paths = (
{
closed = 1;
nodes = (
"33 -136 LINE",
"122 25 LINE SMOOTH",
"128 34 OFFCURVE",
"131 42 OFFCURVE",
"132 50 CURVE SMOOTH",
"139 85 OFFCURVE",
"115 114 OFFCURVE",
"79 114 CURVE SMOOTH",
"44 114 OFFCURVE",
"10 85 OFFCURVE",
"3 50 CURVE SMOOTH",
"-3 18 OFFCURVE",
"15 -9 OFFCURVE",
"46 -14 CURVE",
"-22 -136 LINE"
);
}
);
userData = {
assembly = "NPUSHB[ ]	/* 33 values pushed */\0121 1 1 0 1 76 0 0 1 1 0 89 0 0 0 1 95 2 1 1 0 1 79 0 0 0 13 0 13 38 3 8 23 \012CALL[ ]	/* CallFunction */";
};
width = 205;
},
{
layerId = "541F4A62-0ECD-4B4B-B1D5-38FFB5FB401F";
paths = (
{
closed = 1;
nodes = (
"42 -136 LINE",
"142 29 LINE SMOOTH",
"151 42 OFFCURVE",
"158 61 OFFCURVE",
"160 70 CURVE SMOOTH",
"168 116 OFFCURVE",
"137 154 OFFCURVE",
"90 154 CURVE SMOOTH",
"44 154 OFFCURVE",
"-1 116 OFFCURVE",
"-9 70 CURVE SMOOTH",
"-15 37 OFFCURVE",
"2 -2 OFFCURVE",
"35 -8 CURVE",
"-41 -136 LINE"
);
}
);
width = 217;
}
);
note = comma;
rightKerningGroup = quotesinglbase;
unicode = 002C;
},
{
glyphname = colon;
lastChange = "2021-12-05 10:36:32 +0000";
layers = (
{
layerId = "3A3E882A-FD1E-4FEC-B6F3-0E8C1BCDAD39";
paths = (
{
closed = 1;
nodes = (
"162 386 OFFCURVE",
"196 415 OFFCURVE",
"202 451 CURVE SMOOTH",
"209 486 OFFCURVE",
"185 515 OFFCURVE",
"149 515 CURVE SMOOTH",
"114 515 OFFCURVE",
"80 486 OFFCURVE",
"73 451 CURVE SMOOTH",
"67 415 OFFCURVE",
"91 386 OFFCURVE",
"126 386 CURVE SMOOTH"
);
},
{
closed = 1;
nodes = (
"92 -15 OFFCURVE",
"126 14 OFFCURVE",
"132 49 CURVE SMOOTH",
"139 85 OFFCURVE",
"115 114 OFFCURVE",
"79 114 CURVE SMOOTH",
"44 114 OFFCURVE",
"10 85 OFFCURVE",
"3 49 CURVE SMOOTH",
"-3 14 OFFCURVE",
"21 -15 OFFCURVE",
"56 -15 CURVE SMOOTH"
);
}
);
userData = {
assembly = "NPUSHB[ ]	/* 42 values pushed */\0124 1 0 0 1 97 0 1 1 43 77 0 3 3 2 97 5 1 2 2 41 2 78 13 12 1 0 19 17 12 23 13 23 7 5 0 11 1 11 6 8 22 \012CALL[ ]	/* CallFunction */";
};
width = 205;
},
{
layerId = "541F4A62-0ECD-4B4B-B1D5-38FFB5FB401F";
paths = (
{
closed = 1;
nodes = (
"173 356 OFFCURVE",
"218 394 OFFCURVE",
"226 441 CURVE SMOOTH",
"234 487 OFFCURVE",
"203 525 OFFCURVE",
"156 525 CURVE SMOOTH",
"110 525 OFFCURVE",
"65 487 OFFCURVE",
"57 441 CURVE SMOOTH",
"49 394 OFFCURVE",
"80 356 OFFCURVE",
"126 356 CURVE SMOOTH"
);
},
{
closed = 1;
nodes = (
"108 -15 OFFCURVE",
"153 23 OFFCURVE",
"161 69 CURVE SMOOTH",
"169 116 OFFCURVE",
"138 154 OFFCURVE",
"91 154 CURVE SMOOTH",
"45 154 OFFCURVE",
"0 116 OFFCURVE",
"-8 69 CURVE SMOOTH",
"-16 23 OFFCURVE",
"15 -15 OFFCURVE",
"61 -15 CURVE SMOOTH"
);
}
);
width = 218;
}
);
note = colon;
unicode = 003A;
},
{
glyphname = semicolon;
lastChange = "2021-12-05 10:36:32 +0000";
layers = (
{
layerId = "3A3E882A-FD1E-4FEC-B6F3-0E8C1BCDAD39";
paths = (
{
closed = 1;
nodes = (
"162 386 OFFCURVE",
"196 415 OFFCURVE",
"202 451 CURVE SMOOTH",
"209 486 OFFCURVE",
"185 515 OFFCURVE",
"149 515 CURVE SMOOTH",
"114 515 OFFCURVE",
"80 486 OFFCURVE",
"73 451 CURVE SMOOTH",
"67 415 OFFCURVE",
"91 386 OFFCURVE",
"126 386 CURVE SMOOTH"
);
},
{
closed = 1;
nodes = (
"33 -136 LINE",
"122 25 LINE SMOOTH",
"128 34 OFFCURVE",
"131 42 OFFCURVE",
"132 50 CURVE SMOOTH",
"139 85 OFFCURVE",
"114 114 OFFCURVE",
"79 114 CURVE SMOOTH",
"44 114 OFFCURVE",
"10 85 OFFCURVE",
"3 50 CURVE SMOOTH",
"-3 18 OFFCURVE",
"15 -9 OFFCURVE",
"46 -14 CURVE",
"-22 -136 LINE"
);
}
);
userData = {
assembly = "NPUSHB[ ]	/* 45 values pushed */\01213 1 3 2 1 76 0 2 5 1 3 2 3 99 4 1 0 0 1 97 0 1 1 43 0 78 12 12 1 0 12 25 12 25 20 18 7 5 0 11 1 11 6 8 22 \012CALL[ ]	/* CallFunction */";
};
width = 205;
},
{
layerId = "541F4A62-0ECD-4B4B-B1D5-38FFB5FB401F";
paths = (
{
closed = 1;
nodes = (
"173 356 OFFCURVE",
"218 394 OFFCURVE",
"226 441 CURVE SMOOTH",
"234 487 OFFCURVE",
"203 525 OFFCURVE",
"156 525 CURVE SMOOTH",
"110 525 OFFCURVE",
"65 487 OFFCURVE",
"57 441 CURVE SMOOTH",
"49 394 OFFCURVE",
"80 356 OFFCURVE",
"126 356 CURVE SMOOTH"
);
},
{
closed = 1;
nodes = (
"43 -136 LINE",
"143 29 LINE SMOOTH",
"152 42 OFFCURVE",
"159 61 OFFCURVE",
"161 70 CURVE SMOOTH",
"169 116 OFFCURVE",
"138 154 OFFCURVE",
"91 154 CURVE SMOOTH",
"45 154 OFFCURVE",
"0 116 OFFCURVE",
"-8 70 CURVE SMOOTH",
"-14 37 OFFCURVE",
"3 -2 OFFCURVE",
"36 -8 CURVE",
"-40 -136 LINE"
);
}
);
width = 218;
}
);
note = semicolon;
unicode = 003B;
},
{
glyphname = ellipsis;
lastChange = "2021-12-05 15:54:10 +0000";
layers = (
{
layerId = "3A3E882A-FD1E-4FEC-B6F3-0E8C1BCDAD39";
paths = (
{
closed = 1;
nodes = (
"107 -15 OFFCURVE",
"141 14 OFFCURVE",
"147 49 CURVE SMOOTH",
"154 85 OFFCURVE",
"130 114 OFFCURVE",
"94 114 CURVE SMOOTH",
"59 114 OFFCURVE",
"25 85 OFFCURVE",
"18 49 CURVE SMOOTH",
"12 14 OFFCURVE",
"36 -15 OFFCURVE",
"71 -15 CURVE SMOOTH"
);
},
{
closed = 1;
nodes = (
"338 -15 OFFCURVE",
"372 14 OFFCURVE",
"378 49 CURVE SMOOTH",
"385 85 OFFCURVE",
"361 114 OFFCURVE",
"325 114 CURVE SMOOTH",
"289 114 OFFCURVE",
"256 85 OFFCURVE",
"249 49 CURVE SMOOTH",
"243 14 OFFCURVE",
"266 -15 OFFCURVE",
"302 -15 CURVE SMOOTH"
);
},
{
closed = 1;
nodes = (
"568 -15 OFFCURVE",
"602 14 OFFCURVE",
"608 49 CURVE SMOOTH",
"615 85 OFFCURVE",
"591 114 OFFCURVE",
"556 114 CURVE SMOOTH",
"520 114 OFFCURVE",
"486 85 OFFCURVE",
"479 49 CURVE SMOOTH",
"473 14 OFFCURVE",
"497 -15 OFFCURVE",
"533 -15 CURVE SMOOTH"
);
}
);
userData = {
assembly = "NPUSHB[ ]	/* 45 values pushed */\0125 3 2 1 1 0 97 8 4 7 2 6 5 0 0 41 0 78 25 24 13 12 1 0 31 29 24 35 25 35 19 17 12 23 13 23 7 5 0 11 1 11 9 8 22 \012CALL[ ]	/* CallFunction */";
};
width = 696;
},
{
layerId = "541F4A62-0ECD-4B4B-B1D5-38FFB5FB401F";
paths = (
{
closed = 1;
nodes = (
"124 -15 OFFCURVE",
"169 23 OFFCURVE",
"177 69 CURVE SMOOTH",
"185 116 OFFCURVE",
"154 154 OFFCURVE",
"107 154 CURVE SMOOTH",
"61 154 OFFCURVE",
"16 116 OFFCURVE",
"8 69 CURVE SMOOTH",
"0 23 OFFCURVE",
"31 -15 OFFCURVE",
"77 -15 CURVE SMOOTH"
);
},
{
closed = 1;
nodes = (
"355 -15 OFFCURVE",
"400 23 OFFCURVE",
"408 69 CURVE SMOOTH",
"416 116 OFFCURVE",
"385 154 OFFCURVE",
"338 154 CURVE SMOOTH",
"291 154 OFFCURVE",
"247 116 OFFCURVE",
"239 69 CURVE SMOOTH",
"231 23 OFFCURVE",
"262 -15 OFFCURVE",
"308 -15 CURVE SMOOTH"
);
},
{
closed = 1;
nodes = (
"585 -15 OFFCURVE",
"630 23 OFFCURVE",
"638 69 CURVE SMOOTH",
"646 116 OFFCURVE",
"615 154 OFFCURVE",
"569 154 CURVE SMOOTH",
"522 154 OFFCURVE",
"477 116 OFFCURVE",
"469 69 CURVE SMOOTH",
"461 23 OFFCURVE",
"492 -15 OFFCURVE",
"539 -15 CURVE SMOOTH"
);
}
);
width = 712;
}
);
note = ellipsis;
rightKerningGroup = quotesinglbase;
unicode = 2026;
},
{
glyphname = exclam;
lastChange = "2021-12-05 10:36:32 +0000";
layers = (
{
layerId = "3A3E882A-FD1E-4FEC-B6F3-0E8C1BCDAD39";
paths = (
{
closed = 1;
nodes = (
"156 190 LINE",
"229 500 LINE",
"264 700 LINE",
"175 700 LINE",
"140 500 LINE",
"103 190 LINE"
);
},
{
closed = 1;
nodes = (
"130 -15 OFFCURVE",
"164 14 OFFCURVE",
"170 49 CURVE SMOOTH",
"176 84 OFFCURVE",
"154 114 OFFCURVE",
"118 114 CURVE SMOOTH",
"82 114 OFFCURVE",
"48 85 OFFCURVE",
"41 49 CURVE SMOOTH",
"34 12 OFFCURVE",
"62 -15 OFFCURVE",
"95 -15 CURVE SMOOTH"
);
}
);
userData = {
assembly = "NPUSHB[ ]	/* 41 values pushed */\0124 1 1 1 0 95 0 0 0 34 77 0 3 3 2 97 5 1 2 2 41 2 78 7 6 0 0 13 11 6 17 7 17 0 5 0 5 18 6 8 23 \012CALL[ ]	/* CallFunction */";
};
width = 281;
},
{
layerId = "541F4A62-0ECD-4B4B-B1D5-38FFB5FB401F";
paths = (
{
closed = 1;
nodes = (
"165 209 LINE",
"250 525 LINE",
"281 700 LINE",
"132 700 LINE",
"101 525 LINE",
"74 209 LINE"
);
},
{
closed = 1;
nodes = (
"126 -15 OFFCURVE",
"172 24 OFFCURVE",
"180 69 CURVE SMOOTH",
"188 116 OFFCURVE",
"157 154 OFFCURVE",
"111 154 CURVE SMOOTH",
"64 154 OFFCURVE",
"19 116 OFFCURVE",
"11 69 CURVE SMOOTH",
"3 23 OFFCURVE",
"35 -15 OFFCURVE",
"81 -15 CURVE SMOOTH"
);
}
);
width = 257;
}
);
note = exclam;
unicode = 0021;
},
{
glyphname = exclamdown;
lastChange = "2021-12-05 10:36:32 +0000";
layers = (
{
layerId = "3A3E882A-FD1E-4FEC-B6F3-0E8C1BCDAD39";
paths = (
{
closed = 1;
nodes = (
"53 0 LINE",
"18 -200 LINE",
"107 -200 LINE",
"142 0 LINE",
"177 310 LINE",
"124 310 LINE"
);
},
{
closed = 1;
nodes = (
"155 515 OFFCURVE",
"118 488 OFFCURVE",
"111 451 CURVE SMOOTH",
"105 415 OFFCURVE",
"129 386 OFFCURVE",
"165 386 CURVE SMOOTH",
"201 386 OFFCURVE",
"234 416 OFFCURVE",
"240 451 CURVE SMOOTH",
"247 486 OFFCURVE",
"223 515 OFFCURVE",
"188 515 CURVE SMOOTH"
);
}
);
userData = {
assembly = "MPPEM[ ]	/* MeasurePixelPerEm */\012PUSHB[ ]	/* 1 value pushed */\01233 \012LT[ ]	/* LessThan */\012IF[ ]	/* If */\012NPUSHB[ ]	/* 23 values pushed */\0124 1 0 0 1 97 0 1 1 43 77 0 2 2 3 95 5 1 3 3 39 3 78 \012ELSE[ ]	/* Else */\012NPUSHB[ ]	/* 21 values pushed */\0120 1 4 1 0 2 1 0 105 0 2 2 3 95 5 1 3 3 39 3 78 \012EIF[ ]	/* EndIf */\012NPUSHB[ ]	/* 19 values pushed */\01212 12 1 0 12 17 12 17 15 14 7 5 0 11 1 11 6 8 22 \012CALL[ ]	/* CallFunction */";
};
width = 281;
},
{
layerId = "541F4A62-0ECD-4B4B-B1D5-38FFB5FB401F";
paths = (
{
closed = 1;
nodes = (
"7 -15 LINE",
"-23 -190 LINE",
"126 -190 LINE",
"156 -15 LINE",
"183 301 LINE",
"92 301 LINE"
);
},
{
closed = 1;
nodes = (
"131 525 OFFCURVE",
"85 487 OFFCURVE",
"77 441 CURVE SMOOTH",
"69 394 OFFCURVE",
"100 356 OFFCURVE",
"147 356 CURVE SMOOTH",
"193 356 OFFCURVE",
"238 394 OFFCURVE",
"246 441 CURVE SMOOTH",
"254 486 OFFCURVE",
"222 525 OFFCURVE",
"177 525 CURVE SMOOTH"
);
}
);
width = 257;
}
);
note = exclamdown;
unicode = 00A1;
},
{
glyphname = question;
lastChange = "2021-12-05 10:36:32 +0000";
layers = (
{
layerId = "3A3E882A-FD1E-4FEC-B6F3-0E8C1BCDAD39";
paths = (
{
closed = 1;
nodes = (
"257 180 LINE",
"269 249 LINE SMOOTH",
"278 301 OFFCURVE",
"306 319 OFFCURVE",
"364 353 CURVE SMOOTH",
"412 381 OFFCURVE",
"458 415 OFFCURVE",
"492 468 CURVE SMOOTH",
"508 495 OFFCURVE",
"519 522 OFFCURVE",
"524 551 CURVE SMOOTH",
"537 627 OFFCURVE",
"500 674 OFFCURVE",
"441 698 CURVE SMOOTH",
"410 709 OFFCURVE",
"379 715 OFFCURVE",
"344 715 CURVE SMOOTH",
"231 715 OFFCURVE",
"132 655 OFFCURVE",
"95 559 CURVE",
"173 536 LINE",
"195 596 OFFCURVE",
"244 645 OFFCURVE",
"327 645 CURVE SMOOTH",
"400 645 OFFCURVE",
"446 607 OFFCURVE",
"435 543 CURVE SMOOTH",
"426 490 OFFCURVE",
"379 443 OFFCURVE",
"326 412 CURVE SMOOTH",
"269 380 OFFCURVE",
"230 353 OFFCURVE",
"208 318 CURVE SMOOTH",
"196 300 OFFCURVE",
"188 278 OFFCURVE",
"183 252 CURVE SMOOTH",
"171 180 LINE"
);
},
{
closed = 1;
nodes = (
"217 -15 OFFCURVE",
"251 14 OFFCURVE",
"257 49 CURVE SMOOTH",
"263 84 OFFCURVE",
"241 114 OFFCURVE",
"205 114 CURVE SMOOTH",
"169 114 OFFCURVE",
"135 85 OFFCURVE",
"128 49 CURVE SMOOTH",
"121 12 OFFCURVE",
"149 -15 OFFCURVE",
"182 -15 CURVE SMOOTH"
);
}
);
userData = {
assembly = "NPUSHB[ ]	/* 57 values pushed */\01216 15 2 2 0 1 76 5 1 2 0 4 0 2 4 128 0 0 0 1 97 0 1 1 40 77 0 4 4 3 97 6 1 3 3 41 3 78 34 33 0 0 40 38 33 44 34 44 0 32 0 32 38 42 7 8 24 \012CALL[ ]	/* CallFunction */";
};
width = 522;
},
{
layerId = "541F4A62-0ECD-4B4B-B1D5-38FFB5FB401F";
paths = (
{
closed = 1;
nodes = (
"312 208 LINE",
"319 249 LINE SMOOTH",
"326 288 OFFCURVE",
"348 302 OFFCURVE",
"408 336 CURVE SMOOTH",
"462 368 OFFCURVE",
"511 386 OFFCURVE",
"544 440 CURVE SMOOTH",
"564 472 OFFCURVE",
"576 500 OFFCURVE",
"581 531 CURVE SMOOTH",
"594 608 OFFCURVE",
"560 665 OFFCURVE",
"481 697 CURVE SMOOTH",
"448 710 OFFCURVE",
"411 715 OFFCURVE",
"374 715 CURVE SMOOTH",
"239 715 OFFCURVE",
"121 639 OFFCURVE",
"88 526 CURVE",
"221 487 LINE",
"243 567 OFFCURVE",
"283 595 OFFCURVE",
"349 595 CURVE SMOOTH",
"409 595 OFFCURVE",
"440 575 OFFCURVE",
"431 523 CURVE SMOOTH",
"424 481 OFFCURVE",
"393 458 OFFCURVE",
"343 429 CURVE SMOOTH",
"281 394 OFFCURVE",
"246 362 OFFCURVE",
"223 327 CURVE SMOOTH",
"208 304 OFFCURVE",
"199 282 OFFCURVE",
"194 252 CURVE SMOOTH",
"186 208 LINE"
);
},
{
closed = 1;
nodes = (
"254 -15 OFFCURVE",
"300 24 OFFCURVE",
"308 69 CURVE SMOOTH",
"316 116 OFFCURVE",
"286 159 OFFCURVE",
"240 159 CURVE SMOOTH",
"193 159 OFFCURVE",
"147 116 OFFCURVE",
"139 69 CURVE SMOOTH",
"131 23 OFFCURVE",
"163 -15 OFFCURVE",
"209 -15 CURVE SMOOTH"
);
}
);
width = 582;
}
);
note = question;
unicode = 003F;
},
{
glyphname = questiondown;
lastChange = "2021-12-05 10:36:32 +0000";
layers = (
{
layerId = "3A3E882A-FD1E-4FEC-B6F3-0E8C1BCDAD39";
paths = (
{
closed = 1;
nodes = (
"263 320 LINE",
"250 251 LINE SMOOTH",
"241 199 OFFCURVE",
"214 181 OFFCURVE",
"155 147 CURVE SMOOTH",
"107 119 OFFCURVE",
"62 85 OFFCURVE",
"28 32 CURVE SMOOTH",
"11 5 OFFCURVE",
"1 -22 OFFCURVE",
"-4 -51 CURVE SMOOTH",
"-18 -127 OFFCURVE",
"17 -176 OFFCURVE",
"79 -198 CURVE SMOOTH",
"108 -209 OFFCURVE",
"141 -215 OFFCURVE",
"176 -215 CURVE SMOOTH",
"289 -215 OFFCURVE",
"387 -155 OFFCURVE",
"423 -59 CURVE",
"346 -36 LINE",
"323 -96 OFFCURVE",
"274 -145 OFFCURVE",
"191 -145 CURVE SMOOTH",
"118 -145 OFFCURVE",
"74 -107 OFFCURVE",
"85 -43 CURVE SMOOTH",
"94 10 OFFCURVE",
"141 58 OFFCURVE",
"194 88 CURVE SMOOTH",
"251 120 OFFCURVE",
"289 148 OFFCURVE",
"311 182 CURVE SMOOTH",
"324 200 OFFCURVE",
"331 222 OFFCURVE",
"336 248 CURVE SMOOTH",
"349 320 LINE"
);
},
{
closed = 1;
nodes = (
"303 515 OFFCURVE",
"269 486 OFFCURVE",
"262 451 CURVE SMOOTH",
"256 416 OFFCURVE",
"279 386 OFFCURVE",
"315 386 CURVE SMOOTH",
"351 386 OFFCURVE",
"385 415 OFFCURVE",
"391 451 CURVE SMOOTH",
"398 488 OFFCURVE",
"371 515 OFFCURVE",
"338 515 CURVE SMOOTH"
);
}
);
userData = {
assembly = "PUSHB[ ]	/* 7 values pushed */\01242 41 2 4 3 1 76 \012MPPEM[ ]	/* MeasurePixelPerEm */\012PUSHB[ ]	/* 1 value pushed */\01233 \012LT[ ]	/* LessThan */\012IF[ ]	/* If */\012NPUSHB[ ]	/* 31 values pushed */\0120 3 0 4 0 3 4 128 5 1 0 0 1 97 0 1 1 43 77 0 4 4 2 98 6 1 2 2 39 2 78 \012ELSE[ ]	/* Else */\012MPPEM[ ]	/* MeasurePixelPerEm */\012PUSHB[ ]	/* 1 value pushed */\01239 \012LT[ ]	/* LessThan */\012IF[ ]	/* If */\012NPUSHB[ ]	/* 29 values pushed */\0120 3 0 4 0 3 4 128 0 1 5 1 0 3 1 0 105 0 4 4 2 98 6 1 2 2 39 2 78 \012ELSE[ ]	/* Else */\012NPUSHB[ ]	/* 34 values pushed */\0120 3 0 4 0 3 4 128 0 1 5 1 0 3 1 0 105 0 4 2 2 4 89 0 4 4 2 98 6 1 2 4 2 82 \012EIF[ ]	/* EndIf */\012EIF[ ]	/* EndIf */\012NPUSHB[ ]	/* 21 values pushed */\01213 12 1 0 38 36 26 25 12 44 13 44 7 5 0 11 1 11 7 8 22 \012CALL[ ]	/* CallFunction */";
};
width = 518;
},
{
layerId = "541F4A62-0ECD-4B4B-B1D5-38FFB5FB401F";
paths = (
{
closed = 1;
nodes = (
"271 302 LINE",
"263 261 LINE SMOOTH",
"257 222 OFFCURVE",
"234 209 OFFCURVE",
"175 174 CURVE SMOOTH",
"120 142 OFFCURVE",
"73 124 OFFCURVE",
"39 70 CURVE SMOOTH",
"20 38 OFFCURVE",
"8 10 OFFCURVE",
"1 -21 CURVE SMOOTH",
"-11 -98 OFFCURVE",
"23 -155 OFFCURVE",
"102 -187 CURVE SMOOTH",
"134 -200 OFFCURVE",
"172 -205 OFFCURVE",
"209 -205 CURVE SMOOTH",
"344 -205 OFFCURVE",
"462 -129 OFFCURVE",
"495 -16 CURVE",
"362 23 LINE",
"339 -57 OFFCURVE",
"299 -85 OFFCURVE",
"233 -85 CURVE SMOOTH",
"173 -85 OFFCURVE",
"142 -65 OFFCURVE",
"151 -13 CURVE SMOOTH",
"158 29 OFFCURVE",
"190 53 OFFCURVE",
"240 81 CURVE SMOOTH",
"302 116 OFFCURVE",
"336 148 OFFCURVE",
"360 183 CURVE SMOOTH",
"374 206 OFFCURVE",
"383 228 OFFCURVE",
"389 258 CURVE SMOOTH",
"397 302 LINE"
);
},
{
closed = 1;
nodes = (
"329 525 OFFCURVE",
"283 486 OFFCURVE",
"275 441 CURVE SMOOTH",
"267 394 OFFCURVE",
"297 351 OFFCURVE",
"343 351 CURVE SMOOTH",
"390 351 OFFCURVE",
"436 394 OFFCURVE",
"444 441 CURVE SMOOTH",
"452 487 OFFCURVE",
"420 525 OFFCURVE",
"374 525 CURVE SMOOTH"
);
}
);
width = 583;
}
);
note = questiondown;
unicode = 00BF;
},
{
glyphname = periodcentered;
lastChange = "2021-12-05 10:36:32 +0000";
layers = (
{
layerId = "3A3E882A-FD1E-4FEC-B6F3-0E8C1BCDAD39";
paths = (
{
closed = 1;
nodes = (
"141 183 OFFCURVE",
"176 212 OFFCURVE",
"182 248 CURVE SMOOTH",
"188 283 OFFCURVE",
"164 312 OFFCURVE",
"128 312 CURVE SMOOTH",
"93 312 OFFCURVE",
"59 283 OFFCURVE",
"53 248 CURVE SMOOTH",
"47 212 OFFCURVE",
"70 183 OFFCURVE",
"105 183 CURVE SMOOTH"
);
}
);
userData = {
assembly = "NPUSHB[ ]	/* 28 values pushed */\0120 1 0 0 1 89 0 1 1 0 97 2 1 0 1 0 81 1 0 7 5 0 11 1 11 3 8 22 \012CALL[ ]	/* CallFunction */";
};
width = 235;
},
{
layerId = "541F4A62-0ECD-4B4B-B1D5-38FFB5FB401F";
paths = (
{
closed = 1;
nodes = (
"168 163 OFFCURVE",
"213 201 OFFCURVE",
"221 248 CURVE SMOOTH",
"229 294 OFFCURVE",
"198 332 OFFCURVE",
"151 332 CURVE SMOOTH",
"105 332 OFFCURVE",
"60 294 OFFCURVE",
"52 248 CURVE SMOOTH",
"44 201 OFFCURVE",
"75 163 OFFCURVE",
"121 163 CURVE SMOOTH"
);
}
);
width = 275;
}
);
note = periodcentered;
unicode = 00B7;
},
{
glyphname = bullet;
lastChange = "2021-12-05 10:36:32 +0000";
layers = (
{
layerId = "3A3E882A-FD1E-4FEC-B6F3-0E8C1BCDAD39";
paths = (
{
closed = 1;
nodes = (
"258 88 OFFCURVE",
"316 120 OFFCURVE",
"353 171 CURVE SMOOTH",
"371 196 OFFCURVE",
"382 224 OFFCURVE",
"386 254 CURVE SMOOTH",
"395 315 OFFCURVE",
"370 368 OFFCURVE",
"324 398 CURVE SMOOTH",
"302 413 OFFCURVE",
"275 420 OFFCURVE",
"244 420 CURVE SMOOTH",
"183 420 OFFCURVE",
"126 388 OFFCURVE",
"89 338 CURVE SMOOTH",
"70 313 OFFCURVE",
"58 285 OFFCURVE",
"54 254 CURVE SMOOTH",
"46 194 OFFCURVE",
"71 141 OFFCURVE",
"117 111 CURVE SMOOTH",
"140 96 OFFCURVE",
"166 88 OFFCURVE",
"197 88 CURVE SMOOTH"
);
}
);
userData = {
assembly = "NPUSHB[ ]	/* 28 values pushed */\0120 1 0 0 1 89 0 1 1 0 97 2 1 0 1 0 81 1 0 9 7 0 15 1 15 3 8 22 \012CALL[ ]	/* CallFunction */";
};
width = 438;
},
{
layerId = "541F4A62-0ECD-4B4B-B1D5-38FFB5FB401F";
paths = (
{
closed = 1;
nodes = (
"279 68 OFFCURVE",
"346 103 OFFCURVE",
"387 161 CURVE SMOOTH",
"407 189 OFFCURVE",
"420 220 OFFCURVE",
"425 254 CURVE SMOOTH",
"434 320 OFFCURVE",
"407 381 OFFCURVE",
"356 415 CURVE SMOOTH",
"331 431 OFFCURVE",
"301 440 OFFCURVE",
"266 440 CURVE SMOOTH",
"200 440 OFFCURVE",
"135 405 OFFCURVE",
"92 348 CURVE SMOOTH",
"71 320 OFFCURVE",
"58 288 OFFCURVE",
"53 254 CURVE SMOOTH",
"44 189 OFFCURVE",
"72 129 OFFCURVE",
"123 94 CURVE SMOOTH",
"149 77 OFFCURVE",
"180 68 OFFCURVE",
"213 68 CURVE SMOOTH"
);
}
);
width = 478;
}
);
note = bullet;
unicode = 2022;
},
{
glyphname = asterisk;
lastChange = "2021-12-05 10:36:32 +0000";
layers = (
{
layerId = "3A3E882A-FD1E-4FEC-B6F3-0E8C1BCDAD39";
paths = (
{
closed = 1;
nodes = (
"260 507 LINE",
"308 421 LINE",
"360 455 LINE",
"312 541 LINE",
"420 573 LINE",
"411 628 LINE",
"304 595 LINE",
"323 701 LINE",
"266 701 LINE",
"247 595 LINE",
"152 628 LINE",
"125 573 LINE",
"220 541 LINE",
"143 455 LINE",
"183 421 LINE"
);
}
);
userData = {
assembly = "NPUSHB[ ]	/* 25 values pushed */\01214 13 12 11 10 9 8 5 4 3 2 1 12 0 73 0 0 0 34 0 78 22 1 8 23 \012CALL[ ]	/* CallFunction */";
};
width = 433;
},
{
layerId = "541F4A62-0ECD-4B4B-B1D5-38FFB5FB401F";
paths = (
{
closed = 1;
nodes = (
"257 452 LINE",
"302 372 LINE",
"390 430 LINE",
"346 509 LINE",
"445 539 LINE",
"431 632 LINE",
"332 602 LINE",
"350 700 LINE",
"253 700 LINE",
"235 602 LINE",
"146 632 LINE",
"100 539 LINE",
"189 509 LINE",
"117 430 LINE",
"185 372 LINE"
);
}
);
width = 446;
}
);
note = asterisk;
unicode = 002A;
},
{
glyphname = numbersign;
lastChange = "2021-12-05 10:36:32 +0000";
layers = (
{
layerId = "3A3E882A-FD1E-4FEC-B6F3-0E8C1BCDAD39";
paths = (
{
closed = 1;
nodes = (
"175 0 LINE",
"229 172 LINE",
"352 172 LINE",
"298 0 LINE",
"380 0 LINE",
"434 172 LINE",
"558 172 LINE",
"582 253 LINE",
"459 253 LINE",
"520 447 LINE",
"644 447 LINE",
"669 528 LINE",
"546 528 LINE",
"600 700 LINE",
"518 700 LINE",
"464 528 LINE",
"341 528 LINE",
"395 700 LINE",
"313 700 LINE",
"259 528 LINE",
"135 528 LINE",
"110 447 LINE",
"234 447 LINE",
"172 253 LINE",
"48 253 LINE",
"24 172 LINE",
"148 172 LINE",
"93 0 LINE"
);
},
{
closed = 1;
nodes = (
"315 447 LINE",
"438 447 LINE",
"377 253 LINE",
"254 253 LINE"
);
}
);
userData = {
assembly = "NPUSHB[ ]	/* 70 values pushed */\01214 9 2 1 12 10 2 0 11 1 0 103 6 1 4 4 34 77 15 8 2 2 2 3 95 7 5 2 3 3 37 77 16 13 2 11 11 35 11 78 0 0 31 30 29 28 0 27 0 27 26 25 24 23 22 21 20 19 17 17 17 17 17 17 17 17 17 17 8 31 \012CALL[ ]	/* CallFunction */";
};
width = 658;
},
{
layerId = "541F4A62-0ECD-4B4B-B1D5-38FFB5FB401F";
paths = (
{
closed = 1;
nodes = (
"200 0 LINE",
"254 172 LINE",
"337 172 LINE",
"283 0 LINE",
"405 0 LINE",
"459 172 LINE",
"583 172 LINE",
"622 293 LINE",
"499 293 LINE",
"539 407 LINE",
"663 407 LINE",
"702 528 LINE",
"579 528 LINE",
"633 700 LINE",
"511 700 LINE",
"457 528 LINE",
"374 528 LINE",
"428 700 LINE",
"306 700 LINE",
"252 528 LINE",
"128 528 LINE",
"89 407 LINE",
"213 407 LINE",
"172 293 LINE",
"48 293 LINE",
"9 172 LINE",
"133 172 LINE",
"78 0 LINE"
);
},
{
closed = 1;
nodes = (
"334 407 LINE",
"417 407 LINE",
"377 293 LINE",
"294 293 LINE"
);
}
);
width = 678;
}
);
note = numbersign;
unicode = 0023;
},
{
glyphname = slash;
lastChange = "2021-12-05 10:36:32 +0000";
layers = (
{
layerId = "3A3E882A-FD1E-4FEC-B6F3-0E8C1BCDAD39";
paths = (
{
closed = 1;
nodes = (
"58 0 LINE",
"452 700 LINE",
"365 700 LINE",
"-29 0 LINE"
);
}
);
userData = {
assembly = "NPUSHB[ ]	/* 22 values pushed */\0120 0 0 34 77 2 1 1 1 35 1 78 0 0 0 3 0 3 17 3 8 23 \012CALL[ ]	/* CallFunction */";
};
width = 388;
},
{
layerId = "541F4A62-0ECD-4B4B-B1D5-38FFB5FB401F";
paths = (
{
closed = 1;
nodes = (
"113 0 LINE",
"509 700 LINE",
"366 700 LINE",
"-30 0 LINE"
);
}
);
width = 446;
}
);
note = slash;
unicode = 002F;
},
{
glyphname = backslash;
lastChange = "2021-12-05 10:36:32 +0000";
layers = (
{
layerId = "3A3E882A-FD1E-4FEC-B6F3-0E8C1BCDAD39";
paths = (
{
closed = 1;
nodes = (
"331 0 LINE",
"181 700 LINE",
"94 700 LINE",
"244 0 LINE"
);
}
);
userData = {
assembly = "NPUSHB[ ]	/* 22 values pushed */\0120 0 0 34 77 2 1 1 1 35 1 78 0 0 0 3 0 3 17 3 8 23 \012CALL[ ]	/* CallFunction */";
};
width = 390;
},
{
layerId = "541F4A62-0ECD-4B4B-B1D5-38FFB5FB401F";
paths = (
{
closed = 1;
nodes = (
"384 0 LINE",
"236 700 LINE",
"93 700 LINE",
"241 0 LINE"
);
}
);
width = 444;
}
);
note = backslash;
unicode = 005C;
},
{
glyphname = parenleft;
lastChange = "2021-12-05 10:36:32 +0000";
layers = (
{
layerId = "3A3E882A-FD1E-4FEC-B6F3-0E8C1BCDAD39";
paths = (
{
closed = 1;
nodes = (
"197 -155 LINE",
"120 -18 OFFCURVE",
"107 152 OFFCURVE",
"132 297 CURVE SMOOTH",
"159 452 OFFCURVE",
"236 607 OFFCURVE",
"317 700 CURVE",
"242 700 LINE",
"149 583 OFFCURVE",
"83 435 OFFCURVE",
"59 299 CURVE SMOOTH",
"32 144 OFFCURVE",
"52 -24 OFFCURVE",
"121 -155 CURVE"
);
}
);
userData = {
assembly = "NPUSHB[ ]	/* 22 values pushed */\0120 0 0 34 77 2 1 1 1 39 1 78 0 0 0 13 0 13 22 3 8 23 \012CALL[ ]	/* CallFunction */";
};
width = 303;
},
{
layerId = "541F4A62-0ECD-4B4B-B1D5-38FFB5FB401F";
paths = (
{
closed = 1;
nodes = (
"236 -155 LINE",
"172 -40 OFFCURVE",
"148 135 OFFCURVE",
"177 297 CURVE SMOOTH",
"202 440 OFFCURVE",
"277 610 OFFCURVE",
"356 700 CURVE",
"232 700 LINE",
"131 575 OFFCURVE",
"67 438 OFFCURVE",
"43 299 CURVE SMOOTH",
"15 139 OFFCURVE",
"39 -17 OFFCURVE",
"112 -155 CURVE"
);
}
);
width = 343;
}
);
note = parenleft;
unicode = 0028;
},
{
glyphname = parenright;
lastChange = "2021-12-05 10:36:32 +0000";
layers = (
{
layerId = "3A3E882A-FD1E-4FEC-B6F3-0E8C1BCDAD39";
paths = (
{
closed = 1;
nodes = (
"155 -24 OFFCURVE",
"235 144 OFFCURVE",
"262 299 CURVE SMOOTH",
"286 435 OFFCURVE",
"272 583 OFFCURVE",
"219 700 CURVE",
"144 700 LINE",
"193 607 OFFCURVE",
"214 452 OFFCURVE",
"187 297 CURVE SMOOTH",
"162 152 OFFCURVE",
"89 -18 OFFCURVE",
"-36 -155 CURVE",
"40 -155 LINE"
);
}
);
userData = {
assembly = "NPUSHB[ ]	/* 22 values pushed */\0120 0 0 34 77 2 1 1 1 39 1 78 0 0 0 13 0 13 22 3 8 23 \012CALL[ ]	/* CallFunction */";
};
width = 303;
},
{
layerId = "541F4A62-0ECD-4B4B-B1D5-38FFB5FB401F";
paths = (
{
closed = 1;
nodes = (
"208 -17 OFFCURVE",
"286 140 OFFCURVE",
"314 299 CURVE SMOOTH",
"338 438 OFFCURVE",
"322 575 OFFCURVE",
"267 700 CURVE",
"142 700 LINE",
"189 611 OFFCURVE",
"205 441 OFFCURVE",
"180 297 CURVE SMOOTH",
"151 134 OFFCURVE",
"67 -41 OFFCURVE",
"-37 -155 CURVE",
"88 -155 LINE"
);
}
);
width = 341;
}
);
note = parenright;
unicode = 0029;
},
{
glyphname = braceleft;
lastChange = "2021-12-05 10:36:32 +0000";
layers = (
{
layerId = "3A3E882A-FD1E-4FEC-B6F3-0E8C1BCDAD39";
paths = (
{
closed = 1;
nodes = (
"215 -151 LINE",
"227 -80 LINE",
"185 -80 LINE SMOOTH",
"141 -80 OFFCURVE",
"136 -68 OFFCURVE",
"145 -16 CURVE SMOOTH",
"174 147 LINE SMOOTH",
"189 230 OFFCURVE",
"166 260 OFFCURVE",
"117 273 CURVE",
"117 274 LINE",
"168 287 OFFCURVE",
"204 316 OFFCURVE",
"219 400 CURVE SMOOTH",
"247 563 LINE SMOOTH",
"256 614 OFFCURVE",
"265 627 OFFCURVE",
"309 627 CURVE SMOOTH",
"351 627 LINE",
"364 698 LINE",
"321 698 LINE SMOOTH",
"246 698 OFFCURVE",
"207 683 OFFCURVE",
"187 644 CURVE SMOOTH",
"176 624 OFFCURVE",
"169 597 OFFCURVE",
"163 562 CURVE SMOOTH",
"135 402 LINE SMOOTH",
"125 345 OFFCURVE",
"111 307 OFFCURVE",
"48 307 CURVE",
"36 240 LINE",
"99 240 OFFCURVE",
"100 202 OFFCURVE",
"90 145 CURVE SMOOTH",
"62 -15 LINE SMOOTH",
"50 -83 OFFCURVE",
"53 -122 OFFCURVE",
"89 -139 CURVE SMOOTH",
"106 -147 OFFCURVE",
"135 -151 OFFCURVE",
"172 -151 CURVE SMOOTH"
);
}
);
userData = {
assembly = "NPUSHB[ ]	/* 55 values pushed */\01227 1 1 2 1 76 0 2 0 1 5 2 1 105 0 4 4 3 97 0 3 3 34 77 0 5 5 0 97 6 1 0 0 39 0 78 1 0 36 34 21 19 18 16 10 9 8 7 0 37 1 37 7 8 22 \012CALL[ ]	/* CallFunction */";
};
width = 320;
},
{
layerId = "541F4A62-0ECD-4B4B-B1D5-38FFB5FB401F";
paths = (
{
closed = 1;
nodes = (
"240 -155 LINE",
"259 -44 LINE",
"197 -44 LINE SMOOTH",
"178 -44 OFFCURVE",
"168 -34 OFFCURVE",
"173 0 CURVE SMOOTH",
"199 146 LINE SMOOTH",
"214 231 OFFCURVE",
"164 275 OFFCURVE",
"115 288 CURVE",
"110 258 LINE",
"162 271 OFFCURVE",
"229 316 OFFCURVE",
"243 399 CURVE SMOOTH",
"269 545 LINE SMOOTH",
"275 578 OFFCURVE",
"289 589 OFFCURVE",
"308 589 CURVE SMOOTH",
"370 589 LINE",
"390 700 LINE",
"327 700 LINE SMOOTH",
"243 700 OFFCURVE",
"196 680 OFFCURVE",
"171 632 CURVE SMOOTH",
"161 611 OFFCURVE",
"152 583 OFFCURVE",
"145 544 CURVE SMOOTH",
"120 401 LINE SMOOTH",
"108 331 OFFCURVE",
"94 323 OFFCURVE",
"37 327 CURVE",
"18 218 LINE",
"77 222 OFFCURVE",
"87 214 OFFCURVE",
"75 144 CURVE SMOOTH",
"49 1 LINE SMOOTH",
"35 -81 OFFCURVE",
"45 -123 OFFCURVE",
"86 -141 CURVE SMOOTH",
"106 -150 OFFCURVE",
"137 -155 OFFCURVE",
"177 -155 CURVE SMOOTH"
);
}
);
width = 346;
}
);
note = braceleft;
unicode = 007B;
},
{
glyphname = braceright;
lastChange = "2021-12-05 10:36:32 +0000";
layers = (
{
layerId = "3A3E882A-FD1E-4FEC-B6F3-0E8C1BCDAD39";
paths = (
{
closed = 1;
nodes = (
"82 -151 OFFCURVE",
"121 -136 OFFCURVE",
"140 -96 CURVE SMOOTH",
"151 -76 OFFCURVE",
"159 -49 OFFCURVE",
"165 -15 CURVE SMOOTH",
"193 145 LINE SMOOTH",
"203 202 OFFCURVE",
"216 240 OFFCURVE",
"279 240 CURVE",
"291 307 LINE",
"228 307 OFFCURVE",
"228 345 OFFCURVE",
"238 402 CURVE SMOOTH",
"266 562 LINE SMOOTH",
"278 631 OFFCURVE",
"275 669 OFFCURVE",
"238 686 CURVE SMOOTH",
"221 694 OFFCURVE",
"193 698 OFFCURVE",
"156 698 CURVE SMOOTH",
"113 698 LINE",
"100 627 LINE",
"142 627 LINE SMOOTH",
"186 627 OFFCURVE",
"191 614 OFFCURVE",
"182 563 CURVE SMOOTH",
"154 400 LINE SMOOTH",
"139 316 OFFCURVE",
"165 287 OFFCURVE",
"210 274 CURVE",
"210 273 LINE",
"157 260 OFFCURVE",
"124 230 OFFCURVE",
"109 147 CURVE SMOOTH",
"80 -16 LINE SMOOTH",
"71 -68 OFFCURVE",
"62 -80 OFFCURVE",
"18 -80 CURVE SMOOTH",
"-24 -80 LINE",
"-36 -151 LINE",
"7 -151 LINE SMOOTH"
);
}
);
userData = {
assembly = "NPUSHB[ ]	/* 50 values pushed */\0129 1 4 3 1 76 0 3 0 4 0 3 4 105 0 1 1 2 97 0 2 2 34 77 0 0 0 5 97 6 1 5 5 39 5 78 0 0 0 37 0 36 17 22 33 45 33 7 8 27 \012CALL[ ]	/* CallFunction */";
};
width = 319;
},
{
layerId = "541F4A62-0ECD-4B4B-B1D5-38FFB5FB401F";
paths = (
{
closed = 1;
nodes = (
"66 -155 OFFCURVE",
"97 -150 OFFCURVE",
"121 -141 CURVE SMOOTH",
"168 -123 OFFCURVE",
"192 -81 OFFCURVE",
"206 1 CURVE SMOOTH",
"232 144 LINE SMOOTH",
"244 214 OFFCURVE",
"258 222 OFFCURVE",
"315 218 CURVE",
"334 327 LINE",
"275 323 OFFCURVE",
"265 331 OFFCURVE",
"277 401 CURVE SMOOTH",
"302 544 LINE SMOOTH",
"309 583 OFFCURVE",
"310 611 OFFCURVE",
"306 632 CURVE SMOOTH",
"299 680 OFFCURVE",
"260 700 OFFCURVE",
"176 700 CURVE SMOOTH",
"113 700 LINE",
"93 589 LINE",
"155 589 LINE SMOOTH",
"174 589 OFFCURVE",
"184 578 OFFCURVE",
"178 545 CURVE SMOOTH",
"152 399 LINE SMOOTH",
"138 316 OFFCURVE",
"189 271 OFFCURVE",
"237 258 CURVE",
"242 288 LINE",
"189 275 OFFCURVE",
"123 231 OFFCURVE",
"108 146 CURVE SMOOTH",
"82 0 LINE SMOOTH",
"77 -34 OFFCURVE",
"63 -44 OFFCURVE",
"44 -44 CURVE SMOOTH",
"-18 -44 LINE",
"-37 -155 LINE",
"26 -155 LINE SMOOTH"
);
}
);
width = 346;
}
);
note = braceright;
unicode = 007D;
},
{
glyphname = bracketleft;
lastChange = "2021-12-05 10:36:32 +0000";
layers = (
{
layerId = "3A3E882A-FD1E-4FEC-B6F3-0E8C1BCDAD39";
paths = (
{
closed = 1;
nodes = (
"212 -151 LINE",
"225 -77 LINE",
"100 -77 LINE",
"223 626 LINE",
"348 626 LINE",
"361 700 LINE",
"155 700 LINE",
"6 -151 LINE"
);
}
);
userData = {
assembly = "NPUSHB[ ]	/* 34 values pushed */\0120 1 1 0 95 0 0 0 34 77 0 2 2 3 95 4 1 3 3 39 3 78 0 0 0 7 0 7 17 17 17 5 8 25 \012CALL[ ]	/* CallFunction */";
};
width = 316;
},
{
layerId = "541F4A62-0ECD-4B4B-B1D5-38FFB5FB401F";
paths = (
{
closed = 1;
nodes = (
"238 -151 LINE",
"258 -36 LINE",
"133 -36 LINE",
"243 585 LINE",
"368 585 LINE",
"388 700 LINE",
"122 700 LINE",
"-28 -151 LINE"
);
}
);
width = 343;
}
);
note = bracketleft;
unicode = 005B;
},
{
glyphname = bracketright;
lastChange = "2021-12-05 10:36:32 +0000";
layers = (
{
layerId = "3A3E882A-FD1E-4FEC-B6F3-0E8C1BCDAD39";
paths = (
{
closed = 1;
nodes = (
"318 700 LINE",
"112 700 LINE",
"99 626 LINE",
"224 626 LINE",
"101 -77 LINE",
"-24 -77 LINE",
"-37 -151 LINE",
"169 -151 LINE"
);
}
);
userData = {
assembly = "NPUSHB[ ]	/* 34 values pushed */\0120 1 1 2 95 0 2 2 34 77 0 0 0 3 95 4 1 3 3 39 3 78 0 0 0 7 0 7 17 17 17 5 8 25 \012CALL[ ]	/* CallFunction */";
};
width = 316;
},
{
layerId = "541F4A62-0ECD-4B4B-B1D5-38FFB5FB401F";
paths = (
{
closed = 1;
nodes = (
"378 700 LINE",
"112 700 LINE",
"92 585 LINE",
"217 585 LINE",
"107 -36 LINE",
"-18 -36 LINE",
"-38 -151 LINE",
"228 -151 LINE"
);
}
);
width = 344;
}
);
note = bracketright;
unicode = 005D;
},
{
glyphname = hyphen;
lastChange = "2021-12-05 10:36:32 +0000";
layers = (
{
layerId = "3A3E882A-FD1E-4FEC-B6F3-0E8C1BCDAD39";
paths = (
{
closed = 1;
nodes = (
"323 210 LINE",
"338 292 LINE",
"46 292 LINE",
"31 210 LINE"
);
}
);
userData = {
assembly = "NPUSHB[ ]	/* 27 values pushed */\0120 0 1 1 0 87 0 0 0 1 95 2 1 1 0 1 79 0 0 0 3 0 3 17 3 8 23 \012CALL[ ]	/* CallFunction */";
};
width = 369;
},
{
layerId = "541F4A62-0ECD-4B4B-B1D5-38FFB5FB401F";
paths = (
{
closed = 1;
nodes = (
"367 201 LINE",
"388 323 LINE",
"36 323 LINE",
"15 201 LINE"
);
}
);
width = 401;
}
);
note = hyphen;
unicode = 002D;
},
{
glyphname = uni00AD;
lastChange = "2021-12-05 10:36:32 +0000";
layers = (
{
layerId = "3A3E882A-FD1E-4FEC-B6F3-0E8C1BCDAD39";
paths = (
{
closed = 1;
nodes = (
"303 210 LINE",
"318 292 LINE",
"46 292 LINE",
"31 210 LINE"
);
}
);
userData = {
assembly = "NPUSHB[ ]	/* 27 values pushed */\0120 0 1 1 0 87 0 0 0 1 95 2 1 1 0 1 79 0 0 0 3 0 3 17 3 8 23 \012CALL[ ]	/* CallFunction */";
};
width = 349;
},
{
layerId = "541F4A62-0ECD-4B4B-B1D5-38FFB5FB401F";
paths = (
{
closed = 1;
nodes = (
"346 200 LINE",
"368 322 LINE",
"36 322 LINE",
"14 200 LINE"
);
}
);
width = 380;
}
);
note = uni00AD;
unicode = 00AD;
},
{
glyphname = endash;
lastChange = "2021-12-05 10:36:32 +0000";
layers = (
{
layerId = "3A3E882A-FD1E-4FEC-B6F3-0E8C1BCDAD39";
paths = (
{
closed = 1;
nodes = (
"433 211 LINE",
"448 291 LINE",
"50 291 LINE",
"35 211 LINE"
);
}
);
userData = {
assembly = "NPUSHB[ ]	/* 27 values pushed */\0120 0 1 1 0 87 0 0 0 1 95 2 1 1 0 1 79 0 0 0 3 0 3 17 3 8 23 \012CALL[ ]	/* CallFunction */";
};
width = 483;
},
{
layerId = "541F4A62-0ECD-4B4B-B1D5-38FFB5FB401F";
paths = (
{
closed = 1;
nodes = (
"491 201 LINE",
"511 321 LINE",
"53 321 LINE",
"33 201 LINE"
);
}
);
width = 542;
}
);
note = endash;
unicode = 2013;
},
{
glyphname = emdash;
lastChange = "2021-12-05 10:36:32 +0000";
layers = (
{
layerId = "3A3E882A-FD1E-4FEC-B6F3-0E8C1BCDAD39";
paths = (
{
closed = 1;
nodes = (
"752 211 LINE",
"767 291 LINE",
"49 291 LINE",
"34 211 LINE"
);
}
);
userData = {
assembly = "NPUSHB[ ]	/* 27 values pushed */\0120 0 1 1 0 87 0 0 0 1 95 2 1 1 0 1 79 0 0 0 3 0 3 17 3 8 23 \012CALL[ ]	/* CallFunction */";
};
width = 801;
},
{
layerId = "541F4A62-0ECD-4B4B-B1D5-38FFB5FB401F";
paths = (
{
closed = 1;
nodes = (
"811 201 LINE",
"831 321 LINE",
"53 321 LINE",
"33 201 LINE"
);
}
);
width = 862;
}
);
note = emdash;
unicode = 2014;
},
{
glyphname = underscore;
lastChange = "2021-12-05 10:36:32 +0000";
layers = (
{
layerId = "3A3E882A-FD1E-4FEC-B6F3-0E8C1BCDAD39";
paths = (
{
closed = 1;
nodes = (
"328 -80 LINE",
"343 0 LINE",
"-33 0 LINE",
"-48 -80 LINE"
);
}
);
userData = {
assembly = "PUSHB[ ]	/* 2 values pushed */\0126 100 \012WCVTP[ ]	/* WriteCVTInPixels */\012NPUSHB[ ]	/* 27 values pushed */\0120 0 1 1 0 87 0 0 0 1 95 2 1 1 0 1 79 0 0 0 3 0 3 17 3 8 23 \012CALL[ ]	/* CallFunction */\012PUSHB[ ]	/* 2 values pushed */\0126 0 \012WCVTP[ ]	/* WriteCVTInPixels */";
};
width = 397;
},
{
layerId = "541F4A62-0ECD-4B4B-B1D5-38FFB5FB401F";
paths = (
{
closed = 1;
nodes = (
"380 -120 LINE",
"401 0 LINE",
"-35 0 LINE",
"-56 -120 LINE"
);
}
);
width = 456;
}
);
note = underscore;
unicode = 005F;
},
{
glyphname = quotesinglbase;
lastChange = "2021-12-05 15:54:10 +0000";
layers = (
{
layerId = "3A3E882A-FD1E-4FEC-B6F3-0E8C1BCDAD39";
paths = (
{
closed = 1;
nodes = (
"48 -136 LINE",
"137 25 LINE SMOOTH",
"143 34 OFFCURVE",
"146 42 OFFCURVE",
"147 50 CURVE SMOOTH",
"154 85 OFFCURVE",
"130 114 OFFCURVE",
"94 114 CURVE SMOOTH",
"59 114 OFFCURVE",
"25 85 OFFCURVE",
"18 50 CURVE SMOOTH",
"12 18 OFFCURVE",
"30 -9 OFFCURVE",
"61 -14 CURVE",
"-7 -136 LINE"
);
}
);
userData = {
assembly = "NPUSHB[ ]	/* 33 values pushed */\0121 1 1 0 1 76 0 0 1 1 0 89 0 0 0 1 95 2 1 1 0 1 79 0 0 0 13 0 13 38 3 8 23 \012CALL[ ]	/* CallFunction */";
};
width = 234;
},
{
layerId = "541F4A62-0ECD-4B4B-B1D5-38FFB5FB401F";
paths = (
{
closed = 1;
nodes = (
"59 -136 LINE",
"159 29 LINE SMOOTH",
"168 42 OFFCURVE",
"175 61 OFFCURVE",
"177 70 CURVE SMOOTH",
"185 116 OFFCURVE",
"154 154 OFFCURVE",
"107 154 CURVE SMOOTH",
"61 154 OFFCURVE",
"16 116 OFFCURVE",
"8 70 CURVE SMOOTH",
"2 37 OFFCURVE",
"19 -2 OFFCURVE",
"52 -8 CURVE",
"-24 -136 LINE"
);
}
);
width = 251;
}
);
note = quotesinglbase;
rightKerningGroup = quotesinglbase;
unicode = 201A;
},
{
glyphname = quotedblbase;
lastChange = "2021-12-05 15:54:10 +0000";
layers = (
{
layerId = "3A3E882A-FD1E-4FEC-B6F3-0E8C1BCDAD39";
paths = (
{
closed = 1;
nodes = (
"48 -134 LINE",
"139 28 LINE SMOOTH",
"143 37 OFFCURVE",
"146 45 OFFCURVE",
"147 53 CURVE SMOOTH",
"154 88 OFFCURVE",
"130 117 OFFCURVE",
"94 117 CURVE SMOOTH",
"59 117 OFFCURVE",
"25 88 OFFCURVE",
"18 52 CURVE SMOOTH",
"13 20 OFFCURVE",
"31 -6 OFFCURVE",
"61 -11 CURVE",
"-7 -134 LINE"
);
},
{
closed = 1;
nodes = (
"212 -134 LINE",
"302 28 LINE SMOOTH",
"306 37 OFFCURVE",
"309 45 OFFCURVE",
"310 53 CURVE SMOOTH",
"317 88 OFFCURVE",
"294 117 OFFCURVE",
"258 117 CURVE SMOOTH",
"222 117 OFFCURVE",
"188 88 OFFCURVE",
"181 52 CURVE SMOOTH",
"176 20 OFFCURVE",
"194 -6 OFFCURVE",
"224 -11 CURVE",
"156 -134 LINE"
);
}
);
userData = {
assembly = "NPUSHB[ ]	/* 46 values pushed */\01215 1 2 1 0 1 76 2 1 0 1 1 0 89 2 1 0 0 1 95 5 3 4 3 1 0 1 79 14 14 0 0 14 27 14 27 22 20 0 13 0 13 38 6 8 23 \012CALL[ ]	/* CallFunction */";
};
width = 398;
},
{
layerId = "541F4A62-0ECD-4B4B-B1D5-38FFB5FB401F";
paths = (
{
closed = 1;
nodes = (
"59 -136 LINE",
"159 29 LINE SMOOTH",
"168 42 OFFCURVE",
"175 61 OFFCURVE",
"177 70 CURVE SMOOTH",
"185 117 OFFCURVE",
"154 154 OFFCURVE",
"107 154 CURVE SMOOTH",
"61 154 OFFCURVE",
"16 116 OFFCURVE",
"8 70 CURVE SMOOTH",
"2 37 OFFCURVE",
"19 -2 OFFCURVE",
"52 -8 CURVE",
"-24 -136 LINE"
);
},
{
closed = 1;
nodes = (
"260 -136 LINE",
"360 29 LINE SMOOTH",
"369 42 OFFCURVE",
"376 61 OFFCURVE",
"378 70 CURVE SMOOTH",
"386 117 OFFCURVE",
"355 154 OFFCURVE",
"308 154 CURVE SMOOTH",
"262 154 OFFCURVE",
"217 116 OFFCURVE",
"209 70 CURVE SMOOTH",
"203 37 OFFCURVE",
"220 -2 OFFCURVE",
"253 -8 CURVE",
"177 -136 LINE"
);
}
);
width = 452;
}
);
note = quotedblbase;
rightKerningGroup = quotesinglbase;
unicode = 201E;
},
{
glyphname = quotedblleft;
lastChange = "2021-12-05 10:36:32 +0000";
layers = (
{
layerId = "3A3E882A-FD1E-4FEC-B6F3-0E8C1BCDAD39";
paths = (
{
closed = 1;
nodes = (
"362 700 LINE",
"271 538 LINE SMOOTH",
"267 529 OFFCURVE",
"264 521 OFFCURVE",
"262 513 CURVE SMOOTH",
"256 478 OFFCURVE",
"280 449 OFFCURVE",
"316 449 CURVE SMOOTH",
"351 449 OFFCURVE",
"385 478 OFFCURVE",
"391 514 CURVE SMOOTH",
"397 546 OFFCURVE",
"379 572 OFFCURVE",
"349 577 CURVE",
"417 700 LINE"
);
},
{
closed = 1;
nodes = (
"198 700 LINE",
"108 538 LINE SMOOTH",
"104 529 OFFCURVE",
"101 521 OFFCURVE",
"99 513 CURVE SMOOTH",
"93 478 OFFCURVE",
"116 449 OFFCURVE",
"152 449 CURVE SMOOTH",
"188 449 OFFCURVE",
"222 478 OFFCURVE",
"228 514 CURVE SMOOTH",
"234 546 OFFCURVE",
"216 572 OFFCURVE",
"186 577 CURVE",
"254 700 LINE"
);
}
);
userData = {
assembly = "NPUSHB[ ]	/* 41 values pushed */\01224 9 2 0 1 1 76 5 2 4 3 0 0 1 95 3 1 1 1 34 0 78 16 15 1 0 23 22 15 29 16 29 8 7 0 14 1 14 6 8 22 \012CALL[ ]	/* CallFunction */";
};
width = 397;
},
{
layerId = "541F4A62-0ECD-4B4B-B1D5-38FFB5FB401F";
paths = (
{
closed = 1;
nodes = (
"402 700 LINE",
"302 535 LINE SMOOTH",
"293 522 OFFCURVE",
"286 503 OFFCURVE",
"284 494 CURVE SMOOTH",
"276 447 OFFCURVE",
"308 410 OFFCURVE",
"355 410 CURVE SMOOTH",
"401 410 OFFCURVE",
"445 448 OFFCURVE",
"453 494 CURVE SMOOTH",
"459 527 OFFCURVE",
"442 566 OFFCURVE",
"409 572 CURVE",
"485 700 LINE"
);
},
{
closed = 1;
nodes = (
"201 700 LINE",
"101 535 LINE SMOOTH",
"92 522 OFFCURVE",
"85 503 OFFCURVE",
"83 494 CURVE SMOOTH",
"75 447 OFFCURVE",
"107 410 OFFCURVE",
"154 410 CURVE SMOOTH",
"200 410 OFFCURVE",
"244 448 OFFCURVE",
"252 494 CURVE SMOOTH",
"258 527 OFFCURVE",
"241 566 OFFCURVE",
"208 572 CURVE",
"284 700 LINE"
);
}
);
width = 452;
}
);
note = quotedblleft;
unicode = 201C;
},
{
glyphname = quotedblright;
lastChange = "2021-12-18 10:39:12 +0000";
layers = (
{
layerId = "3A3E882A-FD1E-4FEC-B6F3-0E8C1BCDAD39";
paths = (
{
closed = 1;
nodes = (
"154 464 LINE",
"244 626 LINE SMOOTH",
"249 635 OFFCURVE",
"252 643 OFFCURVE",
"253 651 CURVE SMOOTH",
"259 686 OFFCURVE",
"236 715 OFFCURVE",
"200 715 CURVE SMOOTH",
"165 715 OFFCURVE",
"130 686 OFFCURVE",
"124 650 CURVE SMOOTH",
"119 618 OFFCURVE",
"137 592 OFFCURVE",
"167 587 CURVE",
"99 464 LINE"
);
},
{
closed = 1;
nodes = (
"318 464 LINE",
"407 626 LINE SMOOTH",
"412 635 OFFCURVE",
"415 643 OFFCURVE",
"416 651 CURVE SMOOTH",
"422 686 OFFCURVE",
"400 715 OFFCURVE",
"364 715 CURVE SMOOTH",
"328 715 OFFCURVE",
"293 686 OFFCURVE",
"287 650 CURVE SMOOTH",
"282 618 OFFCURVE",
"300 592 OFFCURVE",
"330 587 CURVE",
"262 464 LINE"
);
}
);
userData = {
assembly = "NPUSHB[ ]	/* 40 values pushed */\01215 1 2 1 0 1 76 5 3 4 3 1 1 0 97 2 1 0 0 40 1 78 14 14 0 0 14 27 14 27 22 20 0 13 0 13 38 6 8 23 \012CALL[ ]	/* CallFunction */";
};
width = 398;
},
{
layerId = "541F4A62-0ECD-4B4B-B1D5-38FFB5FB401F";
paths = (
{
closed = 1;
nodes = (
"159 426 LINE",
"259 591 LINE SMOOTH",
"267 604 OFFCURVE",
"275 623 OFFCURVE",
"276 632 CURVE SMOOTH",
"285 679 OFFCURVE",
"253 716 OFFCURVE",
"206 716 CURVE SMOOTH",
"160 716 OFFCURVE",
"116 678 OFFCURVE",
"107 632 CURVE SMOOTH",
"102 599 OFFCURVE",
"119 560 OFFCURVE",
"152 554 CURVE",
"76 426 LINE"
);
},
{
closed = 1;
nodes = (
"360 426 LINE",
"460 591 LINE SMOOTH",
"468 604 OFFCURVE",
"476 623 OFFCURVE",
"477 632 CURVE SMOOTH",
"486 679 OFFCURVE",
"454 716 OFFCURVE",
"407 716 CURVE SMOOTH",
"361 716 OFFCURVE",
"317 678 OFFCURVE",
"308 632 CURVE SMOOTH",
"303 599 OFFCURVE",
"320 560 OFFCURVE",
"353 554 CURVE",
"277 426 LINE"
);
}
);
width = 452;
}
);
note = quotedblright;
rightKerningGroup = quoteright;
unicode = 201D;
},
{
glyphname = quoteleft;
lastChange = "2021-12-05 10:36:32 +0000";
layers = (
{
layerId = "3A3E882A-FD1E-4FEC-B6F3-0E8C1BCDAD39";
paths = (
{
closed = 1;
nodes = (
"198 700 LINE",
"108 538 LINE SMOOTH",
"104 529 OFFCURVE",
"101 521 OFFCURVE",
"99 513 CURVE SMOOTH",
"93 478 OFFCURVE",
"116 449 OFFCURVE",
"152 449 CURVE SMOOTH",
"188 449 OFFCURVE",
"222 478 OFFCURVE",
"228 514 CURVE SMOOTH",
"234 546 OFFCURVE",
"216 572 OFFCURVE",
"186 577 CURVE",
"254 700 LINE"
);
}
);
userData = {
assembly = "NPUSHB[ ]	/* 29 values pushed */\0128 1 0 1 1 76 2 1 0 0 1 95 0 1 1 34 0 78 1 0 7 6 0 13 1 13 3 8 22 \012CALL[ ]	/* CallFunction */";
};
width = 234;
},
{
layerId = "541F4A62-0ECD-4B4B-B1D5-38FFB5FB401F";
paths = (
{
closed = 1;
nodes = (
"201 700 LINE",
"101 535 LINE SMOOTH",
"92 522 OFFCURVE",
"85 503 OFFCURVE",
"83 494 CURVE SMOOTH",
"75 447 OFFCURVE",
"107 410 OFFCURVE",
"154 410 CURVE SMOOTH",
"200 410 OFFCURVE",
"244 448 OFFCURVE",
"252 494 CURVE SMOOTH",
"258 527 OFFCURVE",
"241 566 OFFCURVE",
"208 572 CURVE",
"284 700 LINE"
);
}
);
width = 251;
}
);
note = quoteleft;
unicode = 2018;
},
{
glyphname = quoteright;
lastChange = "2021-12-05 15:54:10 +0000";
layers = (
{
layerId = "3A3E882A-FD1E-4FEC-B6F3-0E8C1BCDAD39";
paths = (
{
closed = 1;
nodes = (
"154 464 LINE",
"244 626 LINE SMOOTH",
"249 635 OFFCURVE",
"252 643 OFFCURVE",
"253 651 CURVE SMOOTH",
"259 686 OFFCURVE",
"236 715 OFFCURVE",
"200 715 CURVE SMOOTH",
"165 715 OFFCURVE",
"130 686 OFFCURVE",
"124 650 CURVE SMOOTH",
"119 618 OFFCURVE",
"137 592 OFFCURVE",
"167 587 CURVE",
"99 464 LINE"
);
}
);
userData = {
assembly = "NPUSHB[ ]	/* 28 values pushed */\0121 1 1 0 1 76 2 1 1 1 0 97 0 0 0 40 1 78 0 0 0 13 0 13 38 3 8 23 \012CALL[ ]	/* CallFunction */";
};
width = 235;
},
{
layerId = "541F4A62-0ECD-4B4B-B1D5-38FFB5FB401F";
paths = (
{
closed = 1;
nodes = (
"159 426 LINE",
"259 591 LINE SMOOTH",
"267 604 OFFCURVE",
"275 623 OFFCURVE",
"276 632 CURVE SMOOTH",
"285 679 OFFCURVE",
"253 716 OFFCURVE",
"206 716 CURVE SMOOTH",
"160 716 OFFCURVE",
"116 678 OFFCURVE",
"107 632 CURVE SMOOTH",
"102 599 OFFCURVE",
"119 560 OFFCURVE",
"152 554 CURVE",
"76 426 LINE"
);
}
);
width = 251;
}
);
note = quoteright;
rightKerningGroup = quoteright;
unicode = 2019;
},
{
glyphname = guillemotleft;
lastChange = "2021-12-05 10:36:32 +0000";
layers = (
{
layerId = "3A3E882A-FD1E-4FEC-B6F3-0E8C1BCDAD39";
paths = (
{
closed = 1;
nodes = (
"263 40 LINE",
"151 251 LINE",
"338 461 LINE",
"239 461 LINE",
"53 251 LINE",
"164 40 LINE"
);
},
{
closed = 1;
nodes = (
"472 40 LINE",
"359 251 LINE",
"547 461 LINE",
"447 461 LINE",
"262 251 LINE",
"372 40 LINE"
);
}
);
userData = {
assembly = "NPUSHB[ ]	/* 48 values pushed */\01210 7 4 1 4 1 0 1 76 2 1 0 1 1 0 87 2 1 0 0 1 95 5 3 4 3 1 0 1 79 6 6 0 0 6 11 6 11 9 8 0 5 0 5 18 6 8 23 \012CALL[ ]	/* CallFunction */";
};
width = 563;
},
{
layerId = "541F4A62-0ECD-4B4B-B1D5-38FFB5FB401F";
paths = (
{
closed = 1;
nodes = (
"334 45 LINE",
"217 256 LINE",
"407 466 LINE",
"242 466 LINE",
"53 256 LINE",
"169 45 LINE"
);
},
{
closed = 1;
nodes = (
"543 45 LINE",
"425 256 LINE",
"616 466 LINE",
"450 466 LINE",
"262 256 LINE",
"377 45 LINE"
);
}
);
width = 633;
}
);
note = guillemotleft;
unicode = 00AB;
},
{
glyphname = guillemotright;
lastChange = "2021-12-14 17:04:25 +0000";
layers = (
{
layerId = "3A3E882A-FD1E-4FEC-B6F3-0E8C1BCDAD39";
paths = (
{
closed = 1;
nodes = (
"324 40 LINE",
"509 251 LINE",
"399 461 LINE",
"300 461 LINE",
"411 251 LINE",
"225 40 LINE"
);
},
{
closed = 1;
nodes = (
"116 40 LINE",
"300 251 LINE",
"191 461 LINE",
"91 461 LINE",
"202 251 LINE",
"16 40 LINE"
);
}
);
userData = {
assembly = "NPUSHB[ ]	/* 48 values pushed */\01210 7 4 1 4 1 0 1 76 2 1 0 1 1 0 87 2 1 0 0 1 95 5 3 4 3 1 0 1 79 6 6 0 0 6 11 6 11 9 8 0 5 0 5 18 6 8 23 \012CALL[ ]	/* CallFunction */";
};
width = 562;
},
{
layerId = "541F4A62-0ECD-4B4B-B1D5-38FFB5FB401F";
paths = (
{
closed = 1;
nodes = (
"391 45 LINE",
"579 256 LINE",
"464 466 LINE",
"299 466 LINE",
"415 256 LINE",
"226 45 LINE"
);
},
{
closed = 1;
nodes = (
"183 45 LINE",
"370 256 LINE",
"256 466 LINE",
"90 466 LINE",
"207 256 LINE",
"17 45 LINE"
);
}
);
width = 632;
}
);
note = guillemotright;
unicode = 00BB;
},
{
glyphname = guilsinglleft;
lastChange = "2021-12-05 10:36:32 +0000";
layers = (
{
layerId = "3A3E882A-FD1E-4FEC-B6F3-0E8C1BCDAD39";
paths = (
{
closed = 1;
nodes = (
"263 40 LINE",
"151 250 LINE",
"338 461 LINE",
"239 461 LINE",
"53 250 LINE",
"164 40 LINE"
);
}
);
userData = {
assembly = "NPUSHB[ ]	/* 34 values pushed */\0124 1 2 1 0 1 76 0 0 1 1 0 87 0 0 0 1 95 2 1 1 0 1 79 0 0 0 5 0 5 18 3 8 23 \012CALL[ ]	/* CallFunction */";
};
width = 354;
},
{
layerId = "541F4A62-0ECD-4B4B-B1D5-38FFB5FB401F";
paths = (
{
closed = 1;
nodes = (
"328 27 LINE",
"205 257 LINE",
"409 488 LINE",
"244 488 LINE",
"41 257 LINE",
"163 27 LINE"
);
}
);
width = 409;
}
);
note = guilsinglleft;
unicode = 2039;
},
{
glyphname = guilsinglright;
lastChange = "2021-12-05 10:36:32 +0000";
layers = (
{
layerId = "3A3E882A-FD1E-4FEC-B6F3-0E8C1BCDAD39";
paths = (
{
closed = 1;
nodes = (
"117 40 LINE",
"301 250 LINE",
"192 461 LINE",
"92 461 LINE",
"203 250 LINE",
"17 40 LINE"
);
}
);
userData = {
assembly = "NPUSHB[ ]	/* 34 values pushed */\0124 1 2 1 0 1 76 0 0 1 1 0 87 0 0 0 1 95 2 1 1 0 1 79 0 0 0 5 0 5 18 3 8 23 \012CALL[ ]	/* CallFunction */";
};
width = 355;
},
{
layerId = "541F4A62-0ECD-4B4B-B1D5-38FFB5FB401F";
paths = (
{
closed = 1;
nodes = (
"167 27 LINE",
"368 257 LINE",
"248 488 LINE",
"82 488 LINE",
"204 257 LINE",
"1 27 LINE"
);
}
);
width = 409;
}
);
note = guilsinglright;
unicode = 203A;
},
{
glyphname = quotedbl;
lastChange = "2021-12-05 10:36:32 +0000";
layers = (
{
layerId = "3A3E882A-FD1E-4FEC-B6F3-0E8C1BCDAD39";
paths = (
{
closed = 1;
nodes = (
"146 479 LINE",
"199 700 LINE",
"119 700 LINE",
"94 479 LINE"
);
},
{
closed = 1;
nodes = (
"287 479 LINE",
"340 700 LINE",
"260 700 LINE",
"235 479 LINE"
);
}
);
userData = {
assembly = "NPUSHB[ ]	/* 33 values pushed */\0125 3 4 3 1 1 0 95 2 1 0 0 34 1 78 4 4 0 0 4 7 4 7 6 5 0 3 0 3 17 6 8 23 \012CALL[ ]	/* CallFunction */";
};
width = 301;
},
{
layerId = "541F4A62-0ECD-4B4B-B1D5-38FFB5FB401F";
paths = (
{
closed = 1;
nodes = (
"203 469 LINE",
"260 700 LINE",
"118 700 LINE",
"93 469 LINE"
);
},
{
closed = 1;
nodes = (
"383 469 LINE",
"440 700 LINE",
"298 700 LINE",
"273 469 LINE"
);
}
);
width = 402;
}
);
note = quotedbl;
unicode = 0022;
},
{
glyphname = quotesingle;
lastChange = "2021-12-05 10:36:32 +0000";
layers = (
{
layerId = "3A3E882A-FD1E-4FEC-B6F3-0E8C1BCDAD39";
paths = (
{
closed = 1;
nodes = (
"146 479 LINE",
"199 700 LINE",
"119 700 LINE",
"94 479 LINE"
);
}
);
userData = {
assembly = "NPUSHB[ ]	/* 22 values pushed */\0122 1 1 1 0 95 0 0 0 34 1 78 0 0 0 3 0 3 17 3 8 23 \012CALL[ ]	/* CallFunction */";
};
width = 160;
},
{
layerId = "541F4A62-0ECD-4B4B-B1D5-38FFB5FB401F";
paths = (
{
closed = 1;
nodes = (
"203 469 LINE",
"260 700 LINE",
"118 700 LINE",
"93 469 LINE"
);
}
);
width = 222;
}
);
note = quotesingle;
unicode = 0027;
},
{
glyphname = cent;
lastChange = "2021-12-05 10:36:32 +0000";
layers = (
{
layerId = "3A3E882A-FD1E-4FEC-B6F3-0E8C1BCDAD39";
paths = (
{
closed = 1;
nodes = (
"243 -87 LINE",
"334 571 LINE",
"279 571 LINE",
"188 -87 LINE"
);
},
{
closed = 1;
nodes = (
"350 87 OFFCURVE",
"316 62 OFFCURVE",
"258 62 CURVE SMOOTH",
"154 62 OFFCURVE",
"109 145 OFFCURVE",
"123 251 CURVE SMOOTH",
"138 357 OFFCURVE",
"207 440 OFFCURVE",
"311 440 CURVE SMOOTH",
"369 440 OFFCURVE",
"396 415 OFFCURVE",
"419 375 CURVE",
"498 402 LINE",
"385 617 OFFCURVE",
"76 505 OFFCURVE",
"38 251 CURVE SMOOTH",
"18 106 OFFCURVE",
"96 -13 OFFCURVE",
"247 -13 CURVE SMOOTH",
"331 -13 OFFCURVE",
"401 32 OFFCURVE",
"455 100 CURVE",
"384 127 LINE"
);
}
);
userData = {
assembly = "NPUSHB[ ]	/* 41 values pushed */\01229 28 26 23 22 19 18 16 15 9 1 11 2 1 1 76 0 0 3 1 2 0 2 99 0 1 1 43 1 78 0 0 0 27 0 27 17 26 4 8 24 \012CALL[ ]	/* CallFunction */";
};
width = 514;
},
{
layerId = "541F4A62-0ECD-4B4B-B1D5-38FFB5FB401F";
paths = (
{
closed = 1;
nodes = (
"254 -87 LINE",
"351 600 LINE",
"271 602 LINE",
"174 -85 LINE"
);
},
{
closed = 1;
nodes = (
"332 118 OFFCURVE",
"310 102 OFFCURVE",
"264 102 CURVE SMOOTH",
"185 102 OFFCURVE",
"125 154 OFFCURVE",
"139 257 CURVE SMOOTH",
"154 360 OFFCURVE",
"227 409 OFFCURVE",
"306 409 CURVE SMOOTH",
"352 409 OFFCURVE",
"371 393 OFFCURVE",
"400 337 CURVE",
"532 382 LINE",
"424 636 OFFCURVE",
"51 534 OFFCURVE",
"9 257 CURVE SMOOTH",
"-15 92 OFFCURVE",
"88 -13 OFFCURVE",
"248 -13 CURVE SMOOTH",
"343 -13 OFFCURVE",
"433 38 OFFCURVE",
"497 129 CURVE",
"377 174 LINE"
);
}
);
width = 605;
}
);
note = cent;
unicode = 00A2;
},
{
glyphname = dollar;
lastChange = "2021-12-05 10:36:32 +0000";
layers = (
{
layerId = "3A3E882A-FD1E-4FEC-B6F3-0E8C1BCDAD39";
paths = (
{
closed = 1;
nodes = (
"379 -15 OFFCURVE",
"523 66 OFFCURVE",
"548 189 CURVE SMOOTH",
"572 299 OFFCURVE",
"519 364 OFFCURVE",
"394 393 CURVE SMOOTH",
"325 409 LINE SMOOTH",
"252 426 OFFCURVE",
"194 466 OFFCURVE",
"208 534 CURVE SMOOTH",
"223 604 OFFCURVE",
"301 635 OFFCURVE",
"374 635 CURVE SMOOTH",
"435 635 OFFCURVE",
"494 608 OFFCURVE",
"509 561 CURVE",
"602 590 LINE",
"579 674 OFFCURVE",
"495 715 OFFCURVE",
"395 715 CURVE SMOOTH",
"276 715 OFFCURVE",
"136 654 OFFCURVE",
"112 538 CURVE SMOOTH",
"90 433 OFFCURVE",
"139 358 OFFCURVE",
"260 330 CURVE SMOOTH",
"341 311 LINE SMOOTH",
"437 289 OFFCURVE",
"462 248 OFFCURVE",
"450 193 CURVE SMOOTH",
"434 115 OFFCURVE",
"352 65 OFFCURVE",
"267 65 CURVE SMOOTH",
"193 65 OFFCURVE",
"124 101 OFFCURVE",
"115 172 CURVE",
"21 143 LINE",
"33 40 OFFCURVE",
"130 -15 OFFCURVE",
"246 -15 CURVE SMOOTH"
);
},
{
closed = 1;
nodes = (
"252 -94 LINE",
"439 795 LINE",
"384 795 LINE",
"197 -94 LINE"
);
}
);
userData = {
assembly = "NPUSHB[ ]	/* 63 values pushed */\01256 42 41 29 28 25 24 21 18 8 5 4 12 3 0 7 1 1 3 2 76 1 1 1 1 75 0 0 3 0 133 4 1 2 1 2 134 0 3 3 1 97 0 1 1 41 1 78 0 0 51 50 0 40 0 40 39 38 20 19 5 8 22 \012CALL[ ]	/* CallFunction */";
};
width = 599;
},
{
layerId = "541F4A62-0ECD-4B4B-B1D5-38FFB5FB401F";
paths = (
{
closed = 1;
nodes = (
"406 -15 OFFCURVE",
"554 74 OFFCURVE",
"580 199 CURVE SMOOTH",
"605 316 OFFCURVE",
"545 380 OFFCURVE",
"405 413 CURVE SMOOTH",
"335 429 LINE SMOOTH",
"262 446 OFFCURVE",
"226 474 OFFCURVE",
"235 524 CURVE SMOOTH",
"246 575 OFFCURVE",
"293 595 OFFCURVE",
"365 595 CURVE SMOOTH",
"429 595 OFFCURVE",
"476 563 OFFCURVE",
"480 513 CURVE",
"631 560 LINE",
"616 654 OFFCURVE",
"521 715 OFFCURVE",
"394 715 CURVE SMOOTH",
"239 715 OFFCURVE",
"104 641 OFFCURVE",
"80 528 CURVE SMOOTH",
"56 412 OFFCURVE",
"117 341 OFFCURVE",
"249 310 CURVE SMOOTH",
"331 291 LINE SMOOTH",
"406 274 OFFCURVE",
"433 255 OFFCURVE",
"422 203 CURVE SMOOTH",
"409 140 OFFCURVE",
"350 105 OFFCURVE",
"275 105 CURVE SMOOTH",
"196 105 OFFCURVE",
"145 149 OFFCURVE",
"148 222 CURVE",
"-6 174 LINE",
"-4 62 OFFCURVE",
"101 -15 OFFCURVE",
"246 -15 CURVE SMOOTH"
);
},
{
closed = 1;
nodes = (
"268 -94 LINE",
"455 795 LINE",
"375 795 LINE",
"188 -94 LINE"
);
}
);
width = 601;
}
);
note = dollar;
unicode = 0024;
},
{
glyphname = euro;
lastChange = "2021-12-05 10:36:32 +0000";
layers = (
{
layerId = "3A3E882A-FD1E-4FEC-B6F3-0E8C1BCDAD39";
paths = (
{
closed = 1;
nodes = (
"459 -14 OFFCURVE",
"556 38 OFFCURVE",
"615 137 CURVE",
"542 165 LINE",
"504 105 OFFCURVE",
"444 65 OFFCURVE",
"364 65 CURVE SMOOTH",
"272 65 OFFCURVE",
"213 139 OFFCURVE",
"201 248 CURVE",
"357 248 LINE",
"393 299 LINE",
"201 299 LINE",
"213 385 LINE",
"452 385 LINE",
"487 436 LINE",
"228 436 LINE",
"270 559 OFFCURVE",
"353 636 OFFCURVE",
"441 636 CURVE SMOOTH",
"522 636 OFFCURVE",
"570 595 OFFCURVE",
"590 535 CURVE",
"672 563 LINE",
"642 660 OFFCURVE",
"562 715 OFFCURVE",
"458 715 CURVE SMOOTH",
"310 715 OFFCURVE",
"190 601 OFFCURVE",
"137 436 CURVE",
"74 436 LINE",
"39 385 LINE",
"124 385 LINE",
"112 299 LINE",
"55 299 LINE",
"19 248 LINE",
"110 248 LINE",
"117 96 OFFCURVE",
"199 -14 OFFCURVE",
"348 -14 CURVE SMOOTH"
);
}
);
userData = {
assembly = "NPUSHB[ ]	/* 87 values pushed */\01220 19 2 3 5 43 42 2 10 1 2 76 11 1 7 1 75 6 1 3 0 7 2 3 7 103 8 1 2 9 1 1 10 2 1 104 0 5 5 4 97 0 4 4 40 77 0 10 10 0 97 11 1 0 0 41 0 78 1 0 40 38 36 35 34 32 29 28 27 26 24 22 17 15 13 12 6 5 4 3 0 45 1 45 12 8 22 \012CALL[ ]	/* CallFunction */";
};
width = 673;
},
{
layerId = "541F4A62-0ECD-4B4B-B1D5-38FFB5FB401F";
paths = (
{
closed = 1;
nodes = (
"521 -14 OFFCURVE",
"637 54 OFFCURVE",
"695 167 CURVE",
"572 214 LINE",
"532 140 OFFCURVE",
"480 105 OFFCURVE",
"410 105 CURVE SMOOTH",
"343 105 OFFCURVE",
"296 168 OFFCURVE",
"277 238 CURVE",
"418 238 LINE",
"479 319 LINE",
"274 319 LINE",
"281 365 LINE",
"511 365 LINE",
"572 446 LINE",
"305 446 LINE",
"345 545 OFFCURVE",
"410 596 OFFCURVE",
"476 596 CURVE SMOOTH",
"546 596 OFFCURVE",
"588 560 OFFCURVE",
"604 486 CURVE",
"743 533 LINE",
"717 645 OFFCURVE",
"622 715 OFFCURVE",
"498 715 CURVE SMOOTH",
"345 715 OFFCURVE",
"213 617 OFFCURVE",
"153 446 CURVE",
"95 446 LINE",
"34 365 LINE",
"132 365 LINE",
"125 319 LINE",
"77 319 LINE",
"16 238 LINE",
"124 238 LINE",
"140 96 OFFCURVE",
"238 -14 OFFCURVE",
"389 -14 CURVE SMOOTH"
);
}
);
width = 749;
}
);
note = Euro;
unicode = 20AC;
},
{
glyphname = sterling;
lastChange = "2021-12-05 10:36:32 +0000";
layers = (
{
layerId = "3A3E882A-FD1E-4FEC-B6F3-0E8C1BCDAD39";
paths = (
{
closed = 1;
nodes = (
"118 13 OFFCURVE",
"162 23 OFFCURVE",
"198 23 CURVE SMOOTH",
"276 23 OFFCURVE",
"322 -15 OFFCURVE",
"398 -15 CURVE SMOOTH",
"433 -15 OFFCURVE",
"475 -6 OFFCURVE",
"528 15 CURVE",
"516 88 LINE",
"468 69 OFFCURVE",
"434 63 OFFCURVE",
"403 63 CURVE SMOOTH",
"333 63 OFFCURVE",
"300 99 OFFCURVE",
"231 99 CURVE SMOOTH",
"207 99 OFFCURVE",
"176 93 OFFCURVE",
"136 73 CURVE",
"143 75 LINE",
"214 105 OFFCURVE",
"277 162 OFFCURVE",
"291 238 CURVE SMOOTH",
"298 278 OFFCURVE",
"298 301 OFFCURVE",
"291 334 CURVE",
"471 334 LINE",
"480 389 LINE",
"276 389 LINE",
"262 436 OFFCURVE",
"247 495 OFFCURVE",
"256 543 CURVE SMOOTH",
"269 618 OFFCURVE",
"337 644 OFFCURVE",
"401 644 CURVE SMOOTH",
"464 644 OFFCURVE",
"514 620 OFFCURVE",
"519 551 CURVE",
"607 576 LINE",
"597 661 OFFCURVE",
"530 715 OFFCURVE",
"418 715 CURVE SMOOTH",
"301 715 OFFCURVE",
"188 663 OFFCURVE",
"167 546 CURVE SMOOTH",
"158 494 OFFCURVE",
"171 434 OFFCURVE",
"183 389 CURVE",
"95 389 LINE",
"86 334 LINE",
"198 334 LINE",
"207 296 OFFCURVE",
"208 267 OFFCURVE",
"200 226 CURVE SMOOTH",
"184 133 OFFCURVE",
"97 74 OFFCURVE",
"41 52 CURVE",
"58 -15 LINE"
);
}
);
userData = {
assembly = "NPUSHB[ ]	/* 73 values pushed */\01223 22 2 1 3 52 42 2 7 6 1 1 9 7 53 1 8 9 4 76 4 1 1 5 1 0 6 1 0 103 0 6 0 9 8 6 9 105 0 3 3 2 97 0 2 2 40 77 0 7 7 8 97 0 8 8 41 8 78 61 59 37 34 40 17 22 37 38 17 25 10 8 31 \012CALL[ ]	/* CallFunction */";
};
width = 599;
},
{
layerId = "541F4A62-0ECD-4B4B-B1D5-38FFB5FB401F";
paths = (
{
closed = 1;
nodes = (
"111 21 OFFCURVE",
"159 37 OFFCURVE",
"200 37 CURVE SMOOTH",
"267 37 OFFCURVE",
"310 -1 OFFCURVE",
"399 -1 CURVE SMOOTH",
"446 -1 OFFCURVE",
"505 14 OFFCURVE",
"565 41 CURVE",
"546 155 LINE",
"485 127 OFFCURVE",
"449 117 OFFCURVE",
"411 117 CURVE SMOOTH",
"353 117 OFFCURVE",
"324 147 OFFCURVE",
"239 147 CURVE SMOOTH",
"205 147 OFFCURVE",
"184 149 OFFCURVE",
"81 91 CURVE",
"158 91 LINE",
"239 136 OFFCURVE",
"292 153 OFFCURVE",
"316 228 CURVE SMOOTH",
"325 253 OFFCURVE",
"326 280 OFFCURVE",
"323 304 CURVE",
"495 304 LINE",
"511 399 LINE",
"299 399 LINE",
"282 455 OFFCURVE",
"275 489 OFFCURVE",
"281 523 CURVE SMOOTH",
"290 576 OFFCURVE",
"328 604 OFFCURVE",
"393 604 CURVE SMOOTH",
"461 604 OFFCURVE",
"488 573 OFFCURVE",
"485 502 CURVE",
"633 544 LINE",
"631 649 OFFCURVE",
"545 715 OFFCURVE",
"417 715 CURVE SMOOTH",
"266 715 OFFCURVE",
"153 641 OFFCURVE",
"133 526 CURVE SMOOTH",
"125 482 OFFCURVE",
"134 442 OFFCURVE",
"144 399 CURVE",
"66 399 LINE",
"50 304 LINE",
"169 304 LINE",
"175 276 OFFCURVE",
"174 250 OFFCURVE",
"169 216 CURVE SMOOTH",
"155 143 OFFCURVE",
"97 111 OFFCURVE",
"15 73 CURVE",
"40 -15 LINE"
);
}
);
width = 601;
}
);
note = sterling;
unicode = 00A3;
},
{
glyphname = yen;
lastChange = "2021-12-05 10:36:32 +0000";
layers = (
{
layerId = "3A3E882A-FD1E-4FEC-B6F3-0E8C1BCDAD39";
paths = (
{
closed = 1;
nodes = (
"667 700 LINE",
"564 700 LINE",
"320 371 LINE",
"192 700 LINE",
"89 700 LINE",
"259 286 LINE",
"109 286 LINE",
"100 235 LINE",
"250 235 LINE",
"235 149 LINE",
"85 149 LINE",
"76 98 LINE",
"226 98 LINE",
"209 0 LINE",
"303 0 LINE",
"320 98 LINE",
"469 98 LINE",
"478 149 LINE",
"329 149 LINE",
"344 235 LINE",
"493 235 LINE",
"502 286 LINE",
"353 286 LINE"
);
}
);
userData = {
assembly = "NPUSHB[ ]	/* 59 values pushed */\01211 1 3 4 1 76 6 1 3 7 1 2 1 3 2 104 8 1 1 9 1 0 10 1 0 103 5 1 4 4 34 77 11 1 10 10 35 10 78 0 0 0 22 0 22 21 20 17 17 17 18 17 17 17 17 17 12 8 31 \012CALL[ ]	/* CallFunction */";
};
width = 598;
},
{
layerId = "541F4A62-0ECD-4B4B-B1D5-38FFB5FB401F";
paths = (
{
closed = 1;
nodes = (
"710 700 LINE",
"544 700 LINE",
"326 407 LINE",
"212 700 LINE",
"46 700 LINE",
"220 315 LINE",
"83 315 LINE",
"68 235 LINE",
"218 235 LINE",
"211 189 LINE",
"61 189 LINE",
"47 109 LINE",
"197 109 LINE",
"177 0 LINE",
"331 0 LINE",
"351 109 LINE",
"500 109 LINE",
"514 189 LINE",
"365 189 LINE",
"372 235 LINE",
"521 235 LINE",
"536 315 LINE",
"400 315 LINE"
);
}
);
width = 600;
}
);
note = yen;
unicode = 00A5;
},
{
glyphname = plus;
lastChange = "2021-12-05 10:36:32 +0000";
layers = (
{
layerId = "3A3E882A-FD1E-4FEC-B6F3-0E8C1BCDAD39";
paths = (
{
closed = 1;
nodes = (
"298 0 LINE",
"334 210 LINE",
"542 210 LINE",
"556 290 LINE",
"348 290 LINE",
"385 500 LINE",
"305 500 LINE",
"268 290 LINE",
"60 290 LINE",
"46 210 LINE",
"254 210 LINE",
"218 0 LINE"
);
}
);
userData = {
assembly = "NPUSHB[ ]	/* 36 values pushed */\0123 1 1 4 1 0 5 1 0 103 0 2 2 37 77 6 1 5 5 35 5 78 0 0 0 11 0 11 17 17 17 17 17 7 8 27 \012CALL[ ]	/* CallFunction */";
};
width = 602;
},
{
layerId = "541F4A62-0ECD-4B4B-B1D5-38FFB5FB401F";
paths = (
{
closed = 1;
nodes = (
"316 0 LINE",
"350 190 LINE",
"538 190 LINE",
"559 310 LINE",
"371 310 LINE",
"406 510 LINE",
"286 510 LINE",
"251 310 LINE",
"63 310 LINE",
"42 190 LINE",
"230 190 LINE",
"196 0 LINE"
);
}
);
width = 600;
}
);
note = plus;
unicode = 002B;
},
{
glyphname = minus;
lastChange = "2021-12-05 10:36:32 +0000";
layers = (
{
layerId = "3A3E882A-FD1E-4FEC-B6F3-0E8C1BCDAD39";
paths = (
{
closed = 1;
nodes = (
"542 208 LINE",
"556 288 LINE",
"60 288 LINE",
"46 208 LINE"
);
}
);
userData = {
assembly = "NPUSHB[ ]	/* 27 values pushed */\0120 0 1 1 0 87 0 0 0 1 95 2 1 1 0 1 79 0 0 0 3 0 3 17 3 6 23 \012CALL[ ]	/* CallFunction */";
};
width = 602;
},
{
layerId = "541F4A62-0ECD-4B4B-B1D5-38FFB5FB401F";
paths = (
{
closed = 1;
nodes = (
"568 188 LINE",
"589 308 LINE",
"33 308 LINE",
"12 188 LINE"
);
}
);
width = 600;
}
);
note = minus;
unicode = 2212;
},
{
glyphname = multiply;
lastChange = "2021-12-05 10:36:32 +0000";
layers = (
{
layerId = "3A3E882A-FD1E-4FEC-B6F3-0E8C1BCDAD39";
paths = (
{
closed = 1;
nodes = (
"254 193 LINE",
"381 39 LINE",
"448 97 LINE",
"322 250 LINE",
"503 404 LINE",
"456 462 LINE",
"274 308 LINE",
"148 462 LINE",
"81 404 LINE",
"207 250 LINE",
"26 97 LINE",
"73 39 LINE"
);
}
);
userData = {
assembly = "PUSHB[ ]	/* 4 values pushed */\0124 0 1 50 \012CALL[ ]	/* CallFunction */";
};
width = 529;
},
{
layerId = "541F4A62-0ECD-4B4B-B1D5-38FFB5FB401F";
paths = (
{
closed = 1;
nodes = (
"278 168 LINE",
"405 14 LINE",
"505 100 LINE",
"379 253 LINE",
"559 407 LINE",
"489 493 LINE",
"308 339 LINE",
"181 493 LINE",
"81 407 LINE",
"208 253 LINE",
"27 100 LINE",
"97 14 LINE"
);
}
);
width = 586;
}
);
note = multiply;
unicode = 00D7;
},
